<svg id="Capa_1" enable-background="new 0 0 511.987 511.987" height="512" viewBox="0 0 511.987 511.987" width="512" xmlns="http://www.w3.org/2000/svg" xmlns:xlink="http://www.w3.org/1999/xlink"><linearGradient id="SVGID_1_" gradientUnits="userSpaceOnUse" x1="255.993" x2="255.993" y1="511.987" y2="0"><stop offset="0" stop-color="#c3ffe8"/><stop offset=".9973" stop-color="#f0fff4"/></linearGradient><linearGradient id="SVGID_2_" gradientUnits="userSpaceOnUse" x1="255.993" x2="255.993" y1="451.987" y2="136.987"><stop offset="0" stop-color="#00b59c"/><stop offset="1" stop-color="#9cffac"/></linearGradient><g><g><g><path d="m210.993 376.987 30 75v45c0 8.399 6.599 15 15 15s15-6.601 15-15v-45l30-75-45-45zm-15-150c0 33.091 26.924 60 60 60s60-26.909 60-60-26.924-60-60-60-60 26.909-60 60zm1.846 147.143c-1.377-7.061-7.559-12.144-14.736-12.144h-17.109c-41.367 0-75 33.647-75 75v60c0 8.291 6.709 15 15 15h30c8.291 0 15-6.709 15-15 0-24.814 20.186-45 45-45 4.6 0 8.965-2.109 11.807-5.742 2.842-3.618 3.867-8.335 2.754-12.817-.03-.161-5.948-24.419-12.716-59.297zm148.154-12.143h-17.109c-7.178 0-13.359 5.083-14.736 12.144-6.768 34.878-12.686 59.136-12.715 59.297-1.113 4.482-.088 9.199 2.754 12.817 2.842 3.633 7.207 5.742 11.807 5.742 24.814 0 45 20.186 45 45 0 8.291 6.709 15 15 15h30c8.291 0 15-6.709 15-15v-60c-.001-41.353-33.633-75-75.001-75zm3.3-225c-24.899-91.201-81.899-132.412-84.899-134.512-5.101-3.3-11.7-3.3-16.802 0-2.999 2.1-60 43.311-84.899 134.512l93.3 30z" fill="url(#SVGID_1_)"/></g></g><g><g><path d="m349.293 136.987h-186.599c-7.2 25.8-11.7 55.8-11.7 90 0 51 9.3 111.299 17.401 152.999 6.899 35.7 12.9 60.601 12.9 60.601 1.8 6.599 7.8 11.4 14.7 11.4h45v-75c0-8.401 6.599-15 15-15s15 6.599 15 15v75h45c6.899 0 12.9-4.801 14.7-11.4 0 0 6-24.901 12.9-60.901 8.101-41.4 17.401-101.699 17.401-152.699-.003-34.201-4.503-64.201-11.703-90zm-93.3 135c-24.901 0-45-20.101-45-45 0-24.901 20.099-45 45-45s45 20.099 45 45c0 24.898-20.099 45-45 45z" fill="url(#SVGID_2_)"/></g></g></g></svg>