<svg xmlns="http://www.w3.org/2000/svg" viewBox="0 0 500 500"><g id="freepik--Shadow--inject-65"><ellipse id="freepik--path--inject-65" cx="250" cy="412.39" rx="193.89" ry="11.32" style="fill:#f5f5f5"></ellipse></g><g id="freepik--Rocket--inject-65"><polygon points="258.5 340.45 264.12 366.24 258.5 353.35 260.64 384.62 253.87 356 253.87 400.51 248.64 360.24 243.44 396.27 243.35 355.29 238.58 382.5 238.58 353.88 229.93 372.25 238.58 340.45 258.5 340.45" style="fill:#2AA590"></polygon><polygon points="242.59 340.45 238.58 363.31 238.58 353.88 238.58 340.45 242.59 340.45" style="fill:#fff;opacity:0.5"></polygon><polygon points="243.44 377.09 243.36 340.45 253.87 340.45 253.87 356 253.87 381.32 248.64 341.05 243.44 377.09" style="fill:#fff;opacity:0.8"></polygon><polygon points="254.73 340.45 258.5 340.45 259.13 343.34 260.06 356.93 258.5 353.35 258.79 357.58 254.73 340.45" style="fill:#fff;opacity:0.30000000000000004"></polygon><polygon points="279.45 335.61 276.42 349.48 279.45 342.55 278.29 359.36 281.94 343.97 281.94 367.91 284.75 346.25 287.54 365.63 287.59 343.59 290.16 358.22 290.16 342.83 294.81 352.71 290.16 335.61 279.45 335.61" style="fill:#2AA590"></polygon><polygon points="288 335.61 290.16 347.9 290.16 342.83 290.16 335.61 288 335.61" style="fill:#fff;opacity:0.5"></polygon><polygon points="287.54 355.31 287.58 335.61 281.94 335.61 281.94 343.97 281.94 357.59 284.75 335.93 287.54 355.31" style="fill:#fff;opacity:0.2"></polygon><polygon points="281.47 335.61 279.45 335.61 279.11 337.17 278.61 344.48 279.45 342.55 279.29 344.82 281.47 335.61" style="fill:#fff;opacity:0.30000000000000004"></polygon><polygon points="205.29 335.61 202.27 349.48 205.29 342.55 204.14 359.36 207.78 343.97 207.78 367.91 210.59 346.25 213.38 365.63 213.43 343.59 216 358.22 216 342.83 220.65 352.71 216 335.61 205.29 335.61" style="fill:#2AA590"></polygon><polygon points="213.84 335.61 216 347.9 216 342.83 216 335.61 213.84 335.61" style="fill:#fff;opacity:0.5"></polygon><polygon points="213.38 355.31 213.43 335.61 207.78 335.61 207.78 343.97 207.78 357.59 210.59 335.93 213.38 355.31" style="fill:#fff;opacity:0.2"></polygon><polygon points="207.31 335.61 205.29 335.61 204.95 337.17 204.45 344.48 205.29 342.55 205.13 344.82 207.31 335.61" style="fill:#fff;opacity:0.30000000000000004"></polygon><path d="M312,315.46,249.67,204.64a2.52,2.52,0,0,0-4.38,0L182.93,315.46a2.52,2.52,0,0,0,2.19,3.75H309.83A2.52,2.52,0,0,0,312,315.46Z" style="fill:#2AA590"></path><path d="M312,315.46,249.67,204.64a2.52,2.52,0,0,0-4.38,0L182.93,315.46a2.52,2.52,0,0,0,2.19,3.75H309.83A2.52,2.52,0,0,0,312,315.46Z" style="opacity:0.30000000000000004"></path><path d="M277.13,335.77l3-12.43h10.91l3,12.43A22.12,22.12,0,0,1,277.13,335.77Z" style="fill:#263238"></path><path d="M291.08,323.34s.45,1.86.7,2.91a22.09,22.09,0,0,1-12.33,0l.71-2.91Z" style="fill:#fff;opacity:0.2"></path><path d="M292.54,329.37c.2.79.39,1.58.57,2.33a25.2,25.2,0,0,1-15,0l.57-2.33A35.66,35.66,0,0,0,292.54,329.37Z" style="fill:#fff;opacity:0.4"></path><path d="M274.09,322.46a30,30,0,0,0,23.05,0V230.14a39.23,39.23,0,0,0-11.52-27.83,39.2,39.2,0,0,0-11.53,27.83Z" style="fill:#2AA590"></path><path d="M297.14,230.14v87a35.15,35.15,0,0,1-23.05,0v-87a39.2,39.2,0,0,1,11.53-27.83A39.23,39.23,0,0,1,297.14,230.14Z" style="fill:#2AA590"></path><path d="M297.14,230.14v87a35.15,35.15,0,0,1-23.05,0v-87a39.2,39.2,0,0,1,11.53-27.83A39.23,39.23,0,0,1,297.14,230.14Z" style="fill:#fff;opacity:0.4"></path><path d="M297.14,230.14V295.5a42,42,0,0,1-23.05,0V230.14a39.2,39.2,0,0,1,11.53-27.83A39.23,39.23,0,0,1,297.14,230.14Z" style="fill:#2AA590"></path><path d="M297.14,230.14V295.5a42,42,0,0,1-23.05,0V230.14a39.2,39.2,0,0,1,11.53-27.83A39.23,39.23,0,0,1,297.14,230.14Z" style="fill:#fff;opacity:0.6000000000000001"></path><path d="M297.14,230.14v34.22a41.89,41.89,0,0,1-23.05,0V230.14a39.2,39.2,0,0,1,11.53-27.83A39.23,39.23,0,0,1,297.14,230.14Z" style="fill:#2AA590"></path><path d="M297.14,230.14v34.22a41.89,41.89,0,0,1-23.05,0V230.14a39.2,39.2,0,0,1,11.53-27.83A39.23,39.23,0,0,1,297.14,230.14Z" style="fill:#fff;opacity:0.8"></path><path d="M297.14,230.14v4a41.8,41.8,0,0,1-23.05,0v-4a39.2,39.2,0,0,1,11.53-27.83A39.23,39.23,0,0,1,297.14,230.14Z" style="fill:#2AA590"></path><path d="M297.14,230.14v4a41.8,41.8,0,0,1-23.05,0v-4a39.2,39.2,0,0,1,11.53-27.83A39.23,39.23,0,0,1,297.14,230.14Z" style="fill:#fff;opacity:0.4"></path><path d="M203,335.77l3-12.43h10.92l3,12.43A22.15,22.15,0,0,1,203,335.77Z" style="fill:#263238"></path><path d="M216.92,323.34s.45,1.86.71,2.91a22.13,22.13,0,0,1-12.34,0l.71-2.91Z" style="fill:#fff;opacity:0.2"></path><path d="M218.39,329.37c.19.79.38,1.58.57,2.33a25.24,25.24,0,0,1-15,0l.57-2.33A35.71,35.71,0,0,0,218.39,329.37Z" style="fill:#fff;opacity:0.4"></path><path d="M199.93,322.46a30.06,30.06,0,0,0,23.06,0V230.14a39.24,39.24,0,0,0-11.53-27.83,39.24,39.24,0,0,0-11.53,27.83Z" style="fill:#2AA590"></path><path d="M223,230.14v87a35.18,35.18,0,0,1-23.06,0v-87a39.24,39.24,0,0,1,11.53-27.83A39.24,39.24,0,0,1,223,230.14Z" style="fill:#2AA590"></path><path d="M223,230.14v87a35.18,35.18,0,0,1-23.06,0v-87a39.24,39.24,0,0,1,11.53-27.83A39.24,39.24,0,0,1,223,230.14Z" style="fill:#fff;opacity:0.4"></path><path d="M223,230.14V295.5a42,42,0,0,1-23.06,0V230.14a39.24,39.24,0,0,1,11.53-27.83A39.24,39.24,0,0,1,223,230.14Z" style="fill:#2AA590"></path><path d="M223,230.14V295.5a42,42,0,0,1-23.06,0V230.14a39.24,39.24,0,0,1,11.53-27.83A39.24,39.24,0,0,1,223,230.14Z" style="fill:#fff;opacity:0.6000000000000001"></path><path d="M223,230.14v34.22a41.93,41.93,0,0,1-23.06,0V230.14a39.24,39.24,0,0,1,11.53-27.83A39.24,39.24,0,0,1,223,230.14Z" style="fill:#2AA590"></path><path d="M223,230.14v34.22a41.93,41.93,0,0,1-23.06,0V230.14a39.24,39.24,0,0,1,11.53-27.83A39.24,39.24,0,0,1,223,230.14Z" style="fill:#fff;opacity:0.8"></path><path d="M223,230.14v4a41.84,41.84,0,0,1-23.06,0v-4a39.24,39.24,0,0,1,11.53-27.83A39.24,39.24,0,0,1,223,230.14Z" style="fill:#2AA590"></path><path d="M223,230.14v4a41.84,41.84,0,0,1-23.06,0v-4a39.24,39.24,0,0,1,11.53-27.83A39.24,39.24,0,0,1,223,230.14Z" style="fill:#fff;opacity:0.4"></path><path d="M234.84,342.9l4.89-20.06h17.62l4.89,20.06A35.64,35.64,0,0,1,234.84,342.9Z" style="fill:#263238"></path><path d="M257.35,322.84l1.14,4.7a35.66,35.66,0,0,1-19.91,0l1.15-4.7Z" style="fill:#fff;opacity:0.2"></path><path d="M259.72,332.58l.92,3.77a40.75,40.75,0,0,1-24.2,0l.91-3.76A57.86,57.86,0,0,0,259.72,332.58Z" style="fill:#fff;opacity:0.4"></path><path d="M229.93,321.42a48.49,48.49,0,0,0,37.22,0v-149a63.35,63.35,0,0,0-18.61-44.93,63.35,63.35,0,0,0-18.61,44.93Z" style="fill:#2AA590"></path><path d="M267.15,172.38v140.5a56.86,56.86,0,0,1-37.22,0V172.38a63.35,63.35,0,0,1,18.61-44.93A63.35,63.35,0,0,1,267.15,172.38Z" style="fill:#2AA590"></path><path d="M267.15,172.38v140.5a56.86,56.86,0,0,1-37.22,0V172.38a63.35,63.35,0,0,1,18.61-44.93A63.35,63.35,0,0,1,267.15,172.38Z" style="fill:#fff;opacity:0.4"></path><path d="M267.15,172.38V277.89a67.64,67.64,0,0,1-37.22,0V172.38a63.35,63.35,0,0,1,18.61-44.93A63.35,63.35,0,0,1,267.15,172.38Z" style="fill:#2AA590"></path><path d="M267.15,172.38V277.89a67.64,67.64,0,0,1-37.22,0V172.38a63.35,63.35,0,0,1,18.61-44.93A63.35,63.35,0,0,1,267.15,172.38Z" style="fill:#fff;opacity:0.6000000000000001"></path><path d="M267.15,172.38v55.25a67.64,67.64,0,0,1-37.22,0V172.38a63.35,63.35,0,0,1,18.61-44.93A63.35,63.35,0,0,1,267.15,172.38Z" style="fill:#2AA590"></path><path d="M267.15,172.38v55.25a67.64,67.64,0,0,1-37.22,0V172.38a63.35,63.35,0,0,1,18.61-44.93A63.35,63.35,0,0,1,267.15,172.38Z" style="fill:#fff;opacity:0.8"></path><path d="M267.15,172.38v6.45a67.74,67.74,0,0,1-37.22,0v-6.45a63.35,63.35,0,0,1,18.61-44.93A63.35,63.35,0,0,1,267.15,172.38Z" style="fill:#2AA590"></path><path d="M267.15,172.38v6.45a67.74,67.74,0,0,1-37.22,0v-6.45a63.35,63.35,0,0,1,18.61-44.93A63.35,63.35,0,0,1,267.15,172.38Z" style="fill:#fff;opacity:0.1"></path><circle cx="248.54" cy="202.2" r="10.84" style="fill:#2AA590"></circle><path d="M248.54,213a10.83,10.83,0,0,0,10.8-10c0,.27,0,.55,0,.82a10.84,10.84,0,0,1-21.68,0c0-.27,0-.55,0-.82A10.83,10.83,0,0,0,248.54,213Z" style="fill:#2AA590"></path><path d="M248.54,213a10.83,10.83,0,0,0,10.8-10c0,.27,0,.55,0,.82a10.84,10.84,0,0,1-21.68,0c0-.27,0-.55,0-.82A10.83,10.83,0,0,0,248.54,213Z" style="opacity:0.30000000000000004"></path><circle cx="248.54" cy="202.2" r="7.66" style="fill:#fff"></circle><path d="M248.94,209.82l-3.14-14.76a7.47,7.47,0,0,1,2.55-.51l3.13,14.72A7.69,7.69,0,0,1,248.94,209.82Z" style="fill:#2AA590"></path><path d="M246.08,209.42l-2.73-12.84a8.8,8.8,0,0,1,1.14-.87l3,14A7.32,7.32,0,0,1,246.08,209.42Z" style="fill:#2AA590"></path><g style="opacity:0.7000000000000001"><path d="M248.94,209.82l-3.14-14.76a7.47,7.47,0,0,1,2.55-.51l3.13,14.72A7.69,7.69,0,0,1,248.94,209.82Z" style="fill:#fff"></path><path d="M246.08,209.42l-2.73-12.84a8.8,8.8,0,0,1,1.14-.87l3,14A7.32,7.32,0,0,1,246.08,209.42Z" style="fill:#fff"></path></g><path d="M235.52,387.39s6-19.71-4.77-18.58c0,0-1.5-19.16-13.42-4.94,0,0-7.87-12.6-10.82-1.56,0,0-22.34-14.17-21.39-1.62,0,0-15.9-7.95-17.61-1.53s19.18,13.11,19.18,13.11-17.78-5.94-18.34-3.61S234.53,391.52,235.52,387.39Z" style="fill:#2AA590"></path><path d="M235.52,387.39s6-19.71-4.77-18.58c0,0-1.5-19.16-13.42-4.94,0,0-7.87-12.6-10.82-1.56,0,0-22.34-14.17-21.39-1.62,0,0-15.9-7.95-17.61-1.53s19.18,13.11,19.18,13.11-17.78-5.94-18.34-3.61S234.53,391.52,235.52,387.39Z" style="fill:#fff;opacity:0.8"></path><path d="M259.38,387.89s-7-22.9,5.55-21.59c0,0,1.74-22.26,15.58-5.74,0,0,9.15-14.64,12.58-1.81,0,0,26-16.46,24.86-1.89,0,0,18.48-9.23,20.46-1.77s-22.29,15.24-22.29,15.24,20.67-6.91,21.32-4.21S260.53,392.69,259.38,387.89Z" style="fill:#2AA590"></path><path d="M259.38,387.89s-7-22.9,5.55-21.59c0,0,1.74-22.26,15.58-5.74,0,0,9.15-14.64,12.58-1.81,0,0,26-16.46,24.86-1.89,0,0,18.48-9.23,20.46-1.77s-22.29,15.24-22.29,15.24,20.67-6.91,21.32-4.21S260.53,392.69,259.38,387.89Z" style="fill:#fff;opacity:0.8"></path><path d="M240.46,405.6s-5.58-47.73,20.59-32.46c0,0,5.47-20.61,19.3-8.65,0,0,21.81-8.6,13.59,16.44,0,0,20.93-14.95,20.18,8.22,0,0,25.42-12,22.92,4.74,0,0,15.95-2.49,15.2,4.73s-42.36,4.74-42.36,4.74,17.7,1.75,17.2,4.11c-.26,1.24-23.76-.35-46.21-1.28C260.35,405.34,240.7,409.88,240.46,405.6Z" style="fill:#2AA590"></path><path d="M240.46,405.6s-5.58-47.73,20.59-32.46c0,0,5.47-20.61,19.3-8.65,0,0,21.81-8.6,13.59,16.44,0,0,20.93-14.95,20.18,8.22,0,0,25.42-12,22.92,4.74,0,0,15.95-2.49,15.2,4.73s-42.36,4.74-42.36,4.74,17.7,1.75,17.2,4.11c-.26,1.24-23.76-.35-46.21-1.28C260.35,405.34,240.7,409.88,240.46,405.6Z" style="fill:#fff;opacity:0.7000000000000001"></path><path d="M255.52,404s1.64-28-12.26-23.06c0,0-8.12-24.87-19.33-2.25,0,0-14.44-14.15-14.81,1.41,0,0-34.1-11.6-28.83,4.7,0,0-23.59-5.43-23.79,3.61s29.58,11.21,29.58,11.21-25.43-2.17-25.43,1.09S255.54,409.79,255.52,404Z" style="fill:#2AA590"></path><path d="M255.52,404s1.64-28-12.26-23.06c0,0-8.12-24.87-19.33-2.25,0,0-14.44-14.15-14.81,1.41,0,0-34.1-11.6-28.83,4.7,0,0-23.59-5.43-23.79,3.61s29.58,11.21,29.58,11.21-25.43-2.17-25.43,1.09S255.54,409.79,255.52,404Z" style="fill:#fff;opacity:0.7000000000000001"></path><path d="M273.13,408.53s26.2,2.1,25.36-1.68-20.17-4.62-20.17-4.62,25.58-10.93,16.85-16.53-25.23,5.6-25.23,5.6S290,375.83,277.76,372s-22.9,11.48-22.9,11.48,3.86-12.15-3.42-12.1-7.24,11.82-7.24,11.82-13.69-14.84-20.45-7.28,6.82,16.53,6.82,16.53-20-11.1-23.78-2.19S225,403.35,225,403.35s-22-1.47-22.71,1.92S256.19,406.32,273.13,408.53Z" style="fill:#2AA590"></path><path d="M273.13,408.53s26.2,2.1,25.36-1.68-20.17-4.62-20.17-4.62,25.58-10.93,16.85-16.53-25.23,5.6-25.23,5.6S290,375.83,277.76,372s-22.9,11.48-22.9,11.48,3.86-12.15-3.42-12.1-7.24,11.82-7.24,11.82-13.69-14.84-20.45-7.28,6.82,16.53,6.82,16.53-20-11.1-23.78-2.19S225,403.35,225,403.35s-22-1.47-22.71,1.92S256.19,406.32,273.13,408.53Z" style="fill:#fff;opacity:0.9"></path></g><g id="freepik--character-2--inject-65"><polygon points="412.35 162.74 408.82 162.59 408.57 163.58 409.72 164.07 410.46 165.76 412.35 162.74" style="fill:#2AA590"></polygon><polygon points="412.35 162.74 408.82 162.59 408.57 163.58 409.72 164.07 410.46 165.76 412.35 162.74" style="opacity:0.30000000000000004"></polygon><path d="M411.56,163.73c.12-.58-.08-1.11-.46-1.19s-.78.32-.9.9.08,1.11.46,1.19S411.44,164.3,411.56,163.73Z" style="fill:#263238"></path><path d="M417.7,156.69s-4.26-4.17-7.87-1.66,4.73,5.78,4.73,5.78Z" style="fill:#263238"></path><path d="M410.88,164.64l-4.13,3.07a3.86,3.86,0,0,0,3.11,1.55Z" style="fill:#a02724"></path><path d="M425.88,189.29s-4.45-1.81-1.93-10.23c0,0-3.67-3.16-7.14-1.46s.06,9-4.06,10.5C412.75,188.1,415.16,191,425.88,189.29Z" style="fill:#b55b52"></path><path d="M418.35,181.75A16.6,16.6,0,0,1,415,184c.08-1.17,0-2.4.19-3.5Z" style="opacity:0.2"></path><path d="M431.35,168.51c-2.42,7.05-3.29,10.09-7.92,12.77-6.57,2.22-15.12-.47-14.85-8.11.23-6.87,4.14-17.21,12-18.17a10.16,10.16,0,0,1,10.81,13.51Z" style="fill:#b55b52"></path><path d="M416.17,170.45l-1.93-1.88a6.49,6.49,0,0,0,1-5.69c-.93-3.47-4.35-10.09,1.46-13.35s9.22,2.31,9.22,2.31,5.5-2.64,7.52,1.94.55,6.16.55,6.16,4.74.51,3,6.52-3.74,3-6.38,8.09a14.79,14.79,0,0,1-7.14,6.73,3.13,3.13,0,0,0-3.17-.31S421.32,174.13,416.17,170.45Z" style="fill:#263238"></path><path d="M412.86,162.58a.37.37,0,0,1-.25-.21,2.69,2.69,0,0,0-1.81-1.71.36.36,0,0,1-.26-.41A.35.35,0,0,1,411,160a3.41,3.41,0,0,1,2.31,2.14.33.33,0,0,1-.17.44h0A.33.33,0,0,1,412.86,162.58Z" style="fill:#263238"></path><path d="M419.32,167.72l-10.5-5.13s-1.38,4.53-.57,4.74,1.91-2.9,1.91-2.9L418,168Z" style="fill:#2AA590"></path><path d="M419.32,167.72s7.14,4.62,12.62,4.78l-.82,1.11s-4.85-.38-12.2-5.13Z" style="fill:#2AA590"></path><path d="M417.94,167.25a5.72,5.72,0,0,0-2.91,3.29c-.64,1.92,1.05,3,2.91,2.56,1.68-.39,4-1.86,3.86-3.84A2.59,2.59,0,0,0,417.94,167.25Z" style="fill:#b55b52"></path><polygon points="420.39 287.42 417.87 315.46 419.55 383.6 403.57 383.6 399.92 314.06 399.92 285.46 420.39 287.42" style="fill:#263238"></polygon><polygon points="416.46 383.17 416.71 397.07 409.4 396.63 408.5 384.04 416.46 383.17" style="fill:#b55b52"></polygon><path d="M408.08,395.75l9.23-.17a.74.74,0,0,1,.73.57l1.81,7.48a1.25,1.25,0,0,1-.9,1.5l-.26,0c-3.33,0-6.29-.12-10.44,0-4.89.09-3.63.65-9.38.83-3.46.11-4.17-3.81-2.7-4,6.7-1,7.36-3,9.91-5.46A2.94,2.94,0,0,1,408.08,395.75Z" style="fill:#263238"></path><polygon points="416.5 385.36 416.59 390.57 408.98 390.81 408.68 386.63 416.5 385.36" style="opacity:0.2"></polygon><polygon points="420.76 382.42 420.29 388.46 403.87 389.1 402.75 382.87 420.76 382.42" style="fill:#2AA590"></polygon><polygon points="438.62 292.47 439.46 312.94 450.11 381.91 435.81 383.6 422.07 314.06 420.39 283.49 436.65 285.46 438.62 292.47" style="fill:#263238"></polygon><polygon points="447.37 380.14 449.35 393.89 442.04 394.37 439.57 382 447.37 380.14" style="fill:#b55b52"></polygon><path d="M440.62,393.67l9.14-1.32a.74.74,0,0,1,.8.47l2.72,7.19a1.23,1.23,0,0,1-.7,1.6,1.25,1.25,0,0,1-.26.07c-3.3.42-6.25.66-10.35,1.26-4.84.7-3.53,1.1-9.21,2-3.42.54-4.61-3.27-3.19-3.67,6.54-1.79,6.94-3.9,9.16-6.65A2.93,2.93,0,0,1,440.62,393.67Z" style="fill:#263238"></path><polygon points="447.68 382.31 448.42 387.46 440.9 388.65 440.08 384.54 447.68 382.31" style="opacity:0.2"></polygon><polygon points="451.54 378.85 451.82 384.91 435.62 387.59 433.72 381.56 451.54 378.85" style="fill:#2AA590"></polygon><polygon points="400.8 330.87 399.92 314.06 399.92 295.41 410.15 295.41 418.77 305.35 417.87 315.46 418.21 329.26 400.8 330.87" style="opacity:0.5"></polygon><polygon points="439.46 312.94 442.11 330.1 425.02 329 422.07 314.06 420.39 283.49 436.65 285.46 438.76 296.1 439.46 312.94" style="opacity:0.5"></polygon><path d="M389.61,213.2l-6-2.11s-.14-3.22-4.34-4.2c0,0-2.67-1-4.49-.14s-2,6,.84,8.13,4.07.28,8,1.4l6,2.52Z" style="fill:#b55b52"></path><path d="M406.31,216.9l-18.59-5.05s-3.08,3.23-2.66,6.87L403,227.27Z" style="fill:#2AA590"></path><path d="M406.31,216.9l-18.59-5.05s-3.08,3.23-2.66,6.87L403,227.27Z" style="fill:#fff;opacity:0.5"></path><path d="M380.69,207.82s-3.06-4.68-4-4.08,1,4,1,4Z" style="fill:#b55b52"></path><path d="M428.71,189.74l-2.58-4.22s-11-1.35-16.2,1.63l-3.62,3.79S415.23,190.7,428.71,189.74Z" style="fill:#2AA590"></path><path d="M428.71,189.74l-2.58-4.22s-11-1.35-16.2,1.63l-3.62,3.79S415.23,190.7,428.71,189.74Z" style="fill:#fff;opacity:0.5"></path><path d="M444.5,327.38s-2.13-32.5-4.91-55.93c-.93-7.77-1.74-14.54-2.26-18.8a146,146,0,0,1,0-29.15c1.47-15.1,3.76-29.76-4.06-32.84-13.46-5.31-32.25-.54-34.77,4.79s-2.24,131.79-2.24,131.79l28.88-1.41-1-43.46,5.5,43.46Z" style="fill:#2AA590"></path><path d="M444.5,327.38s-2.13-32.5-4.91-55.93c-.93-7.77-1.74-14.54-2.26-18.8a146,146,0,0,1,0-29.15c1.47-15.1,3.76-29.76-4.06-32.84-13.46-5.31-32.25-.54-34.77,4.79s-2.24,131.79-2.24,131.79l28.88-1.41-1-43.46,5.5,43.46Z" style="fill:#fff;opacity:0.8"></path><polygon points="395.67 270.6 400.99 272.28 406.31 271.44 406.31 266.95 395.67 266.11 395.67 270.6" style="fill:#2AA590"></polygon><polygon points="395.67 270.6 400.99 272.28 406.31 271.44 406.31 266.95 395.67 266.11 395.67 270.6" style="fill:#fff;opacity:0.7000000000000001"></polygon><path d="M397,221.24l9.72-22.78,3.41-3.29s.56,22.15-13.43,42.18C396.81,231.63,396.91,226.2,397,221.24Z" style="opacity:0.1"></path><path d="M361.31,219h15.58a1,1,0,0,0,1-1.14l-2.29-21.77a1,1,0,0,0-1-.92H359a1,1,0,0,0-1,1.14l2.29,21.77A1,1,0,0,0,361.31,219Z" style="fill:#2AA590"></path><path d="M361.31,219h15.58a1,1,0,0,0,1-1.14l-2.29-21.77a1,1,0,0,0-1-.92H359a1,1,0,0,0-1,1.14l2.29,21.77A1,1,0,0,0,361.31,219Z" style="fill:#fff;opacity:0.5"></path><path d="M362.07,217.64h13.8a.91.91,0,0,0,.91-1l-2-19.28a.92.92,0,0,0-.91-.82H360a.91.91,0,0,0-.91,1l2,19.28A.92.92,0,0,0,362.07,217.64Z" style="fill:#2AA590"></path><path d="M362.07,217.64h13.8a.91.91,0,0,0,.91-1l-2-19.28a.92.92,0,0,0-.91-.82H360a.91.91,0,0,0-.91,1l2,19.28A.92.92,0,0,0,362.07,217.64Z" style="fill:#fff;opacity:0.9"></path><path d="M358.18,195.17H359a1,1,0,0,0-1,1.14l2.29,21.77a1,1,0,0,0,1,.92h-.85a1,1,0,0,1-1-.92l-2.29-21.77A1,1,0,0,1,358.18,195.17Z" style="fill:#2AA590"></path><path d="M358.18,195.17H359a1,1,0,0,0-1,1.14l2.29,21.77a1,1,0,0,0,1,.92h-.85a1,1,0,0,1-1-.92l-2.29-21.77A1,1,0,0,1,358.18,195.17Z" style="fill:#fff;opacity:0.30000000000000004"></path><path d="M363.89,205.75a4.71,4.71,0,0,0,4.57,4.14,3.66,3.66,0,0,0,3.7-4.14,4.7,4.7,0,0,0-4.57-4.13A3.65,3.65,0,0,0,363.89,205.75Z" style="fill:#2AA590"></path><path d="M361.65,205.79a5.67,5.67,0,0,1,5.74-6.42,7.22,7.22,0,0,1,7,6.35,5.81,5.81,0,0,1-1.41,4.55,5.75,5.75,0,0,1-4.33,1.86A7.22,7.22,0,0,1,361.65,205.79Zm1.88-4.13a5.18,5.18,0,0,0-1.26,4.06h0a6.6,6.6,0,0,0,6.39,5.78,5.1,5.1,0,0,0,3.86-1.66,5.17,5.17,0,0,0,1.26-4.05,6.6,6.6,0,0,0-6.39-5.79A5.13,5.13,0,0,0,363.53,201.66Z" style="fill:#2AA590"></path><polygon points="375.03 217.64 371.52 217.64 367.04 196.53 370.54 196.53 375.03 217.64" style="fill:#fff;opacity:0.30000000000000004"></polygon><polygon points="370.26 217.64 368.51 217.64 364.02 196.53 365.77 196.53 370.26 217.64" style="fill:#fff;opacity:0.30000000000000004"></polygon><path d="M379.12,219.65l-3.45-2.22s.29-4-.61-5.57-5.75-6.14-7-5.37,2,3.6,2,3.6-3,4.64-2,6.75,4.21,2.93,4.21,2.93l4.68,4.43Z" style="fill:#b55b52"></path><path d="M409.92,191.38s-10.14-1.82-13.22,7.43S390.11,222,390.11,222s-10.89-5-12.8-3.92c0,0-2.62,3.08-1.5,6.17,0,0,13.32,8.4,17.94,7.84s13.38-22.85,13.38-22.85S414.86,191.66,409.92,191.38Z" style="fill:#2AA590"></path><path d="M409.92,191.38s-10.14-1.82-13.22,7.43S390.11,222,390.11,222s-10.89-5-12.8-3.92c0,0-2.62,3.08-1.5,6.17,0,0,13.32,8.4,17.94,7.84s13.38-22.85,13.38-22.85S414.86,191.66,409.92,191.38Z" style="fill:#fff;opacity:0.7000000000000001"></path></g><g id="freepik--character-1--inject-65"><polygon points="111.56 389.04 113.8 404.29 122.13 403.09 120.65 386.42 111.56 389.04" style="fill:#dd8c6a"></polygon><path d="M123.47,403.15a.23.23,0,0,1-.18-.15.22.22,0,0,1,.07-.22c.13-.09,2.88-2.1,4.34-1.88a1,1,0,0,1,.68.4.76.76,0,0,1,.11.87,3.57,3.57,0,0,1-2.41.92A15.15,15.15,0,0,1,123.47,403.15Zm.62-.35c1.59,0,3.72-.23,4-.83.05-.07.09-.2-.09-.43a.56.56,0,0,0-.42-.24,1.27,1.27,0,0,0-.39,0A9.43,9.43,0,0,0,124.09,402.8Z" style="fill:#2AA590"></path><path d="M123.36,403.15a.25.25,0,0,1-.11-.17c0-.11,0-2.42,1-3.42a1.47,1.47,0,0,1,1.07-.47c.56,0,.76.25.81.48.29.93-1.54,3-2.49,3.55a.15.15,0,0,1-.09,0A.22.22,0,0,1,123.36,403.15Zm1.82-3.66a1,1,0,0,0-.66.33,4.66,4.66,0,0,0-.83,2.71c1-.74,2.15-2.32,2-2.89,0-.05-.06-.19-.42-.18l-.12,0Z" style="fill:#2AA590"></path><path d="M122.48,402.06l-9.22,1a.75.75,0,0,0-.66.67l-.82,7.68a1.24,1.24,0,0,0,1.09,1.38h.26c3.32-.43,6.26-.95,10.4-1.41,4.88-.55,3.71.17,9.46-.39,3.46-.35,3.65-4.35,2.16-4.38-6.81-.09-7.73-2-10.6-4.15A3,3,0,0,0,122.48,402.06Z" style="fill:#263238"></path><polygon points="121.47 395.67 115.22 395.67 112.71 396.83 113.31 400.97 121.82 399.62 121.47 395.67" style="opacity:0.2"></polygon><path d="M84.55,235.59l18.32,88.92,7.82,74.95,12.48-2s.73-37.68-2.92-77.06C117,284.81,109.31,247.86,108,236l-5-8-9.2,1.5Z" style="fill:#2AA590"></path><path d="M90.2,263l5.25,25.49c.6-18.41-2-40.27-2-40.27Z" style="opacity:0.2"></path><polygon points="72.81 393.84 72.81 409.25 81.3 408.08 82.19 392.57 72.81 393.84" style="fill:#dd8c6a"></polygon><path d="M82.78,405.41a.22.22,0,0,1-.17-.16.2.2,0,0,1,.09-.21c.13-.08,3-1.88,4.46-1.54a1,1,0,0,1,.65.45.75.75,0,0,1,0,.87,3.61,3.61,0,0,1-2.47.74A16.19,16.19,0,0,1,82.78,405.41Zm.64-.29c1.59.14,3.73.05,4.1-.52.06-.07.11-.19,0-.44a.58.58,0,0,0-.41-.27,1.2,1.2,0,0,0-.38,0A9.14,9.14,0,0,0,83.42,405.12Z" style="fill:#2AA590"></path><path d="M82.67,405.4a.22.22,0,0,1-.1-.18c0-.11.16-2.4,1.21-3.33a1.5,1.5,0,0,1,1.11-.39c.55,0,.74.31.76.54.22.95-1.76,2.87-2.76,3.35a.08.08,0,0,1-.08,0A.17.17,0,0,1,82.67,405.4Zm2.09-3.51a1.09,1.09,0,0,0-.68.28,4.74,4.74,0,0,0-1,2.64c1-.66,2.32-2.15,2.25-2.72,0,0-.05-.2-.41-.21Z" style="fill:#2AA590"></path><path d="M81.87,404.25l-9.28.33a.74.74,0,0,0-.7.61l-1.41,7.6a1.25,1.25,0,0,0,1,1.46l.26,0c3.34-.18,6.31-.47,10.47-.61,4.91-.17,3.69.46,9.47.34,3.48-.08,4-4.06,2.49-4.2-6.78-.61-7.55-2.62-10.24-4.95A3,3,0,0,0,81.87,404.25Z" style="fill:#263238"></path><polygon points="72.81 402.42 81.62 402.42 81.83 398.92 72.81 398.92 72.81 402.42" style="opacity:0.2"></polygon><path d="M71.68,235.78,71.6,400.37H83.75s8.9-135.11,10-160.38l-3.45-8.78h-9Z" style="fill:#2AA590"></path><path d="M110,239.39a55.28,55.28,0,0,1-.64-9.65c1.42-30.71.11-49.62-.36-55a2.36,2.36,0,0,0-1.67-2.06c-21.46-6.41-37.6-2-42.79-.21A2.36,2.36,0,0,0,63,175c1,9.05,5.19,49.71,5.86,64.44.1,2.16.06,7.37,0,10.25a2.37,2.37,0,0,0,2,2.36c4.8.81,16.79,2.33,20.46-1.9a2.31,2.31,0,0,1,3.22-.23c1.5,1.22,4,2.32,7.87,2a74.66,74.66,0,0,0,7.73-.86,2.37,2.37,0,0,0,1.88-2.92C111.34,245.49,110.3,241.3,110,239.39Z" style="fill:#263238"></path><path d="M89.92,169.49l-2.15-12.76-9.21-2.85v15.71l4.31,3.77,4.85-.21L91,169.57Z" style="fill:#dd8c6a"></path><path d="M94.18,220.93A1.19,1.19,0,1,1,93,219.75,1.18,1.18,0,0,1,94.18,220.93Z" style="fill:#2AA590"></path><path d="M95.37,233.43a1.19,1.19,0,1,1-1.19-1.19A1.18,1.18,0,0,1,95.37,233.43Z" style="fill:#2AA590"></path><polygon points="76.01 169.5 77.39 169.22 85.31 173.15 87.72 173.15 92.19 169.06 93.74 169.37 93.98 183.18 92.94 196.29 90.76 210.72 90.7 210.72 90.08 209.42 87.72 204.57 84.55 199.05 78.62 185.49 75.28 174.78 76.01 169.5" style="fill:#fff"></polygon><path d="M76.7,169.37s5.49,16.86,14,41.35L73.38,180.44,74.72,177l-2.84-1.49,1.65-5.5Z" style="fill:#2AA590"></path><path d="M92.82,169.16s-.68,17.27-2.12,42l7.89-32.66-2.09-2.72,2.17-2.23-2.39-3.69Z" style="fill:#2AA590"></path><polygon points="78.54 168.96 86.92 173.18 83.41 177.82 76.7 169.37 78.54 168.96" style="fill:#2AA590"></polygon><polygon points="78.54 168.96 86.92 173.18 83.41 177.82 76.7 169.37 78.54 168.96" style="fill:#fff;opacity:0.7000000000000001"></polygon><polygon points="91.11 168.9 86.52 173.18 90.03 177.82 92.82 169.16 91.11 168.9" style="fill:#2AA590"></polygon><polygon points="91.11 168.9 86.52 173.18 90.03 177.82 92.82 169.16 91.11 168.9" style="fill:#fff;opacity:0.7000000000000001"></polygon><path d="M92.39,172.85a.69.69,0,0,0-.68-.65,5,5,0,0,0-1.86.18,10.53,10.53,0,0,0-2.31,2.75V175a.62.62,0,0,0-.65-.58l-.51,0a.61.61,0,0,0-.57.65v.1a10.78,10.78,0,0,0-2.62-2.45,4.83,4.83,0,0,0-1.85,0,.72.72,0,0,0-.61.76l.32,5.48a.73.73,0,0,0,.7.68,5.3,5.3,0,0,0,1.84-.18,11.1,11.1,0,0,0,2.32-2.75h0a.62.62,0,0,0,.65.58l.5,0a.62.62,0,0,0,.58-.66h0a11.07,11.07,0,0,0,2.63,2.46,5.13,5.13,0,0,0,1.86,0,.72.72,0,0,0,.6-.74Z" style="fill:#263238"></path><path d="M78.56,157.57c1.66,2.53,4.69,5.1,10.19,6l-1-6.88-9.21-2.85Z" style="opacity:0.1"></path><path d="M153.53,178a8,8,0,0,1,6.62-4.22s2.4-3.94,5.09-3.84,3.65,6.48,3.65,6.48-3.27,5.52-8.35,5l-6,.57Z" style="fill:#dd8c6a"></path><path d="M150.17,179l2.73-2.64a12.2,12.2,0,0,1,4.85,7.53l-4.22,1.2Z" style="fill:#2AA590"></path><path d="M150.17,179l2.73-2.64a12.2,12.2,0,0,1,4.85,7.53l-4.22,1.2Z" style="fill:#fff;opacity:0.8"></path><path d="M150.5,178.36a66.58,66.58,0,0,1-23.18,7.89,61.12,61.12,0,0,0-21.21-13.93v11.76s12.43,11.53,20.35,12.83c6.27,1,21.85-8,28.05-11.76A17.5,17.5,0,0,0,150.5,178.36Z" style="fill:#263238"></path><polygon points="82.96 211.26 82.4 228 84.69 228.23 87.64 210.89 82.96 211.26" style="fill:#2AA590"></polygon><path d="M82.8,216.17a18.7,18.7,0,0,0,2.18.37,16,16,0,0,0,1.68.08l1-5.73-4.67.37Z" style="fill:#fff;opacity:0.4"></path><path d="M88.94,211a3.61,3.61,0,1,1-3.23-4A3.62,3.62,0,0,1,88.94,211Z" style="fill:#2AA590"></path><path d="M88.94,211a3.61,3.61,0,1,1-3.23-4A3.62,3.62,0,0,1,88.94,211Z" style="fill:#fff;opacity:0.8"></path><path d="M74.71,218.38a76.73,76.73,0,0,0,8.84,0,19.32,19.32,0,0,0,3.94-1.17l2.39,2.17s3.07,5.34-.38,7S74,222.9,74,222.9Z" style="fill:#dd8c6a"></path><path d="M70.87,216.49s3.78,0,5.57,1.16a10,10,0,0,0-.81,6.48L70,223Z" style="fill:#2AA590"></path><path d="M70.87,216.49s3.78,0,5.57,1.16a10,10,0,0,0-.81,6.48L70,223Z" style="fill:#fff;opacity:0.8"></path><path d="M67,171.7s-10.06.32-18.49,28.43c-1.72,5.71-6.85,18.26,9.24,22l14.13,2s-.91-4.61,1-7.88c0,0-9.6-4.22-15.55-7.1,0,0,5.95-15.36,9.41-16.9C66.75,192.25,70.13,178,67,171.7Z" style="fill:#263238"></path><path d="M71.46,137.48s-1.57-2.56-3.77-1.31C67.69,136.17,70.25,131.79,71.46,137.48Z" style="fill:#263238"></path><path d="M74.21,145.88c.76,7,.93,10,4.66,13.45,5.6,5.19,14.06,2.72,15.42-4.38,1.21-6.4-.24-16.85-7.27-19.29a9.64,9.64,0,0,0-12.81,10.22Z" style="fill:#dd8c6a"></path><path d="M85.52,147.2c0,.58.36,1,.73,1s.66-.51.64-1.08-.36-1-.73-1S85.53,146.66,85.52,147.2Z" style="fill:#263238"></path><path d="M92,146.91c0,.59.36,1,.73,1s.66-.51.63-1.08-.36-1-.73-1S92,146.34,92,146.91Z" style="fill:#263238"></path><path d="M90.05,148.05a15.28,15.28,0,0,0,2.22,3.56,2.51,2.51,0,0,1-2,.48Z" style="fill:#c13b37"></path><path d="M82.78,145.75a.35.35,0,0,0,.36-.18,4,4,0,0,1,2.7-1.69.35.35,0,0,0,.3-.38.34.34,0,0,0-.37-.29h0a4.63,4.63,0,0,0-3.22,2.06.33.33,0,0,0,.15.44h0A.21.21,0,0,0,82.78,145.75Z" style="fill:#263238"></path><path d="M93.82,144.1a.35.35,0,0,0,.33-.12.34.34,0,0,0-.05-.47,3.34,3.34,0,0,0-3-.73.32.32,0,0,0-.22.4v0a.32.32,0,0,0,.41.22h0a2.71,2.71,0,0,1,2.36.6A.27.27,0,0,0,93.82,144.1Z" style="fill:#263238"></path><path d="M90,154a20.13,20.13,0,0,0-.25,2.78,4.13,4.13,0,0,1-.49.07c-2.21.3-3.33-.3-3.91-1a3.13,3.13,0,0,1-.56-2,10.57,10.57,0,0,0,4.46.32C89.66,154.08,90,154,90,154Z" style="fill:#263238"></path><path d="M89.2,154.12l-.1.82c-2.08.27-3.58.18-4.32-.36a2.91,2.91,0,0,1,0-.78A10.57,10.57,0,0,0,89.2,154.12Z" style="fill:#fff"></path><path d="M89.21,156.88c-2.21.3-3.33-.3-3.91-1a7.27,7.27,0,0,1,2.52.16A2.75,2.75,0,0,1,89.21,156.88Z" style="fill:#de5753"></path><path d="M75.94,155.38s4.92-9.5,2.62-11.9.08-3,.08-3c22.17-.67,16.62-10.75,10.47-12.67a5.2,5.2,0,0,0-4.39.19c1.44,0,3.21.31,4.12,1.68,0,0-3.65-1.27-5.53-.22a6.55,6.55,0,0,0-.82,2.48S66.33,130.6,71,145.82C71.76,148.34,75.94,155.38,75.94,155.38Z" style="fill:#263238"></path><path d="M72.55,151.39a5.07,5.07,0,0,0,2.7,2.76c1.64.68,2.68-.74,2.41-2.41-.26-1.5-1.42-3.67-3.15-3.66a2.28,2.28,0,0,0-2.21,2.35A2.18,2.18,0,0,0,72.55,151.39Z" style="fill:#dd8c6a"></path></g></svg>