<?xml version="1.0" encoding="iso-8859-1"?>
<!-- Generator: Adobe Illustrator 19.0.0, SVG Export Plug-In . SVG Version: 6.00 Build 0)  -->
<svg version="1.1" id="Layer_1" xmlns="http://www.w3.org/2000/svg" xmlns:xlink="http://www.w3.org/1999/xlink" x="0px" y="0px"
	 viewBox="0 0 512 512" style="enable-background:new 0 0 512 512;" xml:space="preserve">
<circle style="fill:#263740;" cx="256" cy="256" r="256"/>
<g>
	<path style="fill:#FFD464;" d="M71.812,120c0,4-4,8-8,8c4,0,8,4,8,8c0-4,4-8,8-8C75.812,128,71.812,124,71.812,120z"/>
	<path style="fill:#FFD464;" d="M43.812,156c0,4-4,8-8,8c4,0,8,4,8,8c0-4,4-8,8-8C47.812,164,43.812,160,43.812,156z"/>
	<path style="fill:#FFD464;" d="M15.812,244c0,4-4,8-8,8c4,0,8,4,8,8c0-4,4-8,8-8C19.812,252,15.812,248,15.812,244z"/>
	<path style="fill:#FFD464;" d="M23.812,284c0,4-4,8-8,8c4,0,8,4,8,8c0-4,4-8,8-8C27.812,292,23.812,288,23.812,284z"/>
	<path style="fill:#FFD464;" d="M27.812,328c0,4-4,8-8,8c4,0,8,4,8,8c0-4,4-8,8-8C31.812,336,27.812,332,27.812,328z"/>
	<path style="fill:#FFD464;" d="M115.812,56c0,4-4,8-8,8c4,0,8,4,8,8c0-4,4-8,8-8C119.812,64,115.812,60,115.812,56z"/>
	<path style="fill:#FFD464;" d="M107.812,104c0,4-4,8-8,8c4,0,8,4,8,8c0-4,4-8,8-8C111.812,112,107.812,108,107.812,104z"/>
	<path style="fill:#FFD464;" d="M167.812,28c0,4-4,8-8,8c4,0,8,4,8,8c0-4,4-8,8-8C171.812,36,167.812,32,167.812,28z"/>
	<path style="fill:#FFD464;" d="M311.812,28c0,4-4,8-8,8c4,0,8,4,8,8c0-4,4-8,8-8C315.812,36,311.812,32,311.812,28z"/>
	<path style="fill:#FFD464;" d="M207.812,64c0,4-4,8-8,8c4,0,8,4,8,8c0-4,4-8,8-8C211.812,72,207.812,68,207.812,64z"/>
	<path style="fill:#FFD464;" d="M239.812,20c0,4-4,8-8,8c4,0,8,4,8,8c0-4,4-8,8-8C243.812,28,239.812,24,239.812,20z"/>
	<path style="fill:#FFD464;" d="M363.812,80c0,4-4,8-8,8c4,0,8,4,8,8c0-4,4-8,8-8C367.812,88,363.812,84,363.812,80z"/>
	<path style="fill:#FFD464;" d="M283.812,64c0,4-4,8-8,8c4,0,8,4,8,8c0-4,4-8,8-8C287.812,72,283.812,68,283.812,64z"/>
	<path style="fill:#FFD464;" d="M383.812,48c0,4-4,8-8,8c4,0,8,4,8,8c0-4,4-8,8-8C387.812,56,383.812,52,383.812,48z"/>
	<path style="fill:#FFD464;" d="M427.812,128c0,4-4,8-8,8c4,0,8,4,8,8c0-4,4-8,8-8C431.812,136,427.812,132,427.812,128z"/>
	<path style="fill:#FFD464;" d="M487.812,256c0,4-4,8-8,8c4,0,8,4,8,8c0-4,4-8,8-8C491.812,264,487.812,260,487.812,256z"/>
</g>
<path style="fill:#994239;" d="M256,512c83.172,0,157.056-39.692,203.812-101.14V232.868c0-33.616-27.252-60.868-60.876-60.868
	H108.684c-33.62,0-60.872,27.252-60.872,60.868v172.016C94.256,469.72,170.168,512,256,512z"/>
<path style="fill:#E6E6E6;" d="M443.812,252c0,97.492-83.78,176.868-188,176.868s-188-79.376-188-176.868
	c0-97.488,83.78-164,188-164C360.032,88,443.812,154.512,443.812,252z"/>
<g>
	<path style="fill:#CC584C;" d="M399.812,276c0,53.788-64.936,100-144,100s-144-46.212-144-100s64.936-128,144-128
		S399.812,222.212,399.812,276z"/>
	<path style="fill:#CC584C;" d="M203.812,93.868V180h12V91.428C211.756,92.132,207.764,92.956,203.812,93.868z"/>
	<path style="fill:#CC584C;" d="M291.812,90.772V180h12V92.952C299.868,92.116,295.86,91.4,291.812,90.772z"/>
</g>
<path style="fill:#263740;" d="M255.812,364c-72.228,0-132-41.008-132-88c0-45.496,57.264-116,132-116s132,70.504,132,116
	C387.812,322.992,328.04,364,255.812,364z"/>
<path style="fill:#354D59;" d="M215.564,228c-17.592,0-29.86-8.984-29.86-17.044c0-8.752,12.608-25.568,29.86-25.568
	c17.248,0,29.852,16.816,29.852,25.568C245.416,219.016,233.152,228,215.564,228z"/>
<path style="fill:#CC584C;" d="M387.812,419.828c0,6.728-5.452,12.172-12.176,12.172H131.988c-6.724,0-12.176-5.452-12.176-12.172
	v-19.652c0-6.724,5.452-12.172,12.176-12.172h243.648c6.724,0,12.176,5.452,12.176,12.172L387.812,419.828L387.812,419.828z"/>
<path style="fill:#E6E6E6;" d="M433.348,440.516C424.944,425.88,409.204,416,391.116,416H112.508
	c-15.944,0-30.056,7.696-38.936,19.54C120.008,482.72,184.572,512,256,512C324.868,512,387.336,484.752,433.348,440.516z"/>
<path style="fill:#263740;" d="M259.812,489.744c0,6.696-3.68,10.256-10.372,10.256h-60.868c-6.696,0-12.756-3.564-12.756-10.256
	v-24.352c0-6.696,6.072-13.392,12.756-13.392h60.868c6.692,0,10.372,6.696,10.372,13.392V489.744z"/>
<path style="fill:#FFD464;" d="M182.484,484h-12.172c-3.368,0-6.084-2.64-6.084-6c0-3.364,2.724-6,6.084-6h12.172
	c3.364,0,6.084,2.636,6.084,6C188.572,481.36,185.848,484,182.484,484z"/>
<circle style="fill:#CC584C;" cx="304.24" cy="465.4" r="6.088"/>
<circle style="fill:#96E652;" cx="304.24" cy="483.64" r="6.088"/>
<path style="fill:#CC584C;" d="M67.368,429.032c19.032,20.736,41.416,38.332,66.312,51.9c9.244-16.252,6.968-37.276-6.896-51.14
	C110.416,413.416,84.064,413.188,67.368,429.032z"/>
<path style="fill:#E6E6E6;" d="M68.792,430.528c17.612,18.888,38.052,35.084,60.636,47.96c3.336-13.932-0.384-29.216-11.256-40.088
	C104.808,425.028,84.784,422.42,68.792,430.528z"/>
<path style="fill:#CC584C;" d="M438.264,435.708l-5.916-5.916c-16.628-16.64-43.604-16.64-60.252,0
	c-15.344,15.344-16.508,39.456-3.556,56.168C394.58,473.188,418.128,456.136,438.264,435.708z"/>
<path style="fill:#E6E6E6;" d="M438.14,435.84c-16.744-14.016-41.704-13.18-57.428,2.552c-12.476,12.476-15.592,30.752-9.376,46.132
	C396.204,471.952,418.752,455.476,438.14,435.84z"/>
<g>
</g>
<g>
</g>
<g>
</g>
<g>
</g>
<g>
</g>
<g>
</g>
<g>
</g>
<g>
</g>
<g>
</g>
<g>
</g>
<g>
</g>
<g>
</g>
<g>
</g>
<g>
</g>
<g>
</g>
</svg>
