<svg height="512pt" viewBox="0 0 512 512.00136" width="512pt" xmlns="http://www.w3.org/2000/svg"><g fill="#e8afe5"><path d="m260.140625 244.796875-50.71875 17.183594-50.972656 50.972656 30.589843 18.011719 50.601563-18.011719 50.976563-50.972656zm0 0"/><path d="m168.996094 344.253906-61.519532 19.675782-50.964843 50.964843 20.921875 20.921875 60.269531-20.921875 50.96875-50.964843zm0 0"/><path d="m77.433594 435.816406-69.394532 30.050782c-1.675781 5.347656-.390624 11.421874 3.847657 15.65625l18.589843 18.589843c6.074219 6.074219 15.925782 6.082031 22 .007813l34.257813-34.253906zm0 0"/></g><path d="m260.140625 244.796875-10.617187 3.597656 9.125 2.835938c1.011718.316406 1.804687 1.109375 2.121093 2.121093l9.125 29.351563 20.722657-20.722656zm0 0" fill="#e894e4"/><path d="m322.574219 230.023438-31.957031 31.957031h-81.195313l72.554687-72.554688zm0 0" fill="#6ee4ff"/><path d="m239.640625 312.953125-50.96875 50.976563h-81.195313l50.972657-50.976563zm0 0" fill="#6ee4ff"/><path d="m137.703125 414.894531-50.972656 50.972657h-78.691407c.71875-2.316407 2.003907-4.507813 3.839844-6.34375l44.632813-44.628907zm0 0" fill="#6ee4ff"/><path d="m322.574219 230.023438-40.597657-40.597657-52.679687 52.679688 29.351563 9.125c1.011718.316406 1.804687 1.109375 2.121093 2.121093l2.683594 8.628907h27.164063zm0 0" fill="#61caff"/><path d="m498.007812 194.265625-30.332031-40.640625c-6.542969-8.769531-8.351562-20.199219-4.839843-30.5625l16.285156-48.023438c8.851562-26.097656-16.0625-51.011718-42.15625-42.160156l-48.027344 16.285156c-10.363281 3.511719-21.792969 1.703126-30.5625-4.839843l-40.640625-30.332031c-22.085937-16.480469-53.476563-.484376-53.125 27.070312l.648437 50.707031c.140626 10.941407-5.113281 21.25-14.046874 27.566407l-41.40625 29.285156c-22.496094 15.910156-16.984376 50.707031 9.328124 58.886718l48.429688 15.054688c10.445312 3.246094 18.628906 11.429688 21.875 21.878906l15.054688 48.425782c8.179687 26.3125 42.980468 31.824218 58.890624 9.328124l29.28125-41.40625c6.316407-8.933593 16.625-14.183593 27.566407-14.046874l50.710937.648437c27.550782.351563 43.546875-31.039063 27.066406-53.125zm0 0" fill="#ffe176"/><path d="m323.148438 86.003906-8.347657 8.347656c-2.929687 2.929688-2.929687 7.683594 0 10.613282 1.464844 1.464844 3.386719 2.199218 5.308594 2.199218 1.917969 0 3.839844-.734374 5.304687-2.199218l8.347657-8.347656c2.933593-2.929688 2.933593-7.683594 0-10.613282-2.929688-2.929687-7.683594-2.929687-10.613281 0zm0 0"/><path d="m407.046875 197.210938c1.464844 1.464843 3.386719 2.195312 5.304687 2.195312 1.921876 0 3.84375-.730469 5.308594-2.195312l8.347656-8.347657c2.929688-2.929687 2.929688-7.683593 0-10.613281-2.929687-2.929688-7.683593-2.929688-10.613281 0l-8.347656 8.347656c-2.933594 2.929688-2.933594 7.679688 0 10.613282zm0 0"/><path d="m355.929688 126.328125c-4.144532-.28125-7.710938 2.847656-7.992188 6.984375-.546875 8.160156 2.5625 16.261719 8.53125 22.230469 5.804688 5.804687 14.007812 9.078125 22.226562 8.527343 4.136719-.277343 7.265626-3.855468 6.984376-7.988281-.277344-4.136719-3.859376-7.265625-7.988282-6.988281-3.835937.257812-7.703125-1.257812-10.609375-4.164062s-4.425781-6.773438-4.167969-10.609376c.28125-4.136718-2.847656-7.714843-6.984374-7.992187zm0 0"/><path d="m6.671875 486.75s18.582031 18.582031 18.589844 18.589844c8.882812 8.882812 23.742187 8.878906 32.613281.007812l232.613281-232.613281s6.921875 22.265625 6.929688 22.28125c9.808593 31.566406 53.058593 38.476563 72.179687 11.433594l29.285156-41.40625c4.890626-6.917969 12.851563-10.984375 21.34375-10.875l50.707032.644531c.183594.003906.359375.003906.539062.003906 32.828125 0 52.3125-38.761718 32.640625-65.117187l-30.332031-40.644531c-5.066406-6.792969-6.46875-15.636719-3.746094-23.660157 0 0 16.277344-48.007812 16.285156-48.03125 10.640626-31.371093-20.339843-62.300781-51.675781-51.675781l-9.011719 3.054688c-3.925781 1.332031-6.027343 5.59375-4.699218 9.519531 1.332031 3.925781 5.59375 6.027343 9.519531 4.695312 0 0 9-3.050781 9.011719-3.054687 19.824218-6.722656 39.363281 12.816406 32.640625 32.640625l-16.285157 48.03125c-4.308593 12.703125-2.089843 26.703125 5.929688 37.457031l30.332031 40.644531c12.5625 16.832031-.058593 41.390625-20.957031 41.128907l-50.710938-.648438c-13.382812-.171875-26.042968 6.265625-33.789062 17.21875 0 0-29.242188 41.347656-29.285156 41.40625-12.128906 17.152344-39.386719 12.742188-45.59375-7.222656l-15.050782-48.425782c-3.984374-12.8125-14.007812-22.835937-26.816406-26.820312 0 0-48.363281-15.03125-48.429687-15.050781-20.027344-6.226563-24.328125-33.496094-7.222657-45.59375l41.40625-29.28125c10.953126-7.746094 17.390626-20.378907 17.21875-33.792969 0 0-.648437-50.644531-.648437-50.710938-.269531-20.953124 24.328125-33.496093 41.128906-20.957031l40.644531 30.332031c10.75 8.023438 24.753907 10.238282 37.457032 5.929688l11.722656-3.972656c3.925781-1.332032 6.027344-5.59375 4.695312-9.519532-1.332031-3.921874-5.589843-6.027343-9.515624-4.695312l-11.722657 3.972656c-8.023437 2.722656-16.867187 1.320313-23.660156-3.746094 0 0-40.621094-30.316406-40.640625-30.332031-26.605469-19.851562-65.542969.144531-65.121094 33.179688l.648438 50.710937c.109375 8.472656-3.957032 16.449219-10.875 21.34375 0 0-41.375 29.261719-41.40625 29.28125-27.0625 19.140625-20.105469 62.378906 11.433594 72.183594l22.285156 6.925781s-232.570313 232.570313-232.617188 232.613281c-8.890625 8.898438-8.871094 23.734376.011719 32.617188zm40.589844 7.984375c-3.105469 3.101563-8.289063 3.089844-11.386719-.007813l-18.589844-18.589843c-.824218-.824219-1.445312-1.796875-1.84375-2.847657h53.261719s-21.417969 21.421876-21.441406 21.445313zm63.414062-123.382813h59.96875l-35.957031 35.957032h-59.96875zm74.976563-15.011718h-59.964844l35.960938-35.960938h59.964843zm69.820312-129.785156 9.949219 3.09375c7.949219 2.464843 14.449219 8.925781 16.941406 16.9375.808594 2.605468 1.617188 5.207031 2.425781 7.808593h-57.15625zm-42.851562 42.851562h59.96875l-35.964844 35.960938h-59.964844zm-152.910156 152.910156h59.964843l-35.960937 35.964844h-59.964844zm0 0"/></svg>