<?xml version="1.0" encoding="iso-8859-1"?>
<!-- Generator: Adobe Illustrator 19.0.0, SVG Export Plug-In . SVG Version: 6.00 Build 0)  -->
<svg version="1.1" id="Capa_1" xmlns="http://www.w3.org/2000/svg" xmlns:xlink="http://www.w3.org/1999/xlink" x="0px" y="0px"
	 viewBox="0 0 469.34 469.34" style="enable-background:new 0 0 469.34 469.34;" xml:space="preserve">
<path style="fill:#3D068C;" d="M64.003,416.005c0,29.455,76.41,53.333,170.667,53.333s170.667-23.878,170.667-53.333L362.67,170.672
	c0-23.564-57.308-42.667-128-42.667s-128,19.103-128,42.667L64.003,416.005z"/>
<ellipse style="fill:#744FC1;" cx="234.67" cy="202.672" rx="234.67" ry="96"/>
<path style="fill:#2B0065;" d="M388.631,319.945l-7.456-42.87c-38.772,13.117-88.572,21.596-146.505,21.596h-0.323
	c-0.06,0-0.13-0.001-0.19-0.001h-0.655c-0.069,0-0.117,0-0.185-0.001h-0.366c-0.069,0-0.132-0.001-0.199-0.001h-0.262
	c-0.026-0.001-0.051-0.001-0.077-0.001h-0.237c-0.027,0-0.053-0.001-0.081-0.001h-0.171c-0.03,0-0.06,0-0.09-0.001h-0.249
	c-0.077-0.001-0.165-0.001-0.242-0.001c-0.027-0.001-0.056-0.001-0.083-0.001c-0.052,0-0.116,0-0.167-0.001h-0.091
	c-0.06,0-0.132-0.001-0.191-0.001c-0.038,0-0.076,0-0.113-0.001h-0.18c-0.033-0.001-0.064-0.001-0.096-0.001
	c-0.051,0-0.099-0.001-0.15-0.001h-0.105c-0.077-0.001-0.139-0.001-0.216-0.003h-0.102c-0.052-0.001-0.102-0.001-0.152-0.001
	c-0.036-0.001-0.074-0.001-0.111-0.001c-0.051,0-0.092-0.001-0.143-0.001c-0.034,0-0.068,0-0.103-0.001
	c-0.068,0-0.154-0.001-0.221-0.001c-0.038,0-0.073-0.001-0.111-0.001c-0.042,0-0.091-0.001-0.134-0.001
	c-0.039,0-0.079-0.001-0.118-0.001c-0.051,0-0.083-0.001-0.134-0.001c-0.042,0-0.083-0.001-0.125-0.001
	c-0.06,0-0.141-0.001-0.199-0.003c-0.04,0-0.082,0-0.122-0.001c-0.043,0-0.079,0-0.122-0.001c-0.042,0-0.085,0-0.128-0.001
	c-0.034,0-0.076,0-0.111-0.001c-0.085,0-0.171-0.001-0.255-0.003c-0.026,0-0.051,0-0.077-0.001c-0.049,0-0.099-0.001-0.148-0.001
	c-0.034,0-0.057-0.001-0.091-0.001c-0.051,0-0.099-0.001-0.148-0.001c-0.017-0.001-0.046-0.001-0.063-0.001l-0.307-0.004
	c-0.026,0-0.035,0-0.061-0.001c-0.051,0-0.103-0.001-0.155-0.001c-0.026-0.001-0.055-0.001-0.079-0.001l-0.539-0.008
	c-0.012,0-0.024,0-0.036-0.001c-0.06,0-0.118-0.001-0.178-0.003h-0.043c-0.186-0.003-0.372-0.005-0.559-0.009h-0.036l-0.181-0.004
	h-0.029c-0.195-0.003-0.389-0.007-0.585-0.01h-0.007c-8.306-0.146-16.435-0.462-24.387-0.948c-0.44-0.027-0.878-0.041-1.313-0.04
	c-11.782,0.011-21.324,9.572-21.313,21.354c0.011,11.272,8.789,20.591,20.041,21.274c12.229,0.742,24.815,1.12,37.405,1.12
	C292.993,341.338,345.386,333.574,388.631,319.945L388.631,319.945z"/>
<path style="fill:#8E6FCC;" d="M234.67,106.672c-140.799,0-234.667,49.608-234.667,96c0,23.068,23.243,46.921,63.891,65.085
	c0.013-0.368,0.109-0.714,0.109-1.085c0-41.237,33.429-74.667,74.667-74.667h192c41.237,0,74.667,33.429,74.667,74.667
	c0,0.371,0.096,0.716,0.109,1.085c40.647-18.164,63.891-42.017,63.891-65.085C469.337,156.28,375.469,106.672,234.67,106.672
	L234.67,106.672z"/>
<path style="fill:#5733B1;" d="M458.652,212.591c0.113,0,0.226-0.002,0.34-0.005c5.888-0.184,10.512-5.107,10.328-10.995
	c0,0,0,0,0,0c-0.299-6.429-2.112-12.696-5.289-18.292l-0.001-0.001c-0.184-0.337-0.371-0.674-0.563-1.009l-0.001-0.001
	c-0.028-0.048-0.054-0.094-0.082-0.142l-0.001-0.003c-0.194-0.336-0.392-0.672-0.595-1.007v0c-0.014-0.024-0.029-0.048-0.044-0.072
	v0l-0.043-0.071l-0.001-0.002c-0.176-0.288-0.353-0.574-0.535-0.861l-0.002-0.003c-0.015-0.024-0.029-0.046-0.044-0.07v0
	c-0.015-0.024-0.03-0.047-0.045-0.071l-0.001-0.002c-0.016-0.024-0.029-0.046-0.044-0.07l-0.001-0.002
	c-0.016-0.024-0.03-0.046-0.045-0.07l-0.001-0.001l-0.045-0.071l-0.001-0.001c-0.154-0.24-0.31-0.478-0.468-0.717l-0.002-0.003
	l-0.045-0.067l-0.005-0.007c-0.014-0.021-0.029-0.044-0.043-0.064l-0.004-0.007c-0.014-0.021-0.03-0.044-0.044-0.065l-0.005-0.006
	c-0.014-0.021-0.03-0.046-0.044-0.066l-0.003-0.004l-0.046-0.068l-0.002-0.003l-0.048-0.07l-0.001,0
	c-0.145-0.215-0.291-0.428-0.44-0.643l-0.003-0.005l-0.046-0.065l-0.006-0.008l-0.042-0.061l-0.008-0.012
	c-0.014-0.021-0.028-0.041-0.043-0.062l-0.005-0.007c-0.015-0.021-0.031-0.045-0.046-0.066l-0.003-0.004l-0.048-0.068l-0.002-0.003
	l-0.048-0.068l-0.003-0.004l-0.049-0.07c-0.152-0.215-0.305-0.429-0.461-0.643l-0.001-0.001c-0.017-0.024-0.033-0.045-0.05-0.069
	l-0.003-0.004c-0.016-0.021-0.033-0.045-0.048-0.066l-0.005-0.007l-0.049-0.067l-0.001-0.001l-0.051-0.07l-0.001-0.002l-0.052-0.07
	l-0.052-0.07l-0.001-0.002c-0.14-0.189-0.282-0.379-0.424-0.568l-0.006-0.008l-0.048-0.064l-0.004-0.005
	c-0.016-0.021-0.033-0.043-0.049-0.064l-0.007-0.009c-0.016-0.021-0.03-0.04-0.046-0.061l-0.008-0.011l-0.044-0.059l-0.009-0.012
	l-0.047-0.062l-0.006-0.007l-0.048-0.063l-0.007-0.008l-0.049-0.063l-0.005-0.007l-0.051-0.067l-0.002-0.003
	c-0.11-0.142-0.22-0.284-0.331-0.426l-0.001-0.001c-0.018-0.024-0.035-0.045-0.054-0.069l-0.003-0.005l-0.051-0.065l-0.007-0.009
	l-0.048-0.062l-0.007-0.008l-0.048-0.062l-0.008-0.01l-0.048-0.061l-0.007-0.009c-0.015-0.019-0.032-0.041-0.047-0.06l-0.01-0.013
	c-0.017-0.02-0.031-0.038-0.047-0.059l-0.008-0.01c-0.015-0.019-0.032-0.04-0.048-0.06l-0.009-0.011l-0.051-0.064l-0.004-0.005
	c-0.018-0.022-0.034-0.042-0.051-0.064l-0.006-0.007c-0.076-0.095-0.152-0.188-0.229-0.282l-0.001-0.001
	c-0.038-0.047-0.075-0.092-0.114-0.14l-0.005-0.006c-0.016-0.021-0.034-0.043-0.051-0.063l-0.008-0.01l-0.047-0.058l-0.014-0.016
	l-0.046-0.056l-0.01-0.012c-0.016-0.019-0.032-0.038-0.048-0.058l-0.01-0.012l-0.049-0.059l-0.008-0.01
	c-0.016-0.019-0.032-0.038-0.047-0.057l-0.012-0.015l-0.047-0.057l-0.01-0.012l-0.051-0.062l-0.007-0.007
	c-0.02-0.024-0.037-0.045-0.057-0.069v-0.001c-0.099-0.118-0.198-0.236-0.298-0.354l-0.001-0.001
	c-0.04-0.047-0.078-0.092-0.118-0.139l-0.005-0.006l-0.054-0.064l-0.006-0.007l-0.053-0.062l-0.009-0.01l-0.053-0.062l-0.005-0.006
	l-0.055-0.064l-0.007-0.007l-0.053-0.062l-0.007-0.008l-0.052-0.061l-0.009-0.01c-0.018-0.02-0.037-0.043-0.055-0.064l-0.004-0.004
	l-0.059-0.068L456.078,172c-0.122-0.141-0.244-0.281-0.368-0.422l-0.007-0.007l-0.056-0.063l-0.005-0.005l-0.056-0.063l-0.008-0.01
	l-0.054-0.061l-0.008-0.009l-0.053-0.059l-0.01-0.012l-0.052-0.059l-0.009-0.01c-0.019-0.021-0.035-0.038-0.053-0.059l-0.01-0.011
	l-0.053-0.06l-0.008-0.009l-0.054-0.06l-0.009-0.01l-0.055-0.062l-0.006-0.007c-0.021-0.023-0.04-0.045-0.062-0.069
	c-0.105-0.118-0.211-0.234-0.318-0.351l-0.003-0.004c-0.019-0.021-0.04-0.044-0.059-0.064l-0.01-0.011l-0.054-0.059l-0.008-0.009
	c-0.018-0.02-0.036-0.04-0.055-0.06l-0.01-0.011c-0.017-0.019-0.036-0.04-0.054-0.059l-0.009-0.01l-0.055-0.059l-0.01-0.011
	l-0.053-0.057l-0.012-0.012l-0.053-0.057l-0.011-0.012c-0.018-0.019-0.036-0.04-0.055-0.059l-0.009-0.01l-0.054-0.058l-0.011-0.012
	c-0.13-0.139-0.26-0.278-0.39-0.417l-0.005-0.006l-0.061-0.064l-0.007-0.008l-0.056-0.059l-0.015-0.016l-0.052-0.055l-0.011-0.012
	l-0.055-0.058l-0.01-0.011c-0.02-0.021-0.037-0.039-0.057-0.06l-0.009-0.009l-0.055-0.057l-0.014-0.015l-0.054-0.056l-0.011-0.011
	l-0.057-0.059l-0.009-0.009l-0.059-0.061l-0.008-0.008l-0.059-0.062l-0.007-0.007c-0.135-0.14-0.268-0.277-0.404-0.416l-0.006-0.006
	c-0.02-0.021-0.042-0.042-0.061-0.063l-0.008-0.008c-0.02-0.02-0.039-0.04-0.059-0.06l-0.012-0.011
	c-0.018-0.019-0.04-0.041-0.059-0.06l-0.006-0.007c-0.02-0.021-0.041-0.042-0.061-0.062l-0.008-0.008
	c-0.02-0.021-0.04-0.041-0.06-0.061l-0.008-0.007c-0.02-0.02-0.04-0.04-0.06-0.061l-0.009-0.009l-0.063-0.064l-0.003-0.003
	l-0.066-0.067l-0.003-0.002c-0.184-0.186-0.368-0.369-0.555-0.554l-0.007-0.007l-0.062-0.061l-0.011-0.011l-0.056-0.056
	l-0.017-0.016l-0.055-0.054l-0.012-0.012l-0.056-0.056l-0.015-0.014l-0.055-0.055l-0.014-0.014c-0.02-0.019-0.036-0.036-0.056-0.054
	l-0.014-0.014l-0.061-0.059l-0.008-0.008l-0.064-0.063l-0.006-0.006c-0.024-0.023-0.046-0.045-0.07-0.068l-0.001-0.001
	c-0.119-0.116-0.238-0.23-0.358-0.345l-0.006-0.007c-0.021-0.02-0.042-0.041-0.064-0.061l-0.012-0.012l-0.058-0.056l-0.016-0.015
	c-0.02-0.019-0.037-0.036-0.057-0.055l-0.012-0.012l-0.058-0.055l-0.017-0.016l-0.054-0.051l-0.017-0.016l-0.055-0.052l-0.017-0.016
	l-0.057-0.054l-0.014-0.013l-0.057-0.054l-0.016-0.015l-0.064-0.06l-0.006-0.006l-0.07-0.066l-0.003-0.003
	c-0.098-0.092-0.195-0.184-0.294-0.276l-0.001-0.001l-0.071-0.067l-0.01-0.009l-0.06-0.056l-0.021-0.02l-0.053-0.049l-0.02-0.018
	l-0.051-0.048l-0.023-0.021c-0.017-0.016-0.034-0.032-0.052-0.048l-0.022-0.02l-0.047-0.044l-0.029-0.026l-0.046-0.042l-0.026-0.024
	l-0.047-0.044l-0.025-0.023l-0.051-0.047l-0.022-0.021c-0.016-0.014-0.035-0.032-0.051-0.046l-0.023-0.021l-0.06-0.055l-0.012-0.01
	c-0.126-0.115-0.248-0.226-0.375-0.341l-0.01-0.009c-0.02-0.019-0.044-0.039-0.064-0.058l-0.015-0.013l-0.06-0.053l-0.018-0.017
	l-0.058-0.052l-0.015-0.014l-0.06-0.054l-0.019-0.017l-0.054-0.049l-0.023-0.021c-0.018-0.016-0.033-0.029-0.051-0.045l-0.028-0.025
	l-0.048-0.043l-0.024-0.022l-0.054-0.048l-0.021-0.019l-0.057-0.05l-0.018-0.016l-0.059-0.052l-0.018-0.016
	c-0.127-0.113-0.256-0.226-0.385-0.339l-0.001-0.001l-0.074-0.065l-0.014-0.012c-0.021-0.019-0.043-0.038-0.064-0.056l-0.013-0.012
	c-0.021-0.019-0.041-0.036-0.063-0.054l-0.018-0.016l-0.06-0.052l-0.017-0.014l-0.059-0.052l-0.02-0.018l-0.055-0.048l-0.025-0.021
	l-0.051-0.045l-0.026-0.023l-0.053-0.046l-0.023-0.02l-0.055-0.047l-0.022-0.019l-0.061-0.053l-0.016-0.013l-0.07-0.06l-0.007-0.006
	c-0.106-0.091-0.21-0.18-0.317-0.271l-0.008-0.006c-0.023-0.02-0.048-0.041-0.071-0.061l-0.013-0.011
	c-0.022-0.018-0.044-0.037-0.066-0.056l-0.014-0.011l-0.066-0.056l-0.013-0.011l-0.065-0.055l-0.018-0.015
	c-0.022-0.019-0.04-0.035-0.063-0.053l-0.016-0.014l-0.061-0.052l-0.021-0.018l-0.057-0.048l-0.023-0.019l-0.054-0.046l-0.027-0.023
	c-0.019-0.016-0.035-0.029-0.053-0.045l-0.025-0.021c-0.02-0.017-0.038-0.032-0.059-0.049l-0.02-0.017
	c-0.024-0.02-0.047-0.04-0.071-0.06l-0.007-0.005c-0.026-0.021-0.051-0.043-0.077-0.064l-0.005-0.004l-0.323-0.268l-0.019-0.015
	l-0.063-0.052l-0.016-0.014c-0.023-0.018-0.042-0.034-0.064-0.052l-0.02-0.017l-0.061-0.05l-0.022-0.018l-0.055-0.045l-0.029-0.024
	c-0.017-0.014-0.035-0.029-0.053-0.043l-0.027-0.022c-0.017-0.014-0.036-0.03-0.053-0.044l-0.027-0.022
	c-0.02-0.016-0.035-0.029-0.055-0.044l-0.027-0.022l-0.05-0.041l-0.033-0.026l-0.053-0.043l-0.025-0.021l-0.063-0.051l-0.018-0.014
	c-0.022-0.018-0.049-0.039-0.071-0.058l-0.01-0.008l-0.081-0.065l-0.002-0.002c-0.083-0.067-0.165-0.133-0.249-0.201l-0.016-0.012
	l-0.065-0.052l-0.025-0.02l-0.059-0.048l-0.02-0.016l-0.063-0.051l-0.021-0.017l-0.061-0.048l-0.025-0.02l-0.055-0.044l-0.032-0.025
	l-0.051-0.041l-0.03-0.024l-0.052-0.042l-0.033-0.025l-0.051-0.04l-0.032-0.025c-0.016-0.012-0.033-0.026-0.049-0.038l-0.036-0.028
	l-0.053-0.042l-0.027-0.021l-0.06-0.047l-0.025-0.02c-0.023-0.018-0.048-0.038-0.072-0.056l-0.01-0.008l-0.085-0.066l-0.004-0.003
	c-0.027-0.021-0.055-0.043-0.081-0.064l-0.009-0.007c-0.025-0.02-0.048-0.037-0.073-0.057L442.196,159
	c-0.02-0.016-0.036-0.029-0.057-0.044l-0.031-0.024l-0.051-0.04l-0.035-0.027l-0.051-0.04l-0.033-0.025l-0.049-0.038l-0.038-0.029
	c-0.016-0.012-0.031-0.024-0.047-0.037l-0.037-0.028l-0.046-0.035l-0.04-0.03l-0.047-0.037l-0.036-0.028l-0.048-0.037l-0.038-0.029
	l-0.047-0.037l-0.037-0.028l-0.046-0.035l-0.04-0.03l-0.048-0.037l-0.036-0.028l-0.053-0.04l-0.032-0.024l-0.069-0.053l-0.016-0.012
	l-0.085-0.065l-0.023-0.017c-0.02-0.015-0.042-0.033-0.063-0.048l-0.029-0.022l-0.057-0.043l-0.033-0.025l-0.052-0.04l-0.034-0.026
	l-0.052-0.039l-0.038-0.028c-0.014-0.011-0.033-0.025-0.048-0.036l-0.038-0.028l-0.048-0.036l-0.04-0.031l-0.046-0.035l-0.038-0.029
	l-0.048-0.036l-0.04-0.03l-0.046-0.034l-0.039-0.03l-0.046-0.034l-0.044-0.033l-0.04-0.031l-0.045-0.033l-0.038-0.028l-0.053-0.039
	l-0.018-0.013l-0.066-0.049l-0.024-0.018c-0.038-0.029-0.079-0.059-0.118-0.087l-0.029-0.021l-0.079-0.059l-0.005-0.003
	l-0.058-0.043l-0.031-0.023l-0.053-0.039l-0.034-0.025l-0.048-0.035l-0.042-0.031l-0.049-0.036l-0.034-0.025l-0.054-0.04
	l-0.035-0.026l-0.051-0.038l-0.036-0.026l-0.049-0.036l-0.04-0.029l-0.05-0.036l-0.034-0.025l-0.054-0.04l-0.034-0.024l-0.053-0.039
	l-0.035-0.025l-0.053-0.038l-0.034-0.025l-0.058-0.042l-0.011-0.008c-0.135-0.099-0.268-0.194-0.404-0.293l-0.018-0.013
	l-0.057-0.041l-0.034-0.024c-0.014-0.01-0.031-0.023-0.046-0.033l-0.045-0.033l-0.048-0.034l-0.039-0.028l-0.053-0.038l-0.034-0.024
	c-0.018-0.013-0.04-0.029-0.058-0.042l-0.031-0.022l-0.055-0.039l-0.036-0.025l-0.056-0.04l-0.031-0.022l-0.057-0.041l-0.033-0.023
	l-0.059-0.042l-0.029-0.021l-0.058-0.041l-0.032-0.023l-0.061-0.043l-0.015-0.01c-0.138-0.098-0.279-0.197-0.419-0.295l-0.008-0.006
	c-0.025-0.018-0.051-0.036-0.077-0.054l-0.012-0.008l-0.064-0.045l-0.031-0.021l-0.061-0.043l-0.026-0.018l-0.063-0.044l-0.03-0.021
	l-0.063-0.044l-0.024-0.017l-0.065-0.046l-0.027-0.019l-0.063-0.044l-0.026-0.018l-0.063-0.044l-0.03-0.02l-0.063-0.043
	l-0.024-0.017l-0.067-0.047l-0.023-0.016c-0.022-0.015-0.046-0.032-0.069-0.048l-0.013-0.009c-0.171-0.118-0.343-0.236-0.514-0.353
	l-0.014-0.01l-0.067-0.046l-0.026-0.018l-0.068-0.046l-0.023-0.016c-0.022-0.016-0.046-0.031-0.068-0.047l-0.023-0.016l-0.069-0.047
	l-0.023-0.016l-0.066-0.045l-0.026-0.017c-0.022-0.015-0.047-0.032-0.07-0.047l-0.02-0.014l-0.072-0.048l-0.021-0.014
	c-0.026-0.018-0.046-0.031-0.073-0.049l-0.018-0.012l-0.071-0.048l-0.025-0.017c-0.023-0.015-0.049-0.033-0.072-0.048l-0.006-0.004
	c-0.208-0.14-0.408-0.274-0.619-0.414l-0.02-0.014l-0.074-0.048l-0.019-0.012l-0.072-0.048l-0.022-0.015
	c-0.023-0.015-0.049-0.032-0.072-0.048l-0.021-0.014c-0.023-0.015-0.048-0.032-0.072-0.047l-0.024-0.016
	c-0.023-0.015-0.047-0.032-0.071-0.047l-0.02-0.013c-0.023-0.015-0.052-0.035-0.076-0.05l-0.016-0.011
	c-0.027-0.018-0.051-0.034-0.078-0.051l-0.015-0.01c-0.027-0.018-0.052-0.034-0.079-0.052l-0.014-0.008
	c-0.239-0.157-0.483-0.316-0.724-0.473l-0.013-0.008l-0.077-0.05l-0.019-0.012l-0.079-0.051l-0.014-0.009
	c-0.027-0.018-0.053-0.034-0.08-0.052l-0.016-0.01l-0.076-0.048l-0.021-0.014l-0.077-0.049l-0.016-0.01l-0.081-0.052l-0.01-0.007
	c-0.031-0.02-0.054-0.035-0.086-0.055l-0.008-0.005c-0.031-0.02-0.054-0.035-0.086-0.055l-0.011-0.007
	c-0.373-0.239-0.751-0.479-1.13-0.717l-0.004-0.002l-0.094-0.059l-0.001-0.001l-0.095-0.06l-0.001,0
	c-11.333-6.967-23.286-12.87-35.706-17.635c-5.492-2.132-11.672,0.591-13.804,6.083c-2.128,5.48,0.58,11.649,6.054,13.793
	c41.805,16.401,60.923,36.647,61.324,49.435C448.178,208.013,452.894,212.587,458.652,212.591L458.652,212.591z M234.67,298.672
	h0.431c0.034,0,0.063,0,0.098,0h0.218c0.037,0,0.078,0,0.115,0h0.105c0.038,0,0.074,0,0.111,0c0.035,0,0.068,0,0.102,0h0.116
	c0.034,0,0.068,0,0.102,0l0.119,0c0.025,0,0.066,0,0.091,0c0.042,0,0.085,0,0.127,0l0.095,0c0.042,0,0.078,0,0.12,0
	c0.025,0,0.068,0,0.093,0l0.146,0l0.069,0l0.217-0.001h0.005l0.206-0.001l0.083,0c0.047,0,0.089,0,0.135-0.001l0.081,0l0.134-0.001
	l0.087,0l0.128-0.001l0.099,0c0.037,0,0.072-0.001,0.109-0.001c0.035,0,0.075-0.001,0.109-0.001c0.033,0,0.075-0.001,0.107-0.001
	l0.109-0.001c0.037,0,0.072,0,0.109-0.001c0.034,0,0.064,0,0.098-0.001l0.128-0.001l0.089,0l0.128-0.001
	c0.034,0,0.054-0.001,0.089-0.001c0.056-0.001,0.115-0.001,0.171-0.001l0.041,0l0.219-0.002l0.029,0l0.183-0.001l0.077-0.001
	c0.047-0.001,0.09-0.001,0.137-0.001l0.085-0.001l0.135-0.001l0.077-0.001c0.046,0,0.092-0.001,0.138-0.001l0.083-0.001
	c0.046-0.001,0.087-0.001,0.133-0.001l0.085-0.001l0.13-0.001l0.088-0.001l0.135-0.001l0.076-0.001c0.047,0,0.099-0.001,0.146-0.002
	l0.073-0.001c0.046-0.001,0.093-0.001,0.139-0.002l0.078-0.001l0.103-0.001c0.068-0.001,0.146-0.002,0.214-0.003
	c0.037,0,0.07-0.001,0.107-0.001l0.085-0.001l0.128-0.002l0.097-0.001c0.042,0,0.076-0.001,0.117-0.002
	c0.034,0,0.066-0.001,0.1-0.001l0.113-0.001l0.096-0.001l0.124-0.002l0.091-0.001l0.117-0.002l0.101-0.001l0.111-0.002
	c0.034,0,0.069-0.001,0.103-0.002l0.108-0.002l0.106-0.001l0.111-0.002l0.101-0.001l0.125-0.002l0.087-0.002
	c0.069-0.001,0.141-0.002,0.21-0.003l0.057-0.001c0.051-0.001,0.105-0.002,0.156-0.003l0.086-0.001l0.126-0.002
	c0.034,0,0.061-0.001,0.095-0.002l0.116-0.002l0.109-0.002l0.098-0.002l0.117-0.002c0.032-0.001,0.062-0.001,0.094-0.002
	l0.118-0.002l0.098-0.002c0.042-0.001,0.068-0.001,0.111-0.002l0.102-0.002l0.109-0.002l0.113-0.002l0.094-0.002l0.117-0.002
	l0.101-0.002c0.036-0.001,0.077-0.002,0.113-0.002c0.042-0.001,0.075-0.002,0.117-0.002l0.183-0.004l0.102-0.002
	c0.037-0.001,0.075-0.002,0.111-0.002l0.105-0.002l0.103-0.002l0.111-0.002l0.104-0.002c0.034-0.001,0.07-0.001,0.104-0.002
	l0.111-0.002l0.094-0.002l0.125-0.003l0.087-0.002l0.12-0.003l0.098-0.002c0.036-0.001,0.076-0.002,0.113-0.003
	c0.033-0.001,0.065-0.001,0.098-0.002c0.037-0.001,0.075-0.002,0.111-0.003l0.101-0.002l0.113-0.003
	c0.033-0.001,0.066-0.002,0.1-0.002l0.077-0.002l0.256-0.006l0.08-0.002l0.105-0.003c0.032-0.001,0.075-0.002,0.107-0.003
	c0.034-0.001,0.069-0.002,0.103-0.003l0.111-0.003c0.034-0.001,0.068-0.002,0.102-0.003l0.104-0.003l0.115-0.003l0.095-0.003
	l0.11-0.003l0.103-0.003c0.042-0.001,0.069-0.002,0.111-0.003l0.094-0.002c0.042-0.001,0.077-0.002,0.119-0.003l0.084-0.002
	l0.126-0.004l0.102-0.003l0.1-0.003c0.042-0.001,0.087-0.002,0.129-0.004l0.086-0.002c0.064-0.002,0.139-0.004,0.202-0.006
	c0.042-0.001,0.074-0.002,0.115-0.003l0.09-0.003c0.042-0.001,0.072-0.002,0.114-0.003l0.102-0.003l0.109-0.003
	c0.032-0.001,0.063-0.002,0.094-0.003l0.122-0.004l0.086-0.003l0.126-0.004l0.079-0.002l0.124-0.004l0.094-0.003l0.113-0.004
	l0.092-0.003l0.118-0.004l0.094-0.003l0.115-0.004l0.091-0.003l0.118-0.004l0.115-0.004l0.106-0.003
	c0.064-0.002,0.125-0.004,0.189-0.006l0.09-0.003l0.118-0.004l0.101-0.003l0.105-0.004l0.115-0.004l0.093-0.003l0.111-0.004
	l0.1-0.003c0.033-0.001,0.079-0.003,0.112-0.004l0.094-0.003l0.116-0.004l0.088-0.003c0.042-0.001,0.083-0.003,0.124-0.004
	l0.083-0.003c0.042-0.001,0.079-0.003,0.12-0.004l0.083-0.003l0.132-0.005l0.052-0.002l0.15-0.005l0.031-0.001l0.329-0.012
	l0.044-0.002c0.041-0.001,0.089-0.003,0.13-0.005l0.076-0.003c0.042-0.002,0.084-0.003,0.126-0.005l0.083-0.003l0.129-0.005
	l0.074-0.003c0.042-0.001,0.084-0.003,0.125-0.005l0.091-0.004l0.113-0.004l0.094-0.004l0.11-0.004l0.098-0.004l0.117-0.005
	l0.074-0.003l0.133-0.005l0.064-0.003c0.049-0.002,0.094-0.004,0.145-0.006l0.031-0.001c0.174-0.007,0.342-0.014,0.516-0.021
	l0.057-0.002c0.041-0.002,0.081-0.004,0.123-0.005l0.087-0.004l0.109-0.005c0.032-0.001,0.067-0.003,0.098-0.004l0.113-0.005
	l0.092-0.004l0.117-0.005l0.086-0.004c0.042-0.002,0.083-0.004,0.124-0.005c0.031-0.002,0.051-0.002,0.082-0.004l0.118-0.005
	l0.095-0.004c0.033-0.002,0.079-0.004,0.113-0.005c0.031-0.002,0.063-0.003,0.095-0.004l0.108-0.005l0.1-0.004
	c0.041-0.002,0.068-0.003,0.11-0.005c0.036-0.002,0.072-0.003,0.107-0.005l0.178-0.008c0.04-0.002,0.075-0.003,0.115-0.005
	l0.119-0.005l0.087-0.004l0.127-0.006l0.075-0.003l0.128-0.006l0.079-0.004l0.126-0.006l0.076-0.004
	c0.041-0.002,0.087-0.004,0.128-0.006l0.076-0.004l0.133-0.006l0.067-0.003l0.133-0.006l0.074-0.004
	c0.049-0.002,0.086-0.004,0.135-0.007l0.051-0.002l0.154-0.007l0.021-0.001c0.246-0.012,0.496-0.024,0.742-0.036l0.032-0.002
	c0.057-0.003,0.101-0.005,0.158-0.008l0.044-0.002l0.145-0.007l0.062-0.003l0.146-0.007l0.051-0.003
	c0.049-0.002,0.103-0.005,0.152-0.007l0.047-0.003c0.049-0.002,0.11-0.006,0.159-0.008l0.036-0.002l0.163-0.008l0.034-0.002
	c0.376-0.02,0.747-0.039,1.122-0.059l0.036-0.002c0.057-0.003,0.098-0.006,0.155-0.008l0.045-0.002l0.146-0.008l0.061-0.003
	l0.144-0.008l0.05-0.003l0.151-0.008l0.053-0.003c0.049-0.003,0.098-0.005,0.146-0.008l0.055-0.003l0.141-0.008l0.074-0.004
	l0.129-0.007l0.057-0.003c0.243-0.014,0.485-0.027,0.729-0.041l0.004,0c0.057-0.003,0.117-0.007,0.174-0.01l0.026-0.001l0.169-0.01
	l0.031-0.002l0.154-0.009l0.053-0.003l0.151-0.009l0.044-0.003c0.049-0.003,0.107-0.007,0.156-0.009l0.039-0.003
	c0.057-0.003,0.107-0.006,0.164-0.01l0.025-0.001c0.057-0.004,0.116-0.007,0.173-0.01l0.016-0.001
	c0.372-0.022,0.764-0.046,1.135-0.069l0.021-0.001l0.171-0.011l0.026-0.002c0.057-0.004,0.107-0.007,0.163-0.01l0.039-0.003
	c0.049-0.003,0.111-0.007,0.159-0.01l0.035-0.002l0.167-0.01l0.025-0.002l0.171-0.011l0.023-0.002l0.176-0.011l0.006-0.001
	c0.322-0.021,0.633-0.041,0.954-0.062l0.007,0c0.056-0.004,0.116-0.008,0.172-0.011l0.027-0.002c0.057-0.004,0.102-0.007,0.158-0.01
	l0.045-0.003c0.048-0.003,0.1-0.007,0.148-0.01l0.049-0.003l0.156-0.01l0.034-0.003l0.163-0.011l0.029-0.002
	c0.057-0.004,0.114-0.007,0.17-0.011l0.014-0.001c0.385-0.026,0.758-0.052,1.143-0.079h0.001c0.056-0.004,0.119-0.008,0.174-0.012
	l0.026-0.002l0.171-0.012l0.02-0.002l0.17-0.012l0.029-0.002c0.056-0.004,0.111-0.008,0.166-0.012l0.025-0.002
	c0.056-0.004,0.119-0.008,0.174-0.013l0.01-0.001c0.447-0.032,0.884-0.064,1.331-0.098l0.003,0l0.182-0.014l0.014-0.001
	c0.064-0.005,0.114-0.008,0.178-0.013l0.016-0.001l0.169-0.013l0.031-0.002l0.17-0.013l0.012-0.001
	c0.064-0.005,0.12-0.009,0.184-0.014l0.001,0c0.382-0.029,0.753-0.058,1.133-0.088l0.012-0.001l0.184-0.014l0.005,0
	c0.063-0.005,0.118-0.009,0.182-0.015l0.011-0.001c0.064-0.005,0.121-0.01,0.184-0.015l0.003,0c0.064-0.005,0.123-0.01,0.186-0.015
	l0.007-0.001c0.633-0.05,1.255-0.102,1.886-0.154l0.012-0.001c0.063-0.005,0.113-0.009,0.176-0.015l0.016-0.001l0.172-0.014
	l0.021-0.002c33.604-2.838,63.666-8.615,89.343-16.401l0.005-0.001l0.137-0.041l0.01-0.003l0.136-0.041l0.009-0.003l0.132-0.04
	l0.02-0.006c0.373-0.114,0.751-0.229,1.122-0.344l0.025-0.008l0.12-0.037l0.025-0.007l0.118-0.036l0.031-0.009
	c0.036-0.011,0.084-0.026,0.12-0.037l0.021-0.007l0.124-0.038l0.024-0.008c0.042-0.013,0.081-0.025,0.123-0.038l0.015-0.005
	c0.28-0.087,0.562-0.175,0.84-0.263l0.007-0.002l0.123-0.039l0.026-0.008c0.042-0.013,0.079-0.024,0.12-0.038l0.024-0.007
	c0.035-0.011,0.081-0.025,0.116-0.037l0.033-0.01l0.112-0.035l0.037-0.012c0.036-0.011,0.068-0.021,0.104-0.033l0.046-0.014
	l0.106-0.034l0.024-0.007c0.042-0.013,0.081-0.026,0.122-0.039l0.005-0.001c0.183-0.058,0.363-0.116,0.546-0.174l0.021-0.007
	c0.041-0.013,0.072-0.023,0.113-0.036l0.033-0.011c0.036-0.011,0.065-0.021,0.1-0.032l0.051-0.017l0.1-0.032l0.04-0.013l0.102-0.033
	l0.049-0.016l0.097-0.031l0.047-0.015c0.03-0.009,0.066-0.021,0.096-0.031l0.056-0.018l0.092-0.03l0.042-0.014l0.104-0.034
	l0.03-0.01c0.053-0.017,0.118-0.038,0.171-0.055c0.025-0.008,0.06-0.02,0.086-0.028l0.065-0.021l0.079-0.026l0.073-0.024
	l0.076-0.024l0.076-0.025l0.07-0.023l0.071-0.023c0.026-0.008,0.055-0.018,0.08-0.026l0.068-0.022l0.078-0.025l0.071-0.023
	l0.073-0.024l0.077-0.025l0.076-0.025l0.064-0.021l0.093-0.031l0.055-0.018l0.114-0.037l0.03-0.01
	c0.102-0.034,0.198-0.065,0.299-0.099l0.021-0.007l0.122-0.041l0.049-0.016l0.102-0.034l0.046-0.015
	c0.035-0.011,0.065-0.021,0.1-0.033l0.046-0.014c0.035-0.011,0.076-0.025,0.111-0.037l0.033-0.011l0.112-0.037l0.04-0.013
	l0.112-0.037l0.035-0.012c0.038-0.012,0.077-0.026,0.115-0.038l0.033-0.011l0.12-0.04l0.029-0.01
	c0.044-0.015,0.094-0.032,0.138-0.046l0.008-0.003c0.101-0.034,0.199-0.066,0.299-0.101l0.019-0.007l0.127-0.043l0.031-0.01
	c0.041-0.014,0.077-0.026,0.118-0.04l0.03-0.01c0.041-0.014,0.079-0.027,0.12-0.041l0.027-0.009l0.121-0.041l0.029-0.01l0.128-0.044
	l0.014-0.005c0.044-0.015,0.096-0.033,0.14-0.048l0.008-0.003c0.301-0.103,0.598-0.204,0.898-0.307l0.004-0.001
	c0.05-0.017,0.096-0.033,0.145-0.05l0.005-0.002c0.049-0.017,0.095-0.033,0.145-0.05c0.002,0,0.003-0.001,0.005-0.002
	c0.1-0.034,0.193-0.066,0.292-0.101l0.007-0.003c11.128-3.801,21.982-8.365,32.482-13.659c5.249-2.675,7.335-9.099,4.66-14.347
	c-2.675-5.249-9.099-7.335-14.347-4.66c-0.002,0.001-0.004,0.002-0.006,0.003c-41.806,21.322-104.33,33.55-171.541,33.55
	c-125.941,0-200.954-40.809-211.995-68.39c-2.19-5.469-8.399-8.127-13.868-5.937c-5.451,2.183-8.113,8.361-5.955,13.822
	c4.643,11.631,14.855,23.124,29.911,33.661l0.01,0.007c0.235,0.165,0.465,0.324,0.702,0.488l0.005,0.004
	c0.237,0.164,0.469,0.323,0.708,0.486l0.012,0.008l0.081,0.056l0.003,0.002l0.088,0.06l0.001,0.001
	c0.18,0.122,0.359,0.244,0.541,0.366l0.005,0.003c0.03,0.021,0.056,0.038,0.087,0.058l0.003,0.002
	c0.03,0.021,0.057,0.038,0.087,0.059l0.004,0.003c0.213,0.143,0.423,0.283,0.637,0.425l0.003,0.002l0.088,0.058l0.005,0.004
	c0.031,0.021,0.058,0.038,0.089,0.059l0.001,0.001l0.088,0.058l0.006,0.004c0.031,0.021,0.057,0.038,0.089,0.058l0.002,0.002
	c0.154,0.101,0.307,0.202,0.461,0.303l0.003,0.002l0.085,0.056l0.014,0.009l0.074,0.049l0.02,0.013l0.075,0.048l0.014,0.009
	l0.082,0.053l0.009,0.006c0.124,0.081,0.244,0.159,0.369,0.24l0.008,0.005l0.083,0.053l0.015,0.009l0.075,0.048l0.02,0.013
	l0.074,0.048l0.018,0.011c0.023,0.015,0.053,0.034,0.077,0.049l0.014,0.009l0.084,0.054l0.008,0.005
	c0.126,0.081,0.248,0.159,0.374,0.24l0.005,0.003l0.087,0.055l0.014,0.008c0.023,0.015,0.055,0.035,0.078,0.05l0.016,0.01
	l0.08,0.051l0.011,0.007c0.19,0.121,0.373,0.236,0.564,0.356l0.01,0.007l0.085,0.053l0.009,0.006l0.085,0.054l0.01,0.006
	l0.085,0.053l0.01,0.006l0.083,0.051l0.013,0.008c0.128,0.08,0.25,0.156,0.378,0.236l0.014,0.009l0.079,0.049l0.019,0.012
	l0.077,0.048l0.017,0.011l0.076,0.047l0.021,0.013l0.07,0.043l0.027,0.017l0.071,0.044l0.02,0.013
	c0.029,0.018,0.055,0.034,0.083,0.051l0.011,0.007c0.097,0.06,0.192,0.118,0.289,0.178l0.004,0.002
	c0.029,0.017,0.06,0.036,0.089,0.054l0.018,0.011l0.077,0.048l0.02,0.012l0.072,0.044l0.025,0.015
	c0.025,0.015,0.055,0.034,0.079,0.048l0.012,0.007c0.033,0.02,0.057,0.034,0.09,0.054l0.006,0.004
	c0.13,0.079,0.258,0.157,0.389,0.236l0.007,0.004l0.088,0.053l0.016,0.009c0.024,0.015,0.051,0.031,0.076,0.046l0.028,0.017
	l0.07,0.042l0.021,0.013l0.079,0.047l0.018,0.011l0.189,0.114l0.003,0.001c0.099,0.06,0.196,0.118,0.296,0.177l0.007,0.004
	c0.029,0.017,0.057,0.034,0.085,0.051l0.023,0.014l0.077,0.046l0.018,0.011c0.025,0.015,0.053,0.032,0.078,0.046l0.02,0.012
	c0.025,0.015,0.061,0.035,0.086,0.05l0.009,0.006l0.089,0.052l0.011,0.007c0.1,0.059,0.194,0.115,0.294,0.173l0.02,0.012
	l0.075,0.044l0.034,0.02l0.064,0.037l0.03,0.018l0.068,0.04l0.032,0.019l0.067,0.039l0.027,0.016l0.068,0.04l0.033,0.019
	l0.078,0.046l0.014,0.008c0.101,0.059,0.196,0.114,0.297,0.173l0.016,0.009l0.085,0.049l0.012,0.007l0.084,0.048l0.021,0.012
	l0.079,0.046l0.021,0.012l0.074,0.043l0.027,0.015c0.025,0.015,0.053,0.031,0.079,0.045l0.018,0.011l0.082,0.047l0.018,0.01
	l0.096,0.055l0.003,0.002c0.034,0.02,0.066,0.038,0.101,0.058l0.007,0.004c0.03,0.017,0.061,0.035,0.09,0.052l0.025,0.014
	l0.074,0.043l0.028,0.016l0.072,0.041l0.026,0.015l0.071,0.041l0.033,0.019l0.067,0.038l0.029,0.016l0.074,0.042l0.025,0.014
	c0.064,0.037,0.132,0.075,0.196,0.112l0.003,0.001c0.068,0.039,0.132,0.075,0.201,0.114l0.02,0.011l0.083,0.047l0.019,0.011
	c0.026,0.015,0.049,0.028,0.076,0.043l0.033,0.019c0.026,0.015,0.043,0.024,0.069,0.039l0.031,0.018l0.068,0.038l0.032,0.018
	l0.074,0.042l0.026,0.014c0.021,0.012,0.048,0.027,0.07,0.039l0.032,0.018c0.069,0.039,0.13,0.073,0.2,0.112l0.018,0.01
	c0.026,0.014,0.055,0.031,0.081,0.046l0.028,0.015l0.073,0.041l0.029,0.016l0.077,0.043l0.018,0.01l0.083,0.046l0.022,0.012
	l0.08,0.045l0.021,0.011l0.076,0.042l0.029,0.016l0.306,0.169l0.003,0.002l0.095,0.052l0.027,0.015
	c0.026,0.015,0.051,0.028,0.077,0.043l0.023,0.013l0.076,0.042l0.03,0.016l0.072,0.039l0.033,0.018l0.064,0.035l0.039,0.021
	l0.07,0.038l0.03,0.017c0.027,0.014,0.063,0.034,0.089,0.049l0.011,0.006l0.208,0.114l0.01,0.006
	c0.031,0.017,0.062,0.033,0.092,0.05l0.018,0.009l0.083,0.045l0.027,0.015c0.027,0.015,0.049,0.026,0.075,0.041l0.029,0.015
	l0.072,0.039l0.035,0.019l0.07,0.038l0.031,0.017l0.073,0.039l0.031,0.017c0.067,0.036,0.137,0.074,0.204,0.11l0.02,0.01
	l0.086,0.047l0.018,0.009l0.083,0.045l0.031,0.016l0.072,0.039l0.035,0.019l0.065,0.035l0.04,0.021l0.068,0.036l0.033,0.018
	l0.077,0.041l0.024,0.013l0.091,0.049l0.012,0.007c0.107,0.057,0.21,0.111,0.318,0.169l0.014,0.007
	c0.027,0.014,0.061,0.033,0.089,0.047l0.027,0.014l0.074,0.039l0.038,0.02l0.07,0.037l0.031,0.016l0.077,0.041l0.028,0.014
	c0.022,0.012,0.054,0.029,0.077,0.041l0.029,0.015l0.071,0.037l0.036,0.019c0.068,0.036,0.138,0.073,0.206,0.108l0.031,0.016
	l0.074,0.039l0.036,0.019l0.068,0.035l0.036,0.019l0.074,0.038l0.031,0.016L51.9,262l0.035,0.018l0.073,0.038l0.033,0.017
	l0.074,0.038l0.031,0.016l0.083,0.043l0.023,0.012l0.214,0.111l0.012,0.006l0.092,0.048l0.027,0.014
	c0.028,0.014,0.052,0.027,0.079,0.041l0.028,0.014l0.077,0.04l0.032,0.016c0.027,0.014,0.048,0.025,0.076,0.039l0.029,0.015
	l0.077,0.04l0.031,0.016l0.077,0.039l0.028,0.015c0.033,0.016,0.062,0.032,0.094,0.048l0.011,0.006
	c0.074,0.037,0.14,0.071,0.214,0.109l0.031,0.016l0.077,0.039l0.031,0.016l0.073,0.037l0.038,0.02l0.069,0.035l0.038,0.019
	l0.067,0.034l0.04,0.021l0.069,0.035l0.036,0.019l0.08,0.041l0.024,0.012c0.037,0.019,0.063,0.032,0.1,0.05l0.007,0.004
	c0.037,0.019,0.072,0.036,0.109,0.055l0.019,0.009c0.033,0.016,0.055,0.028,0.088,0.045l0.029,0.014l0.08,0.04l0.029,0.015
	l0.078,0.039l0.033,0.016l0.073,0.036l0.038,0.019l0.074,0.037l0.03,0.015l0.082,0.041l0.027,0.013l0.085,0.042l0.023,0.012
	l0.08,0.04l0.031,0.015c0.074,0.037,0.139,0.069,0.214,0.106l0.032,0.016l0.077,0.039l0.032,0.016l0.074,0.036l0.039,0.019
	l0.072,0.036l0.035,0.017c0.023,0.012,0.049,0.024,0.073,0.036l0.038,0.019l0.069,0.034l0.042,0.021l0.064,0.031l0.044,0.022
	l0.096,0.048l0.009,0.005l0.11,0.054l0.02,0.01l0.09,0.044l0.029,0.014l0.079,0.039l0.036,0.018l0.074,0.036l0.036,0.017l0.07,0.034
	l0.046,0.022l0.062,0.03l0.047,0.023l0.055,0.026l0.061,0.03l0.041,0.02l0.062,0.03l0.057,0.028l0.09,0.044
	c0.023,0.011,0.043,0.021,0.067,0.033l0.055,0.026l0.049,0.024l0.061,0.029l0.052,0.025l0.053,0.026l0.053,0.026l0.057,0.027
	l0.054,0.026l0.057,0.028l0.046,0.021l0.063,0.03l0.051,0.024l0.057,0.027l0.057,0.027l0.049,0.024l0.091,0.044l0.061,0.029
	l0.061,0.029l0.066,0.032l0.044,0.021l0.057,0.027l0.054,0.026l0.057,0.027l0.051,0.024l0.057,0.027l0.051,0.024l0.06,0.028
	l0.057,0.027l0.046,0.022l0.07,0.033l0.044,0.021l0.07,0.033l0.04,0.019l0.084,0.039c0.021,0.01,0.036,0.017,0.058,0.027
	c0.029,0.014,0.051,0.024,0.08,0.038l0.034,0.016l0.073,0.034l0.048,0.022l0.065,0.031l0.049,0.023l0.057,0.027l0.053,0.025
	l0.063,0.029l0.05,0.023L59.999,266l0.055,0.026l0.061,0.029l0.049,0.023l0.057,0.027l0.055,0.026l0.037,0.017
	c0.044,0.021,0.091,0.043,0.135,0.063l0.043,0.02l0.067,0.031l0.043,0.02c0.021,0.01,0.042,0.02,0.064,0.03l0.046,0.021l0.07,0.032
	l0.039,0.018l0.065,0.03l0.05,0.023l0.064,0.03l0.044,0.02c0.021,0.01,0.042,0.02,0.064,0.03l0.051,0.023l0.061,0.028l0.063,0.029
	l0.045,0.021l0.075,0.035c0.027,0.012,0.057,0.026,0.083,0.038c0.02,0.009,0.046,0.021,0.066,0.03l0.048,0.022l0.059,0.027
	l0.06,0.027l0.055,0.025l0.057,0.026l0.053,0.024l0.057,0.026L62,266.926l0.053,0.024l0.053,0.024l0.061,0.028l0.051,0.023
	l0.062,0.028l0.053,0.024l0.239,0.109l0.035,0.016l0.066,0.03l0.051,0.023l0.051,0.023l0.063,0.029l0.055,0.024l0.057,0.026
	l0.055,0.025l0.06,0.027l0.055,0.025l0.068,0.03l0.04,0.018l0.078,0.035l0.04,0.018l0.087,0.039l0.025,0.011l0.108,0.048
	l0.059,0.026l0.059,0.026l0.055,0.025l0.054,0.024l0.062,0.027l0.055,0.024l0.059,0.026l0.052,0.023l0.061,0.027l0.057,0.025
	l0.057,0.026l0.051,0.022l0.064,0.029l0.045,0.02c0.121,0.054,0.242,0.107,0.363,0.161l0.04,0.018l0.067,0.03l0.048,0.021
	l0.061,0.027l0.055,0.024c0.018,0.008,0.046,0.021,0.064,0.028l0.049,0.021c0.022,0.01,0.04,0.018,0.063,0.028l0.05,0.022
	l0.068,0.03l0.04,0.018l0.073,0.032l0.033,0.014c0.086,0.038,0.172,0.075,0.258,0.113l0.046,0.02l0.056,0.025l0.063,0.027
	c0.018,0.008,0.039,0.017,0.057,0.025l0.053,0.023l0.065,0.028l0.052,0.022l0.064,0.028l0.048,0.021l0.065,0.028l0.055,0.024
	l0.062,0.027l0.048,0.021l0.068,0.03l0.052,0.023l0.061,0.026c0.041,0.018,0.074,0.032,0.115,0.049l0.026,0.011l0.087,0.037
	l0.052,0.023l0.064,0.028l0.057,0.024l0.059,0.026l0.055,0.024l0.064,0.027l0.054,0.023l0.061,0.026l0.055,0.024l0.06,0.026
	l0.059,0.025l0.059,0.025l0.055,0.023l0.07,0.03l0.049,0.021c0.041,0.017,0.07,0.03,0.111,0.048l0.068,0.029l0.047,0.02l0.066,0.028
	l0.052,0.022l0.068,0.029l0.044,0.019l0.072,0.03l0.046,0.02l0.07,0.03l0.046,0.019l0.068,0.029l0.053,0.023l0.065,0.027
	l0.046,0.019l0.071,0.03l0.04,0.017c0.051,0.021,0.102,0.043,0.153,0.064l0.034,0.014c0.023,0.01,0.047,0.02,0.07,0.029l0.046,0.02
	l0.065,0.027l0.055,0.023l0.059,0.025l0.061,0.026l0.053,0.022l0.064,0.026l0.061,0.025l0.055,0.023l0.062,0.026l0.056,0.023
	l0.063,0.026l0.06,0.025l0.057,0.023l0.059,0.025c0.038,0.015,0.077,0.032,0.115,0.048l0.061,0.025l0.046,0.019l0.074,0.031
	l0.042,0.018l0.081,0.034l0.045,0.019l0.066,0.027l0.062,0.026l0.058,0.024l0.061,0.025l0.058,0.024l0.059,0.024
	c0.021,0.008,0.044,0.018,0.064,0.026l0.057,0.023l0.058,0.024l0.061,0.025l0.066,0.027l0.091,0.037l0.078,0.032l0.049,0.02
	l0.068,0.028l0.061,0.024l0.057,0.023l0.067,0.027l0.053,0.022l0.061,0.025l0.059,0.024l0.063,0.025l0.059,0.024l0.058,0.024
	l0.061,0.024l0.064,0.026l0.058,0.023l0.057,0.023c0.027,0.01,0.055,0.022,0.081,0.033l0.105,0.042l0.05,0.021l0.077,0.031
	l0.039,0.016l0.074,0.03l0.05,0.021l0.067,0.027l0.051,0.021l0.071,0.029l0.049,0.02l0.07,0.028l0.049,0.02l0.069,0.028l0.055,0.022
	l0.066,0.026l0.041,0.016c0.09,0.036,0.176,0.07,0.266,0.106l0.046,0.019c0.024,0.009,0.048,0.019,0.071,0.028l0.051,0.02
	l0.063,0.025l0.06,0.024l0.058,0.023l0.071,0.028l0.045,0.018l0.076,0.03l0.051,0.021l0.07,0.028l0.051,0.02l0.073,0.029l0.051,0.02
	l0.093,0.037l0.027,0.011l0.085,0.033l0.097,0.038l0.062,0.025l0.049,0.019l0.074,0.029l0.049,0.019l0.076,0.03l0.051,0.02
	l0.064,0.025l0.063,0.024l0.065,0.025l0.053,0.021c0.027,0.011,0.051,0.02,0.077,0.03l0.044,0.017l0.088,0.034l0.036,0.014
	l0.087,0.034l0.046,0.018c0.037,0.015,0.077,0.03,0.115,0.045l0.025,0.01c0.032,0.013,0.066,0.026,0.099,0.038l0.039,0.015
	l0.085,0.033l0.044,0.017l0.075,0.029l0.057,0.022l0.067,0.026l0.053,0.02l0.072,0.028l0.054,0.021l0.072,0.027l0.05,0.02
	l0.073,0.028l0.053,0.021c0.081,0.031,0.165,0.063,0.246,0.094l0.034,0.013l0.09,0.035l0.048,0.018l0.074,0.028l0.051,0.02
	l0.081,0.031l0.04,0.015l0.083,0.032l0.044,0.017l0.087,0.034l0.036,0.014c0.027,0.01,0.064,0.025,0.092,0.035l0.035,0.013
	l0.105,0.04l0.02,0.007c0.087,0.033,0.167,0.064,0.255,0.097L78,273.583l0.099,0.037l0.045,0.017l0.081,0.031l0.045,0.017l0.08,0.03
	l0.048,0.018l0.081,0.031l0.044,0.016l0.075,0.028l0.06,0.023l0.063,0.023l0.059,0.022l0.087,0.033l0.038,0.014
	c0.082,0.031,0.165,0.062,0.247,0.093l0.055,0.021l0.074,0.027l0.054,0.02l0.069,0.026l0.056,0.021l0.076,0.028l0.051,0.019
	l0.068,0.025l0.064,0.024l0.064,0.024l0.059,0.021l0.076,0.028l0.048,0.018l0.082,0.03l0.048,0.018l0.12,0.044l0.07,0.026
	l0.055,0.02l0.064,0.024l0.063,0.023l0.072,0.026l0.049,0.018l0.077,0.028l0.048,0.017c0.029,0.011,0.051,0.019,0.081,0.03
	l0.044,0.016l0.074,0.027l0.061,0.022l0.067,0.025l0.062,0.022l0.062,0.022l0.066,0.024l0.088,0.032l0.1,0.036l0.027,0.01
	l0.096,0.035l0.059,0.021c0.023,0.008,0.046,0.017,0.068,0.025l0.066,0.024l0.056,0.02l0.069,0.025l0.064,0.023l0.064,0.023
	l0.059,0.021l0.068,0.024l0.062,0.022l0.068,0.024l0.054,0.02l0.071,0.025l0.061,0.022c0.055,0.02,0.109,0.039,0.163,0.059
	l0.022,0.008c0.031,0.011,0.055,0.02,0.085,0.031l0.042,0.015l0.077,0.028l0.051,0.018l0.08,0.029l0.046,0.016l0.073,0.026
	l0.059,0.021l0.069,0.024l0.063,0.023l0.058,0.021l0.073,0.026l0.061,0.022l0.073,0.026l0.051,0.018
	c0.034,0.012,0.061,0.021,0.094,0.034l0.068,0.024c0.033,0.012,0.061,0.022,0.095,0.034l0.056,0.02l0.067,0.024l0.063,0.022
	l0.072,0.025l0.052,0.018l0.077,0.027l0.05,0.018l0.082,0.029l0.053,0.019l0.066,0.024l0.068,0.023
	c0.022,0.008,0.038,0.014,0.061,0.021l0.066,0.023l0.074,0.026l0.052,0.019l0.096,0.034l0.096,0.033l0.063,0.022l0.068,0.024
	l0.063,0.022l0.055,0.019c0.028,0.01,0.052,0.018,0.08,0.028l0.052,0.018l0.074,0.026l0.062,0.021
	c0.023,0.008,0.043,0.015,0.065,0.023l0.066,0.023l0.068,0.023l0.056,0.02l0.08,0.028l0.053,0.019l0.072,0.025l0.058,0.021
	l0.055,0.019l0.128,0.045l0.076,0.026l0.051,0.017l0.076,0.026l0.063,0.021l0.069,0.024l0.064,0.022l0.064,0.022l0.064,0.022
	l0.072,0.025l0.06,0.021l0.065,0.022l0.068,0.023l0.063,0.021l0.067,0.023l0.066,0.022l0.064,0.022l0.048,0.016l0.157,0.053
	l0.05,0.017l0.077,0.026l0.053,0.018l0.074,0.025l0.057,0.02c0.026,0.008,0.052,0.018,0.078,0.026l0.049,0.017
	c0.026,0.008,0.052,0.018,0.077,0.026l0.057,0.02l0.072,0.024l0.066,0.022l0.062,0.021l0.064,0.022l0.074,0.025l0.027,0.009
	c0.062,0.021,0.126,0.043,0.188,0.063l0.036,0.012l0.059,0.02l0.077,0.026l0.064,0.022c0.023,0.007,0.036,0.012,0.059,0.02
	l0.076,0.025l0.061,0.02c0.025,0.009,0.042,0.014,0.068,0.023l0.063,0.021l0.064,0.021l0.071,0.024l0.067,0.022l0.048,0.016
	l0.088,0.029l0.033,0.011l0.096,0.032l0.023,0.007c0.063,0.021,0.127,0.042,0.189,0.063l0.042,0.014l0.077,0.026l0.053,0.018
	l0.08,0.026l0.053,0.018l0.069,0.023l0.066,0.022l0.07,0.023l0.06,0.02l0.072,0.023l0.058,0.019
	c0.026,0.009,0.052,0.018,0.079,0.026l0.053,0.018l0.074,0.024l0.063,0.021l0.073,0.024l0.041,0.014
	c0.047,0.015,0.1,0.033,0.147,0.048l0.068,0.022l0.058,0.019l0.081,0.026l0.057,0.019l0.07,0.023
	c0.026,0.008,0.047,0.015,0.073,0.024l0.063,0.02l0.07,0.023l0.059,0.019l0.075,0.024l0.063,0.021l0.071,0.023l0.059,0.019
	c0.021,0.007,0.051,0.017,0.073,0.023l0.074,0.024l0.058,0.019c0.047,0.015,0.085,0.028,0.132,0.043l0.014,0.005
	c0.042,0.013,0.079,0.025,0.12,0.038l0.044,0.014l0.09,0.029l0.053,0.017l0.084,0.027l0.05,0.016
	c0.023,0.007,0.058,0.018,0.081,0.026l0.063,0.02l0.075,0.024l0.053,0.017l0.088,0.028l0.049,0.016l0.104,0.033l0.026,0.008
	c0.042,0.013,0.076,0.024,0.117,0.037l0.023,0.007c0.089,0.028,0.182,0.058,0.271,0.086l0.048,0.015l0.089,0.028l0.059,0.019
	l0.07,0.022l0.07,0.022l0.069,0.022l0.063,0.02l0.076,0.024l0.057,0.018l0.083,0.026l0.055,0.017l0.071,0.022l0.067,0.021
	l0.077,0.024l0.057,0.018l0.133,0.042l0.049,0.016l0.084,0.026l0.067,0.021l0.067,0.021l0.068,0.021l0.074,0.023l0.053,0.017
	c0.024,0.007,0.063,0.019,0.086,0.027l0.056,0.017l0.077,0.024l0.062,0.019l0.069,0.021l0.071,0.022l0.064,0.02l0.069,0.021
	l0.063,0.02c0.054,0.017,0.096,0.03,0.149,0.046l0.055,0.017l0.074,0.022l0.059,0.019l0.073,0.022l0.069,0.021l0.063,0.02
	l0.071,0.022l0.068,0.021l0.071,0.022l0.064,0.02l0.074,0.022l0.063,0.019l0.085,0.026l0.049,0.015
	c0.03,0.009,0.064,0.019,0.094,0.029l0.046,0.014l0.121,0.037l0.016,0.005l0.136,0.041l0.06,0.018l0.076,0.023l0.072,0.022
	l0.061,0.019l0.081,0.024l0.055,0.017l0.078,0.023l0.059,0.018l0.082,0.025l0.049,0.015l0.087,0.026l0.046,0.014l0.092,0.028
	l0.036,0.011l0.097,0.029l0.02,0.006c0.081,0.024,0.158,0.047,0.239,0.072l0.005,0.001l0.091,0.027l0.047,0.014l0.079,0.024
	l0.061,0.018l0.079,0.024l0.053,0.016l0.081,0.024l0.064,0.019l0.067,0.02c0.024,0.007,0.055,0.016,0.079,0.023l0.058,0.017
	c0.03,0.009,0.056,0.017,0.087,0.026l0.053,0.016l0.075,0.022l0.068,0.02l0.035,0.01l0.165,0.049l0.068,0.02l0.071,0.021l0.068,0.02
	l0.072,0.021l0.065,0.019l0.076,0.022l0.066,0.02l0.069,0.02l0.072,0.021l0.068,0.02l0.07,0.021l0.07,0.021l0.059,0.017
	c0.027,0.008,0.057,0.017,0.085,0.025l0.051,0.015l0.081,0.024l0.102,0.03l0.09,0.027l0.085,0.025l0.057,0.017l0.08,0.023
	l0.058,0.017l0.092,0.027l0.043,0.012l0.093,0.027l0.057,0.017l0.078,0.023l0.067,0.02l0.068,0.02l0.071,0.02l0.079,0.023
	l0.059,0.017l0.084,0.024l0.058,0.017c0.049,0.014,0.086,0.025,0.135,0.039l0.053,0.016c0.025,0.007,0.062,0.018,0.087,0.025
	l0.071,0.021l0.066,0.019l0.073,0.021l0.069,0.02l0.071,0.021l0.07,0.02l0.069,0.02l0.068,0.02l0.08,0.023l0.054,0.015
	c0.028,0.008,0.055,0.016,0.083,0.024l0.064,0.018c0.027,0.008,0.048,0.013,0.075,0.021c0.044,0.012,0.09,0.025,0.133,0.038l0.002,0
	l0.138,0.039l0.064,0.018l0.081,0.023l0.059,0.017l0.079,0.023l0.064,0.018l0.079,0.022l0.071,0.02l0.062,0.018l0.08,0.022
	l0.064,0.018l0.076,0.021l0.072,0.02l0.063,0.018l0.089,0.025l0.056,0.016l0.092,0.026l0.077,0.021l0.109,0.031l0.055,0.015
	c0.031,0.008,0.058,0.016,0.089,0.025c0.023,0.006,0.04,0.011,0.062,0.017l0.08,0.022l0.063,0.018l0.078,0.022l0.068,0.019
	l0.08,0.022l0.055,0.015c0.031,0.009,0.063,0.018,0.094,0.026l0.053,0.015l0.092,0.025l0.049,0.014
	c0.031,0.009,0.063,0.018,0.094,0.026l0.054,0.015l0.28,0.077l0.063,0.017c0.025,0.007,0.055,0.015,0.08,0.022l0.074,0.02
	l0.065,0.018l0.075,0.021l0.074,0.02l0.068,0.019l0.071,0.019l0.074,0.02l0.069,0.019l0.077,0.021l0.06,0.017
	c0.023,0.006,0.057,0.016,0.08,0.022l0.068,0.019l0.077,0.021l0.03,0.008l0.175,0.048l0.072,0.02l0.069,0.019l0.074,0.02
	l0.079,0.021l0.062,0.017l0.077,0.021l0.068,0.019l0.073,0.02l0.077,0.021l0.059,0.016l0.089,0.024l0.062,0.017l0.085,0.023
	l0.056,0.015c0.038,0.01,0.08,0.021,0.118,0.032l0.025,0.007c0.094,0.025,0.191,0.051,0.286,0.076l0.064,0.017l0.089,0.024
	l0.048,0.013l0.094,0.025l0.054,0.014c0.031,0.008,0.067,0.018,0.099,0.026l0.045,0.012l0.096,0.025l0.055,0.015
	c0.032,0.008,0.066,0.018,0.098,0.026l0.045,0.012c0.038,0.01,0.079,0.021,0.117,0.031l0.027,0.007l0.147,0.039h0.001
	c0.05,0.014,0.097,0.026,0.148,0.039l0.035,0.009l0.112,0.03l0.042,0.011l0.105,0.027l0.051,0.013
	c0.032,0.008,0.065,0.017,0.096,0.025l0.047,0.012c0.038,0.01,0.063,0.016,0.101,0.026l0.05,0.013l0.102,0.027l0.041,0.011
	l0.104,0.027l0.048,0.013l0.111,0.029l0.033,0.009l0.122,0.031l0.029,0.008l0.147,0.038l0.028,0.007
	c0.038,0.01,0.074,0.02,0.113,0.029l0.06,0.016l0.092,0.023l0.053,0.014l0.09,0.023l0.059,0.015
	c0.032,0.008,0.063,0.016,0.095,0.024l0.051,0.013l0.089,0.023l0.063,0.016l0.087,0.022l0.06,0.015l0.083,0.021l0.065,0.017
	c0.032,0.008,0.082,0.021,0.114,0.029l0.038,0.01l0.139,0.035l0.04,0.01c0.032,0.008,0.075,0.019,0.107,0.027l0.05,0.012
	l0.096,0.024l0.063,0.016l0.083,0.021l0.062,0.016l0.086,0.021l0.065,0.017l0.086,0.022l0.057,0.015l0.087,0.022
	c0.023,0.006,0.044,0.011,0.066,0.017l0.09,0.023l0.052,0.013l0.148,0.037l0.005,0.001c0.051,0.013,0.096,0.024,0.148,0.037
	l0.023,0.006l0.118,0.03l0.057,0.014l0.096,0.024l0.053,0.013l0.091,0.023l0.061,0.015l0.092,0.023l0.057,0.014
	c0.026,0.006,0.054,0.013,0.08,0.02l0.076,0.019l0.072,0.018l0.073,0.018c0.032,0.008,0.07,0.017,0.102,0.025l0.041,0.01l0.15,0.037
	l0.029,0.007c0.039,0.009,0.078,0.019,0.117,0.029l0.064,0.016l0.087,0.021l0.058,0.014l0.09,0.022
	c0.017,0.005,0.048,0.012,0.065,0.016l0.083,0.02l0.064,0.016l0.084,0.021l0.067,0.017l0.093,0.023l0.048,0.012l0.109,0.027
	l0.045,0.011l0.119,0.029l0.029,0.007l0.148,0.036l0.044,0.01c0.039,0.01,0.07,0.017,0.109,0.026l0.057,0.014l0.085,0.02
	l0.076,0.019l0.075,0.018l0.076,0.018l0.068,0.017l0.079,0.019l0.078,0.019l0.07,0.017l0.075,0.018l0.074,0.018l0.089,0.021
	l0.058,0.014l0.118,0.028l0.031,0.007c0.052,0.013,0.098,0.024,0.151,0.036l0.028,0.007l0.122,0.029l0.048,0.011l0.102,0.024
	l0.049,0.012l0.101,0.024l0.059,0.014l0.092,0.022l0.055,0.013l0.103,0.024l0.048,0.011c0.033,0.008,0.076,0.018,0.109,0.026
	l0.042,0.01l0.104,0.025l0.053,0.012c0.046,0.011,0.094,0.022,0.14,0.033l0.007,0.002l0.153,0.036l0.031,0.007
	c0.04,0.009,0.083,0.019,0.122,0.029l0.05,0.012c0.033,0.008,0.061,0.015,0.094,0.022l0.067,0.016
	c0.033,0.007,0.055,0.013,0.088,0.021l0.062,0.014l0.089,0.021l0.06,0.014l0.098,0.023l0.054,0.013
	c0.033,0.007,0.069,0.016,0.102,0.024l0.049,0.011c0.039,0.009,0.091,0.021,0.131,0.031l0.018,0.004
	c0.105,0.025,0.202,0.047,0.308,0.072l0.049,0.011l0.1,0.023l0.066,0.015l0.088,0.02l0.059,0.014l0.094,0.021l0.062,0.014
	l0.09,0.021l0.062,0.014l0.087,0.02l0.069,0.016l0.088,0.02l0.06,0.014l0.096,0.022l0.059,0.014l0.148,0.034l0.025,0.006
	l0.122,0.028l0.07,0.016l0.087,0.02l0.061,0.014l0.089,0.02l0.068,0.015c0.033,0.007,0.055,0.012,0.089,0.02l0.06,0.014l0.096,0.021
	l0.056,0.013l0.105,0.024l0.048,0.011l0.101,0.023l0.057,0.013l0.105,0.024l0.046,0.01l0.152,0.034l0.033,0.007l0.119,0.027
	l0.053,0.012l0.103,0.023l0.052,0.012l0.103,0.023l0.051,0.011l0.102,0.023l0.059,0.013l0.096,0.021l0.057,0.013l0.098,0.021
	l0.059,0.013l0.098,0.022l0.055,0.012l0.101,0.022l0.056,0.012c0.053,0.012,0.1,0.022,0.154,0.034c0.001,0,0.002,0,0.003,0.001
	c0.053,0.012,0.096,0.021,0.15,0.033l0.039,0.008l0.117,0.026l0.046,0.01c0.033,0.007,0.07,0.016,0.104,0.023l0.06,0.013
	l0.096,0.021l0.059,0.013l0.096,0.021l0.059,0.013l0.094,0.021l0.065,0.014l0.081,0.018l0.073,0.016
	c0.034,0.007,0.072,0.016,0.106,0.023l0.046,0.01l0.154,0.034l0.035,0.008l0.116,0.025l0.063,0.014
	c0.034,0.007,0.057,0.012,0.09,0.02l0.074,0.016l0.081,0.018l0.07,0.015l0.084,0.018l0.079,0.017l0.068,0.015l0.085,0.018
	l0.073,0.016l0.08,0.017l0.09,0.02l0.059,0.012l0.126,0.027l0.031,0.007c0.055,0.011,0.098,0.021,0.152,0.032l0.066,0.014
	l0.085,0.018l0.068,0.015l0.093,0.02l0.063,0.013l0.087,0.018l0.073,0.016l0.087,0.019l0.064,0.013l0.09,0.019l0.067,0.014
	l0.094,0.02l0.061,0.013l0.096,0.02l0.059,0.013l0.309,0.065l0.063,0.013l0.09,0.019l0.07,0.015l0.087,0.018l0.072,0.015
	l0.087,0.018l0.064,0.013c0.027,0.006,0.063,0.013,0.09,0.019l0.076,0.016l0.078,0.016l0.072,0.015l0.087,0.018l0.072,0.015
	l0.098,0.02l0.054,0.011c0.035,0.007,0.063,0.013,0.096,0.02l0.139,0.029l0.074,0.015l0.077,0.016l0.077,0.016l0.075,0.015
	l0.086,0.018l0.075,0.015l0.074,0.015l0.083,0.017l0.081,0.017l0.071,0.015c0.035,0.007,0.053,0.01,0.087,0.018l0.07,0.014
	l0.094,0.019l0.063,0.013l0.102,0.021l0.054,0.011l0.156,0.032l0.025,0.005l0.133,0.027l0.053,0.011l0.102,0.021l0.07,0.014
	l0.083,0.017l0.081,0.016l0.081,0.016l0.068,0.014c0.027,0.005,0.065,0.013,0.092,0.019l0.068,0.013l0.093,0.019l0.062,0.012
	c0.035,0.007,0.063,0.013,0.097,0.02l0.064,0.013c0.041,0.008,0.081,0.016,0.123,0.025l0.031,0.006
	c0.055,0.011,0.102,0.021,0.157,0.031l0.052,0.01l0.107,0.021l0.071,0.014l0.08,0.016l0.08,0.016
	c0.028,0.005,0.057,0.011,0.085,0.017l0.068,0.013l0.09,0.018l0.066,0.013l0.101,0.02l0.055,0.011l0.105,0.021l0.056,0.011
	l0.104,0.02l0.059,0.012c0.035,0.007,0.069,0.013,0.104,0.02l0.054,0.01c0.055,0.011,0.1,0.02,0.156,0.031l0.051,0.01
	c0.035,0.007,0.071,0.014,0.105,0.021l0.07,0.014l0.09,0.018l0.067,0.013c0.035,0.007,0.057,0.011,0.091,0.018l0.072,0.014
	l0.089,0.017l0.066,0.013l0.094,0.018l0.07,0.014l0.092,0.018l0.063,0.012l0.104,0.02l0.058,0.011c0.105,0.02,0.208,0.04,0.313,0.06
	l0.062,0.012l0.105,0.02l0.048,0.009l0.11,0.021l0.056,0.011l0.108,0.021l0.057,0.011c0.028,0.006,0.066,0.013,0.094,0.018
	l0.072,0.014l0.089,0.017l0.072,0.014l0.084,0.016l0.076,0.014l0.09,0.017l0.069,0.013l0.077,0.014
	c0.056,0.011,0.115,0.021,0.171,0.032l0.063,0.012l0.076,0.014l0.086,0.016l0.079,0.015l0.079,0.015l0.077,0.015l0.084,0.016
	l0.077,0.014l0.085,0.016l0.071,0.013l0.09,0.017l0.076,0.014l0.087,0.016l0.069,0.013l0.1,0.019l0.063,0.012
	c0.105,0.019,0.211,0.039,0.316,0.058l0.059,0.011l0.104,0.019l0.061,0.011l0.097,0.018l0.066,0.012l0.101,0.019l0.059,0.011
	l0.104,0.019l0.057,0.011l0.108,0.02l0.056,0.01l0.104,0.019l0.059,0.011c0.042,0.008,0.089,0.016,0.132,0.024l0.027,0.005
	l0.165,0.03l0.02,0.004l0.14,0.025l0.053,0.009l0.109,0.02l0.062,0.011c0.036,0.006,0.065,0.012,0.1,0.018l0.063,0.011l0.1,0.018
	l0.064,0.011l0.104,0.019l0.055,0.01l0.106,0.019l0.063,0.011l0.106,0.019l0.052,0.009c0.043,0.007,0.08,0.014,0.122,0.022
	l0.043,0.007l0.163,0.029l0.02,0.004l0.137,0.024l0.065,0.011l0.1,0.018l0.064,0.011l0.098,0.017l0.064,0.011l0.103,0.018
	l0.065,0.011c0.028,0.005,0.057,0.01,0.085,0.015l0.086,0.015l0.075,0.013l0.083,0.015l0.098,0.017l0.059,0.01
	c0.05,0.008,0.09,0.016,0.139,0.024l0.024,0.004c0.057,0.01,0.109,0.019,0.165,0.029l0.025,0.005
	c0.05,0.008,0.091,0.016,0.141,0.024l0.033,0.006c0.043,0.007,0.087,0.015,0.13,0.022l0.051,0.009
	c0.036,0.006,0.074,0.013,0.109,0.019l0.061,0.01l0.098,0.017l0.072,0.013l0.096,0.016l0.062,0.011l0.111,0.019l0.054,0.009
	c0.043,0.007,0.09,0.016,0.133,0.023l0.028,0.005c0.114,0.02,0.221,0.038,0.335,0.057l0.021,0.003
	c0.043,0.007,0.096,0.017,0.139,0.024l0.057,0.01l0.107,0.018l0.064,0.011c0.036,0.006,0.062,0.01,0.098,0.016l0.068,0.011
	l0.105,0.018l0.053,0.009l0.118,0.02l0.044,0.007l0.14,0.023l0.023,0.004c0.172,0.029,0.337,0.057,0.509,0.085l0.008,0.001
	l0.155,0.026l0.041,0.007l0.117,0.02l0.068,0.011l0.097,0.016l0.066,0.011l0.1,0.017l0.065,0.011
	c0.036,0.006,0.072,0.012,0.108,0.018l0.053,0.008l0.117,0.019l0.053,0.009l0.118,0.019l0.047,0.008
	c0.058,0.009,0.107,0.018,0.164,0.027l0.029,0.005l0.137,0.022l0.061,0.01l0.099,0.016l0.076,0.012l0.093,0.015l0.068,0.011
	l0.102,0.017l0.06,0.009c0.043,0.007,0.07,0.011,0.113,0.018l0.055,0.009c0.036,0.006,0.068,0.011,0.104,0.017l0.066,0.011
	c0.036,0.006,0.074,0.012,0.11,0.018l0.054,0.008c0.043,0.007,0.1,0.016,0.143,0.023l0.021,0.003
	c0.057,0.009,0.111,0.018,0.169,0.027l0.031,0.005c0.043,0.007,0.089,0.014,0.132,0.021l0.066,0.01l0.102,0.016l0.058,0.009
	c0.036,0.006,0.077,0.012,0.114,0.018l0.052,0.008l0.117,0.019l0.053,0.008l0.107,0.017l0.066,0.01
	c0.036,0.006,0.078,0.012,0.114,0.018l0.046,0.007c0.036,0.006,0.089,0.014,0.125,0.02l0.046,0.007
	c0.116,0.018,0.219,0.034,0.335,0.052l0.022,0.004c0.051,0.008,0.102,0.016,0.152,0.024l0.016,0.002l0.146,0.023l0.047,0.007
	l0.126,0.02l0.039,0.006c0.044,0.007,0.081,0.012,0.125,0.019l0.052,0.008c0.044,0.007,0.077,0.012,0.12,0.019l0.047,0.007
	l0.126,0.02l0.042,0.007l0.143,0.022l0.025,0.004l0.344,0.053l0.007,0.001c0.059,0.009,0.1,0.015,0.158,0.024l0.049,0.007
	l0.118,0.018l0.057,0.009l0.108,0.016l0.07,0.011l0.097,0.015l0.066,0.01c0.036,0.005,0.07,0.01,0.106,0.016l0.064,0.01l0.113,0.017
	l0.051,0.007l0.113,0.017l0.063,0.009c0.11,0.017,0.219,0.033,0.329,0.049l0.055,0.008l0.118,0.018l0.05,0.007l0.113,0.017
	l0.068,0.01c0.037,0.005,0.067,0.01,0.104,0.015l0.061,0.009l0.111,0.016l0.056,0.008c0.036,0.005,0.08,0.012,0.117,0.017
	l0.057,0.008l0.102,0.015l0.069,0.01l0.139,0.021l0.022,0.003c0.118,0.017,0.228,0.033,0.345,0.05l0.029,0.004
	c0.044,0.006,0.097,0.014,0.141,0.021l0.046,0.007c0.036,0.006,0.088,0.013,0.124,0.018l0.044,0.006
	c0.044,0.007,0.086,0.013,0.13,0.019l0.044,0.007c0.044,0.006,0.083,0.012,0.127,0.018l0.046,0.007
	c0.037,0.005,0.077,0.011,0.113,0.016l0.067,0.009l0.111,0.016l0.053,0.007c0.044,0.007,0.08,0.012,0.124,0.018l0.049,0.007
	c0.111,0.016,0.223,0.032,0.333,0.048l0.063,0.009l0.113,0.016l0.059,0.008c0.037,0.006,0.067,0.01,0.104,0.015l0.075,0.01
	l0.094,0.013l0.083,0.012l0.078,0.011l0.089,0.012l0.091,0.013l0.074,0.01l0.096,0.013l0.074,0.01
	c0.03,0.004,0.076,0.011,0.105,0.015l0.064,0.009l0.167,0.023l0.059,0.008l0.105,0.015l0.083,0.011l0.087,0.012l0.087,0.012
	l0.081,0.011l0.084,0.012l0.085,0.012l0.092,0.013l0.076,0.01l0.087,0.012l0.089,0.012l0.081,0.011
	c0.037,0.005,0.065,0.009,0.102,0.014l0.063,0.008l0.117,0.016l0.057,0.007l0.167,0.023l0.051,0.007
	c0.038,0.005,0.079,0.011,0.117,0.016l0.066,0.009l0.109,0.015l0.067,0.009c0.03,0.004,0.067,0.009,0.096,0.013l0.079,0.01
	c0.03,0.004,0.07,0.009,0.1,0.013l0.068,0.009c0.037,0.005,0.069,0.009,0.106,0.014l0.061,0.008
	c0.037,0.005,0.085,0.011,0.122,0.016l0.051,0.007c0.037,0.005,0.077,0.01,0.114,0.015l0.061,0.008l0.131,0.017l0.04,0.006
	c0.059,0.008,0.109,0.014,0.169,0.022l0.057,0.007l0.114,0.015l0.071,0.009l0.096,0.013l0.081,0.011l0.096,0.012l0.065,0.008
	c0.03,0.004,0.079,0.011,0.109,0.015l0.068,0.009l0.102,0.013l0.068,0.009l0.104,0.014l0.072,0.009
	c0.045,0.006,0.085,0.011,0.13,0.017l0.035,0.005c0.12,0.016,0.229,0.03,0.348,0.045l0.052,0.007
	c0.038,0.005,0.079,0.01,0.117,0.015l0.063,0.008c0.038,0.005,0.079,0.01,0.117,0.015l0.055,0.007l0.113,0.015l0.067,0.008
	l0.109,0.014l0.064,0.008c0.038,0.005,0.068,0.008,0.105,0.013l0.07,0.009c0.038,0.005,0.071,0.009,0.109,0.014l0.064,0.008
	l0.119,0.015l0.052,0.007c0.061,0.007,0.113,0.014,0.173,0.022l0.005,0.001l0.168,0.021l0.051,0.007
	c0.038,0.005,0.081,0.01,0.119,0.015l0.066,0.008l0.108,0.014l0.067,0.008l0.108,0.014l0.063,0.008l0.114,0.014l0.062,0.008
	c0.046,0.006,0.077,0.009,0.122,0.015l0.045,0.006l0.142,0.017l0.034,0.004c0.12,0.015,0.232,0.029,0.354,0.044l0.01,0.001
	c0.061,0.007,0.104,0.013,0.164,0.02l0.044,0.006l0.13,0.016l0.051,0.007l0.127,0.015l0.05,0.006l0.121,0.015l0.059,0.007
	l0.118,0.014l0.057,0.007l0.12,0.015l0.054,0.007l0.128,0.015l0.049,0.006c0.045,0.006,0.085,0.01,0.131,0.016l0.044,0.006
	c0.061,0.007,0.114,0.013,0.174,0.021l0.021,0.002c0.053,0.006,0.103,0.012,0.156,0.019l0.037,0.005
	c0.046,0.006,0.093,0.011,0.139,0.016l0.046,0.006l0.126,0.015l0.063,0.007l0.116,0.014l0.053,0.006
	c0.046,0.005,0.085,0.01,0.131,0.015l0.046,0.005c0.046,0.006,0.087,0.01,0.133,0.016l0.044,0.005l0.123,0.014l0.059,0.007
	c0.114,0.013,0.233,0.027,0.347,0.04l0.044,0.005c0.038,0.004,0.091,0.01,0.13,0.015l0.07,0.008l0.104,0.012l0.07,0.008l0.109,0.013
	l0.068,0.008l0.102,0.012l0.079,0.009c0.031,0.004,0.06,0.007,0.09,0.01l0.088,0.01l0.081,0.009l0.092,0.01l0.087,0.01l0.089,0.01
	l0.113,0.013l0.057,0.007l0.175,0.02l0.035,0.004c0.053,0.006,0.089,0.01,0.143,0.016l0.048,0.005
	c0.038,0.005,0.087,0.01,0.126,0.014l0.062,0.007l0.113,0.013l0.068,0.007l0.105,0.012l0.073,0.008l0.102,0.011l0.077,0.008
	l0.1,0.011l0.072,0.008l0.119,0.013l0.055,0.006l0.348,0.038l0.068,0.007c0.038,0.004,0.072,0.008,0.11,0.012l0.071,0.008
	l0.104,0.011l0.072,0.008l0.107,0.012l0.073,0.008l0.096,0.01c0.027,0.003,0.056,0.006,0.083,0.009l0.102,0.011l0.07,0.007
	l0.117,0.012l0.058,0.006l0.15,0.016l0.025,0.003c0.123,0.013,0.238,0.025,0.361,0.038l0.027,0.003l0.15,0.016l0.05,0.005
	c0.038,0.004,0.085,0.009,0.124,0.013l0.066,0.007c0.031,0.003,0.077,0.008,0.107,0.011l0.074,0.008l0.116,0.012l0.051,0.006
	l0.128,0.013l0.057,0.006l0.13,0.013l0.044,0.005l0.133,0.014l0.05,0.005l0.356,0.036l0.035,0.004l0.148,0.015l0.038,0.004
	c0.046,0.005,0.088,0.009,0.134,0.014l0.06,0.006l0.125,0.013l0.052,0.006l0.12,0.012l0.064,0.007l0.122,0.012l0.053,0.006
	l0.129,0.013l0.051,0.005c0.055,0.006,0.105,0.011,0.159,0.016l0.018,0.002l0.18,0.018l0.039,0.004
	c0.055,0.006,0.087,0.009,0.141,0.014l0.048,0.005l0.13,0.013l0.064,0.007c0.039,0.004,0.076,0.007,0.115,0.011l0.064,0.007
	l0.114,0.011l0.07,0.007c0.031,0.003,0.08,0.008,0.111,0.011l0.064,0.006l0.113,0.011l0.072,0.007l0.105,0.01l0.072,0.007
	l0.13,0.012l0.047,0.005c0.063,0.006,0.12,0.012,0.182,0.018l0.01,0.001l0.158,0.015l0.085,0.008
	c0.031,0.003,0.067,0.006,0.098,0.009l0.077,0.007l0.099,0.009l0.077,0.007l0.111,0.01l0.065,0.006
	c0.039,0.004,0.071,0.007,0.11,0.01l0.074,0.007l0.108,0.01l0.07,0.007c0.038,0.004,0.081,0.008,0.12,0.011l0.057,0.006
	c0.124,0.012,0.229,0.021,0.354,0.033l0.079,0.007l0.101,0.009l0.072,0.007c0.039,0.004,0.069,0.007,0.108,0.01l0.076,0.007
	l0.104,0.009l0.076,0.007l0.098,0.009l0.087,0.008l0.098,0.009l0.073,0.007l0.106,0.01l0.081,0.007l0.089,0.008l0.088,0.008
	l0.085,0.007c0.057,0.005,0.124,0.011,0.18,0.016l0.086,0.008l0.087,0.008l0.089,0.008l0.087,0.008l0.097,0.008l0.081,0.007
	l0.094,0.008l0.084,0.007l0.101,0.009l0.081,0.007l0.092,0.008l0.087,0.007l0.107,0.009l0.068,0.006l0.12,0.01l0.061,0.005
	l0.36,0.032l0.049,0.004c0.039,0.004,0.095,0.008,0.134,0.012l0.055,0.005c0.039,0.004,0.083,0.007,0.122,0.011l0.071,0.006
	c0.04,0.003,0.071,0.006,0.11,0.009l0.072,0.006c0.031,0.003,0.079,0.007,0.111,0.009l0.071,0.006l0.116,0.01l0.064,0.006
	l0.108,0.009l0.08,0.007l0.117,0.01l0.059,0.005c0.063,0.005,0.119,0.01,0.182,0.015l0.019,0.002l0.165,0.014l0.053,0.004
	l0.121,0.01l0.075,0.006l0.111,0.009l0.071,0.006l0.109,0.009l0.069,0.006l0.122,0.01l0.06,0.005l0.117,0.009l0.068,0.006
	l0.139,0.011l0.037,0.003c0.182,0.015,0.368,0.03,0.551,0.044l0.064,0.005l0.117,0.009l0.066,0.005l0.119,0.009l0.07,0.006
	l0.109,0.009l0.074,0.006l0.103,0.008l0.089,0.007c0.023,0.002,0.069,0.006,0.093,0.007l0.081,0.007l0.113,0.009l0.072,0.006
	c0.048,0.004,0.093,0.007,0.141,0.011l0.038,0.003c0.055,0.004,0.12,0.009,0.176,0.014l0.076,0.006l0.114,0.008l0.066,0.005
	l0.109,0.008l0.081,0.006l0.107,0.008l0.076,0.006l0.103,0.008l0.079,0.006l0.112,0.008l0.07,0.005
	c0.04,0.003,0.076,0.006,0.115,0.009l0.065,0.005l0.126,0.009l0.061,0.005c0.064,0.005,0.111,0.008,0.174,0.013l0.005,0l0.182,0.014
	l0.059,0.004l0.126,0.009l0.071,0.005l0.109,0.008l0.077,0.006c0.032,0.003,0.073,0.006,0.105,0.008l0.085,0.006
	c0.032,0.002,0.064,0.005,0.096,0.007l0.082,0.006l0.105,0.007l0.079,0.006l0.111,0.008l0.068,0.005l0.128,0.009l0.057,0.004
	l0.367,0.026l0.046,0.003l0.142,0.01l0.053,0.004c0.04,0.003,0.084,0.006,0.124,0.009l0.076,0.006l0.107,0.007l0.081,0.006
	c0.032,0.002,0.069,0.005,0.101,0.007l0.081,0.006l0.109,0.008l0.075,0.005l0.107,0.007l0.077,0.006l0.126,0.008l0.055,0.004
	c0.128,0.009,0.24,0.016,0.369,0.025l0.061,0.004c0.04,0.003,0.077,0.005,0.118,0.008l0.083,0.006l0.102,0.007l0.076,0.005
	c0.04,0.003,0.074,0.005,0.115,0.008l0.07,0.005l0.117,0.008l0.066,0.004l0.121,0.008l0.068,0.004l0.137,0.009l0.041,0.003
	c0.057,0.004,0.11,0.007,0.167,0.011l0.022,0.001c0.12,0.008,0.248,0.016,0.368,0.024l0.069,0.005l0.12,0.008l0.064,0.004
	l0.121,0.008l0.066,0.004c0.04,0.003,0.079,0.005,0.12,0.007l0.07,0.005l0.117,0.007l0.065,0.004l0.132,0.008l0.054,0.003
	l0.136,0.008l0.051,0.003l0.164,0.01l0.022,0.001c0.064,0.004,0.123,0.008,0.188,0.012l0.036,0.002l0.152,0.009l0.047,0.003
	l0.141,0.008l0.055,0.004c0.04,0.002,0.09,0.005,0.13,0.008l0.059,0.004l0.132,0.008l0.058,0.004l0.132,0.008l0.053,0.003
	l0.139,0.008l0.051,0.003l0.159,0.009l0.024,0.002c0.057,0.003,0.12,0.007,0.176,0.01l0.016,0.001
	c0.13,0.008,0.247,0.015,0.376,0.022l0.046,0.003c0.049,0.003,0.095,0.006,0.144,0.008l0.051,0.003
	c0.049,0.003,0.082,0.005,0.13,0.007l0.068,0.004l0.115,0.007l0.079,0.004l0.104,0.006l0.08,0.004
	c0.041,0.003,0.068,0.004,0.109,0.006l0.082,0.005c0.033,0.002,0.071,0.004,0.104,0.006l0.079,0.005l0.377,0.021l0.015,0.001
	l0.169,0.009l0.059,0.003l0.123,0.007l0.075,0.004l0.118,0.007l0.061,0.003l0.129,0.007l0.063,0.004l0.131,0.007l0.054,0.003
	l0.129,0.007l0.066,0.004c0.188,0.01,0.378,0.02,0.566,0.03l0.031,0.002l0.15,0.008l0.064,0.003c0.041,0.002,0.09,0.005,0.13,0.007
	l0.054,0.003l0.133,0.007l0.061,0.003c0.049,0.003,0.081,0.004,0.13,0.007l0.062,0.003l0.123,0.006l0.067,0.003
	c0.041,0.002,0.096,0.005,0.136,0.007l0.05,0.003l0.148,0.007l0.042,0.002c0.131,0.007,0.246,0.012,0.378,0.019l0.059,0.003
	l0.126,0.006l0.073,0.003c0.041,0.002,0.074,0.004,0.115,0.006l0.076,0.004l0.117,0.006l0.069,0.003l0.116,0.006l0.081,0.004
	l0.111,0.006l0.072,0.003c0.041,0.002,0.081,0.004,0.122,0.006l0.07,0.003l0.137,0.007l0.049,0.002l0.178,0.008l0.081,0.004
	c0.033,0.001,0.085,0.004,0.117,0.005l0.076,0.004l0.108,0.005l0.083,0.004c0.041,0.002,0.069,0.003,0.11,0.005l0.081,0.004
	l0.1,0.004l0.091,0.004l0.102,0.005l0.084,0.004l0.108,0.005l0.079,0.003c0.041,0.002,0.076,0.004,0.117,0.005l0.072,0.003
	l0.124,0.005l0.066,0.003c0.066,0.003,0.12,0.005,0.186,0.008l0.042,0.002l0.148,0.006l0.062,0.003l0.125,0.006l0.074,0.003
	c0.041,0.002,0.073,0.003,0.114,0.005l0.082,0.003l0.11,0.005l0.074,0.003l0.12,0.005l0.07,0.003l0.126,0.005l0.062,0.003
	l0.151,0.006l0.036,0.001c0.199,0.008,0.38,0.015,0.579,0.023l0.051,0.002l0.132,0.005l0.072,0.003l0.128,0.005l0.058,0.002
	l0.13,0.005l0.065,0.003l0.137,0.005l0.049,0.002l0.151,0.006l0.041,0.002l0.165,0.006l0.029,0.001
	c0.132,0.005,0.254,0.009,0.386,0.014l0.042,0.002l0.15,0.006l0.055,0.002l0.142,0.005l0.048,0.002l0.141,0.005l0.059,0.002
	l0.139,0.005l0.049,0.002l0.145,0.005l0.053,0.002c0.042,0.001,0.099,0.003,0.141,0.005l0.053,0.002
	c0.049,0.002,0.106,0.004,0.156,0.006l0.035,0.001l0.382,0.013l0.071,0.002c0.042,0.001,0.081,0.003,0.122,0.004l0.068,0.002
	c0.042,0.002,0.083,0.003,0.125,0.004l0.069,0.002l0.124,0.004l0.069,0.002l0.12,0.004l0.075,0.002l0.122,0.004l0.067,0.002
	l0.135,0.004l0.055,0.002c0.067,0.002,0.109,0.003,0.176,0.006l0.014,0c0.066,0.002,0.131,0.004,0.198,0.006h0.007
	c0.066,0.002,0.12,0.004,0.188,0.006l0.029,0.001c0.059,0.002,0.107,0.003,0.166,0.005l0.042,0.001
	c0.05,0.001,0.096,0.003,0.146,0.004l0.059,0.002l0.129,0.004l0.075,0.002l0.115,0.003l0.076,0.002l0.124,0.003l0.067,0.002
	c0.042,0.001,0.099,0.003,0.141,0.004l0.05,0.002l0.157,0.004l0.038,0.001l0.195,0.006l0.01,0c0.066,0.002,0.115,0.003,0.182,0.005
	l0.051,0.001l0.14,0.004l0.071,0.002c0.042,0.001,0.075,0.002,0.117,0.003l0.08,0.002c0.042,0.001,0.076,0.002,0.118,0.003
	l0.072,0.002l0.118,0.003l0.079,0.002c0.042,0.001,0.068,0.002,0.11,0.003l0.085,0.002c0.042,0.001,0.075,0.002,0.117,0.003
	l0.071,0.002l0.142,0.004l0.053,0.001l0.187,0.005l0.073,0.002c0.033,0.001,0.087,0.002,0.121,0.003l0.074,0.002
	c0.042,0.001,0.075,0.002,0.117,0.003c0.03,0.001,0.062,0.001,0.092,0.002l0.094,0.002c0.038,0.001,0.06,0.002,0.098,0.002
	l0.095,0.002l0.1,0.002l0.09,0.002l0.096,0.002l0.102,0.002l0.092,0.002c0.034,0.001,0.072,0.002,0.105,0.002l0.085,0.002
	l0.136,0.003l0.056,0.001l0.191,0.004l0.055,0.001l0.135,0.003l0.068,0.001l0.132,0.003l0.062,0.001
	c0.042,0.001,0.09,0.002,0.133,0.003l0.06,0.001l0.14,0.003l0.061,0.001l0.126,0.003l0.071,0.001
	c0.042,0.001,0.094,0.002,0.136,0.003l0.057,0.001l0.168,0.003l0.023,0c0.135,0.003,0.262,0.005,0.398,0.007l0.032,0
	c0.059,0.001,0.104,0.002,0.163,0.003l0.048,0.001l0.145,0.003l0.068,0.001c0.042,0.001,0.079,0.001,0.12,0.002
	c0.023,0,0.055,0.001,0.078,0.001c0.034,0,0.081,0.001,0.115,0.002l0.084,0.001l0.114,0.002l0.075,0.001l0.128,0.002l0.069,0.001
	c0.051,0.001,0.111,0.002,0.161,0.003l0.027,0l0.199,0.003l0.021,0l0.177,0.003l0.046,0.001l0.145,0.002l0.07,0.001l0.126,0.002
	l0.079,0.001l0.108,0.002l0.089,0.001l0.113,0.001l0.078,0.001c0.042,0,0.077,0.001,0.12,0.002l0.074,0.001
	c0.042,0,0.088,0.001,0.13,0.002l0.066,0.001l0.15,0.002l0.044,0.001c0.068,0.001,0.13,0.002,0.198,0.002l0.012,0l0.18,0.002
	l0.083,0.001l0.105,0.001l0.098,0.001l0.098,0.001l0.098,0.001l0.097,0.001l0.091,0.001l0.108,0.001
	c0.023,0,0.064,0.001,0.087,0.001l0.117,0.001l0.073,0.001c0.043,0.001,0.085,0.001,0.127,0.001l0.074,0.001l0.122,0.001
	l0.072,0.001c0.068,0.001,0.123,0.001,0.191,0.002l0.055,0.001l0.141,0.001l0.079,0.001l0.109,0.001l0.096,0.001l0.102,0.001
	l0.091,0.001c0.034,0,0.07,0.001,0.105,0.001l0.085,0.001l0.116,0.001l0.085,0.001l0.1,0.001l0.096,0.001l0.12,0.001l0.069,0
	l0.174,0.001l0.021,0l0.198,0.001l0.052,0l0.139,0.001l0.09,0c0.034,0,0.071,0.001,0.105,0.001l0.083,0
	c0.043,0,0.076,0.001,0.118,0.001l0.08,0c0.034,0,0.081,0.001,0.115,0.001l0.082,0l0.111,0.001l0.09,0l0.113,0l0.077,0
	c0.043,0,0.085,0,0.128,0l0.072,0c0.06,0,0.13,0.001,0.19,0.001h0.002l0.194,0.001l0.073,0c0.043,0,0.087,0,0.13,0h0.064l0.131,0
	h0.076c0.043,0,0.081,0,0.124,0h0.076c0.035,0,0.083,0,0.118,0h0.081c0.043,0,0.079,0,0.122,0h0.195l0.079,0L234.67,298.672
	L234.67,298.672z"/>
<ellipse style="fill:#5628B4;" cx="234.67" cy="170.672" rx="128" ry="42.667"/>
<path style="fill:#3A0499;" d="M338.82,149.693c-4.574-0.006-9.031,1.449-12.72,4.153l-0.163,0.12
	c-9.511,6.998-11.643,20.334-4.788,29.949c6.65,9.331,19.54,11.633,29.008,5.179c0.21-0.146,0.417-0.292,0.622-0.439l0.003-0.002
	c0.038-0.027,0.075-0.054,0.112-0.081l0.02-0.014l0.015-0.011c0.199-0.144,0.394-0.286,0.588-0.43l0.014-0.01
	c0.322-0.239,0.637-0.479,0.945-0.72c8.892-7.108,10.51-20.004,3.649-29.088C352.033,152.865,345.621,149.676,338.82,149.693
	L338.82,149.693z M234.67,128.005h-0.277l-0.078,0h-0.161c-0.039,0-0.074,0-0.113,0h-0.151l-0.085,0h-0.036l-0.069,0h-0.055
	l-0.078,0h-0.035l-0.112,0l-0.043,0h-0.073l-0.043,0l-0.076,0h-0.045l-0.23,0.001h-0.016l-0.102,0.001h-0.036l-0.072,0.001h-0.054
	l-0.073,0.001h-0.04l-0.102,0.001h-0.012c-0.039,0-0.08,0.001-0.119,0.001l-0.022,0c-0.031,0-0.063,0-0.094,0.001h-0.037
	l-0.085,0.001l-0.029,0c-0.034,0-0.062,0-0.096,0.001h-0.024l-0.233,0.002h-0.037l-0.086,0.001l-0.031,0l-0.104,0.001h-0.008
	c-0.083,0.001-0.162,0.001-0.246,0.002h-0.014l-0.1,0.001l-0.034,0l-0.084,0.001l-0.039,0l-0.085,0.001l-0.03,0l-0.089,0.001
	l-0.067,0.001l-0.074,0.001l-0.053,0.001l-0.059,0.001l-0.059,0.001l-0.057,0.001l-0.058,0.001l-0.063,0.001l-0.049,0.001
	c-0.036,0-0.072,0.001-0.108,0.001l-0.049,0l-0.067,0.001l-0.051,0.001l-0.068,0.001l-0.042,0.001l-0.081,0.001l-0.038,0.001
	l-0.229,0.003l-0.035,0l-0.085,0.001l-0.037,0.001l-0.07,0.001l-0.051,0.001l-0.087,0.001l-0.024,0
	c-0.039,0-0.079,0.001-0.118,0.002l-0.021,0l-0.085,0.001l-0.058,0.001l-0.058,0.001l-0.059,0.001l-0.061,0.001l-0.046,0.001
	l-0.083,0.001l-0.042,0.001l-0.104,0.002l-0.033,0l-0.087,0.002l-0.029,0c-0.034,0.001-0.067,0.001-0.101,0.002l-0.015,0
	c-0.034,0.001-0.065,0.001-0.099,0.002l-0.026,0.001l-0.113,0.002l-0.035,0.001l-0.08,0.001l-0.053,0.001l-0.057,0.001l-0.054,0.001
	l-0.066,0.001l-0.049,0.001l-0.09,0.002l-0.019,0l-0.109,0.002l-0.069,0.001l-0.042,0.001l-0.069,0.002l-0.044,0.001l-0.064,0.001
	l-0.05,0.001l-0.248,0.005l-0.029,0.001l-0.056,0.001l-0.066,0.002l-0.048,0.001l-0.066,0.001l-0.049,0.001l-0.065,0.002
	l-0.052,0.001c-0.036,0.001-0.072,0.002-0.108,0.002l-0.042,0.001l-0.066,0.002l-0.055,0.001l-0.066,0.001l-0.048,0.001
	l-0.066,0.001l-0.048,0.001l-0.088,0.002l-0.043,0.001l-0.093,0.002l-0.046,0.001l-0.07,0.002l-0.04,0.001l-0.08,0.002l-0.04,0.001
	l-0.083,0.002l-0.03,0.001l-0.117,0.003l-0.009,0c-0.036,0.001-0.072,0.002-0.108,0.003l-0.031,0.001l-0.076,0.002l-0.049,0.001
	l-0.073,0.002l-0.04,0.001l-0.105,0.003h-0.007l-0.117,0.003l-0.027,0.001l-0.084,0.002l-0.046,0.001l-0.074,0.002l-0.035,0.001
	l-0.085,0.002l-0.037,0.001l-0.108,0.003l-0.038,0.001l-0.072,0.002l-0.048,0.001l-0.078,0.002l-0.031,0.001
	c-0.031,0.001-0.063,0.002-0.094,0.003l-0.021,0.001l-0.112,0.003h-0.006l-0.119,0.004l-0.02,0.001l-0.093,0.003l-0.035,0.001
	l-0.08,0.002l-0.042,0.001l-0.079,0.002l-0.033,0.001l-0.086,0.003l-0.068,0.002l-0.072,0.002l-0.046,0.001l-0.068,0.002
	l-0.041,0.001l-0.081,0.003l-0.038,0.001l-0.078,0.002l-0.035,0.001l-0.111,0.004l-0.026,0.001
	c-0.031,0.001-0.064,0.002-0.094,0.003l-0.025,0.001l-0.096,0.003l-0.02,0.001l-0.105,0.004l-0.014,0
	c-0.079,0.003-0.159,0.006-0.238,0.008l-0.014,0.001c-0.036,0.001-0.069,0.002-0.105,0.004l-0.02,0.001l-0.094,0.003l-0.026,0.001
	l-0.113,0.004c-0.079,0.003-0.156,0.006-0.235,0.008l-0.029,0.001l-0.086,0.003l-0.036,0.001l-0.094,0.004l-0.014,0l-0.24,0.009
	l-0.01,0c-0.033,0.001-0.063,0.003-0.096,0.004l-0.039,0.002l-0.085,0.003l-0.028,0.001l-0.096,0.004l-0.019,0.001l-0.117,0.005
	l-0.017,0.001l-0.092,0.004l-0.049,0.002l-0.064,0.003l-0.044,0.002l-0.072,0.003l-0.048,0.002l-0.084,0.003l-0.023,0.001
	l-0.11,0.005l-0.04,0.002l-0.077,0.003l-0.046,0.002l-0.057,0.002l-0.061,0.002l-0.052,0.002l-0.061,0.003l-0.036,0.001
	l-0.145,0.006l-0.026,0.001l-0.063,0.003l-0.055,0.002l-0.051,0.002l-0.07,0.003l-0.038,0.002l-0.076,0.003l-0.066,0.003
	l-0.079,0.004l-0.066,0.003l-0.04,0.002l-0.064,0.003l-0.053,0.002l-0.06,0.003l-0.046,0.002l-0.063,0.003l-0.067,0.003
	l-0.066,0.003c-0.03,0.001-0.055,0.002-0.086,0.004l-0.042,0.002l-0.065,0.003l-0.055,0.003l-0.055,0.002l-0.058,0.003l-0.074,0.004
	l-0.031,0.001l-0.11,0.005l-0.04,0.002l-0.075,0.004l-0.044,0.002l-0.064,0.003l-0.049,0.002l-0.075,0.004l-0.035,0.002
	l-0.089,0.004l-0.029,0.001c-0.035,0.002-0.072,0.003-0.107,0.005l-0.029,0.001l-0.082,0.004l-0.049,0.002l-0.063,0.003
	l-0.044,0.002l-0.079,0.004l-0.036,0.002l-0.113,0.005v0l-0.102,0.005l-0.053,0.003l-0.066,0.003l-0.044,0.002l-0.071,0.004
	l-0.039,0.002c-0.035,0.002-0.07,0.004-0.105,0.005l-0.007,0l-0.113,0.006l-0.032,0.002l-0.087,0.004l-0.02,0.001l-0.098,0.005
	l-0.023,0.001c-0.03,0.002-0.059,0.003-0.089,0.005l-0.029,0.002l-0.074,0.004l-0.079,0.004l-0.07,0.004l-0.034,0.002l-0.079,0.004
	l-0.037,0.002l-0.083,0.004l-0.029,0.002c-0.036,0.002-0.07,0.004-0.105,0.006l-0.007,0c-0.038,0.002-0.076,0.004-0.114,0.006
	l-0.023,0.001l-0.092,0.005l-0.031,0.002l-0.082,0.004l-0.031,0.002l-0.089,0.005l-0.028,0.002l-0.23,0.012l-0.011,0.001
	l-0.106,0.006l-0.019,0.001l-0.085,0.005l-0.036,0.002l-0.09,0.005l-0.021,0.001l-0.113,0.007l-0.024,0.001l-0.083,0.005
	l-0.044,0.003l-0.067,0.004l-0.05,0.003l-0.071,0.004l-0.033,0.002l-0.104,0.006l-0.01,0.001l-0.113,0.007l-0.027,0.002
	l-0.081,0.005l-0.035,0.002l-0.09,0.005l-0.02,0.001c-0.033,0.002-0.067,0.004-0.1,0.006l-0.016,0.001
	c-0.08,0.005-0.154,0.009-0.234,0.014l-0.008,0.001c-0.035,0.002-0.074,0.004-0.109,0.007l-0.01,0.001l-0.105,0.006l-0.014,0.001
	l-0.227,0.014l-0.036,0.002l-0.075,0.005l-0.044,0.003l-0.068,0.004l-0.039,0.002l-0.086,0.006l-0.027,0.002
	c-0.033,0.002-0.063,0.004-0.094,0.006l-0.062,0.004l-0.061,0.004l-0.042,0.003l-0.078,0.005l-0.033,0.002l-0.089,0.006
	l-0.019,0.001l-0.105,0.007l-0.011,0.001l-0.229,0.015l-0.018,0.001l-0.1,0.006l-0.018,0.001l-0.09,0.006l-0.028,0.002l-0.227,0.015
	l-0.017,0.001l-0.103,0.007l-0.01,0.001l-0.1,0.007l-0.023,0.002c-0.077,0.005-0.15,0.01-0.227,0.015l-0.011,0.001l-0.104,0.007
	l-0.02,0.001l-0.085,0.006l-0.035,0.002c-0.154,0.01-0.305,0.021-0.458,0.031l-0.007,0.001c-0.156,0.011-0.31,0.021-0.465,0.032
	l-0.018,0.001l-0.104,0.007l-0.008,0.001l-0.105,0.007l-0.013,0.001c-0.077,0.005-0.156,0.011-0.232,0.017l-0.007,0
	c-0.035,0.002-0.073,0.005-0.107,0.008l-0.014,0.001l-0.106,0.007l-0.007,0.001c-0.079,0.006-0.154,0.011-0.234,0.017l-0.006,0
	c-0.035,0.003-0.073,0.006-0.107,0.008l-0.019,0.001l-0.091,0.007l-0.027,0.002l-0.092,0.007l-0.019,0.001l-0.103,0.008
	l-0.011,0.001c-0.076,0.006-0.152,0.011-0.228,0.017l-0.018,0.001l-0.091,0.007l-0.029,0.002l-0.075,0.006l-0.042,0.003
	c-0.074,0.006-0.143,0.011-0.217,0.017l-0.027,0.002l-0.09,0.007l-0.02,0.002l-0.099,0.007l-0.013,0.001l-0.232,0.018h-0.001
	l-0.11,0.009l-0.017,0.001l-0.092,0.007l-0.029,0.002l-0.102,0.008l-0.004,0l-0.343,0.027l-0.02,0.002l-0.094,0.008l-0.019,0.001
	l-0.107,0.008l-0.005,0l-0.225,0.018l-0.027,0.002l-0.094,0.007l-0.01,0.001l-0.107,0.009l-0.009,0.001l-0.225,0.018l-0.025,0.002
	l-0.087,0.007l-0.028,0.002l-0.077,0.007l-0.039,0.003l-0.085,0.007l-0.021,0.002l-0.111,0.009l-0.012,0.001l-0.1,0.008
	l-0.023,0.002l-0.087,0.007l-0.029,0.002c-0.229,0.02-0.457,0.039-0.686,0.059l-0.002,0c-0.309,0.027-0.619,0.054-0.927,0.081
	l-0.009,0.001c-1.24,0.11-2.472,0.227-3.696,0.349l-0.007,0.001c-23.923,2.389-44.9,7.048-60.686,13.227l-0.003,0.001l-0.073,0.029
	l-0.002,0.001c-0.126,0.049-0.249,0.098-0.375,0.148l-0.004,0.002c-0.252,0.1-0.498,0.198-0.747,0.298l-0.002,0.001
	c-0.075,0.03-0.148,0.06-0.222,0.09l-0.003,0.001l-0.066,0.027l-0.01,0.004c-0.071,0.029-0.145,0.059-0.216,0.088l-0.007,0.003
	l-0.061,0.024l-0.02,0.008l-0.055,0.022l-0.012,0.005l-0.066,0.027l-0.005,0.002c-0.046,0.019-0.09,0.037-0.137,0.056l-0.024,0.01
	l-0.048,0.02l-0.019,0.008l-0.056,0.023l-0.012,0.005l-0.07,0.029l-0.015,0.006l-0.049,0.021l-0.035,0.014l-0.034,0.014l-0.03,0.012
	l-0.038,0.016l-0.031,0.013l-0.042,0.018l-0.023,0.009l-0.063,0.026l-0.031,0.012l-0.041,0.017l-0.025,0.011l-0.04,0.017
	l-0.029,0.012l-0.04,0.017l-0.028,0.012l-0.041,0.017l-0.049,0.02l-0.04,0.017l-0.028,0.012l-0.04,0.017l-0.029,0.013l-0.039,0.016
	l-0.026,0.011l-0.041,0.018l-0.029,0.012l-0.06,0.025l-0.04,0.017l-0.022,0.009l-0.041,0.017l-0.025,0.011l-0.042,0.018
	l-0.017,0.007c-0.051,0.022-0.104,0.044-0.155,0.066l-0.013,0.006l-0.049,0.021l-0.011,0.005l-0.049,0.021l-0.013,0.006
	c-0.093,0.04-0.191,0.082-0.283,0.123l-0.006,0.003l-0.052,0.022l-0.012,0.005c-0.076,0.033-0.15,0.065-0.226,0.098l-0.001,0
	c-0.038,0.017-0.077,0.034-0.116,0.051l-0.001,0c-0.191,0.084-0.382,0.168-0.572,0.253l-0.012,0.005
	c-0.626,0.279-1.242,0.561-1.847,0.845c-10.662,5.014-15.241,17.721-10.227,28.383c5.01,10.655,17.706,15.237,28.366,10.236
	c14.368-6.74,44.581-13.94,86.284-13.94c16.716-0.054,33.41,1.237,49.919,3.862c11.625,1.919,22.604-5.948,24.524-17.573
	c1.918-11.616-5.937-22.59-17.551-24.52c-0.534-0.088-1.07-0.175-1.608-0.262l-0.011-0.002l-0.192-0.031l-0.008-0.001l-0.196-0.031
	l-0.01-0.001c-0.063-0.01-0.126-0.02-0.188-0.03l-0.019-0.003c-0.059-0.009-0.117-0.018-0.176-0.028l-0.028-0.005l-0.177-0.028
	l-0.031-0.005l-0.172-0.027l-0.04-0.006c-0.049-0.008-0.103-0.016-0.152-0.023l-0.049-0.008c-0.048-0.007-0.096-0.015-0.144-0.022
	l-0.076-0.012l-0.143-0.022l-0.055-0.008c-0.046-0.007-0.093-0.014-0.139-0.021l-0.063-0.009l-0.135-0.02l-0.077-0.012
	c-0.044-0.007-0.086-0.013-0.13-0.02l-0.08-0.012c-0.044-0.007-0.088-0.013-0.132-0.02l-0.068-0.01l-0.124-0.019l-0.094-0.014
	c-0.035-0.006-0.069-0.01-0.104-0.016l-0.106-0.016l-0.102-0.015l-0.093-0.014c-0.036-0.005-0.073-0.011-0.109-0.016l-0.114-0.017
	l-0.083-0.012c-0.041-0.006-0.085-0.012-0.126-0.019l-0.068-0.01c-0.041-0.006-0.086-0.012-0.127-0.019l-0.098-0.014
	c-0.045-0.007-0.098-0.014-0.143-0.021l-0.044-0.007l-0.149-0.021l-0.038-0.006c-0.346-0.05-0.695-0.1-1.043-0.149l-0.009-0.001
	c-0.059-0.008-0.116-0.016-0.176-0.025l-0.003,0c-9.279-1.303-19.109-2.251-29.35-2.794l-0.01-0.001l-0.688-0.036h-0.003
	c-0.066-0.004-0.128-0.007-0.193-0.01l-0.012-0.001c-0.161-0.008-0.326-0.016-0.487-0.024l-0.003,0
	c-0.062-0.003-0.129-0.006-0.191-0.009l-0.019-0.001c-0.158-0.008-0.315-0.015-0.473-0.023l-0.018-0.001l-0.182-0.008l-0.03-0.002
	c-0.063-0.003-0.118-0.006-0.18-0.008l-0.014-0.001l-0.252-0.012l-0.045-0.002c-0.055-0.003-0.116-0.005-0.17-0.008l-0.042-0.002
	c-0.054-0.002-0.111-0.005-0.165-0.007l-0.057-0.002c-0.075-0.004-0.152-0.007-0.227-0.01l-0.032-0.001
	c-0.058-0.003-0.114-0.005-0.172-0.007l-0.042-0.002l-0.166-0.007l-0.094-0.004l-0.119-0.005c-0.037-0.001-0.074-0.003-0.111-0.005
	l-0.152-0.006l-0.068-0.003l-0.149-0.006l-0.071-0.003c-0.046-0.002-0.099-0.004-0.145-0.006c-0.038-0.001-0.077-0.003-0.115-0.005
	c-0.046-0.002-0.095-0.004-0.141-0.006l-0.075-0.003l-0.149-0.006l-0.089-0.004l-0.126-0.005l-0.128-0.005l-0.104-0.004
	l-0.117-0.004c-0.038-0.002-0.083-0.003-0.12-0.005l-0.117-0.005l-0.105-0.004c-0.046-0.002-0.094-0.004-0.141-0.005l-0.078-0.003
	l-0.149-0.005l-0.091-0.003l-0.148-0.005l-0.091-0.003l-0.146-0.005l-0.078-0.003l-0.153-0.005l-0.075-0.003
	c-0.052-0.002-0.102-0.004-0.154-0.005l-0.091-0.003l-0.152-0.005l-0.073-0.002c-0.049-0.002-0.098-0.003-0.148-0.005
	c-0.029-0.001-0.053-0.002-0.082-0.003l-0.153-0.005l-0.091-0.003l-0.159-0.005l-0.069-0.002c-0.051-0.001-0.105-0.003-0.156-0.005
	l-0.07-0.002l-0.163-0.005l-0.079-0.002l-0.172-0.005l-0.056-0.002c-0.055-0.001-0.112-0.003-0.167-0.005l-0.063-0.002l-0.174-0.005
	l-0.057-0.001c-0.062-0.002-0.124-0.004-0.187-0.005l-0.061-0.002l-0.167-0.005l-0.061-0.001l-0.167-0.005l-0.068-0.002
	c-0.061-0.002-0.122-0.003-0.183-0.005l-0.057-0.002c-0.057-0.001-0.112-0.003-0.168-0.004l-0.063-0.001
	c-0.057-0.001-0.112-0.003-0.168-0.004l-0.058-0.001c-0.064-0.002-0.13-0.003-0.194-0.005l-0.051-0.001l-0.18-0.004l-0.052-0.001
	l-0.177-0.004l-0.052-0.001l-0.191-0.004l-0.048-0.001l-0.186-0.004l-0.055-0.001l-0.173-0.004l-0.055-0.001
	c-0.059-0.001-0.12-0.003-0.178-0.004l-0.07-0.001c-0.062-0.001-0.122-0.003-0.184-0.004l-0.045-0.001
	c-0.062-0.001-0.12-0.002-0.182-0.003l-0.052-0.001c-0.063-0.001-0.127-0.002-0.19-0.004l-0.038-0.001
	c-0.069-0.001-0.136-0.002-0.205-0.004l-0.038-0.001l-0.192-0.003l-0.042-0.001l-0.194-0.003l-0.033-0.001
	c-0.07-0.001-0.143-0.002-0.212-0.003l-0.04-0.001l-0.189-0.003l-0.045-0.001c-0.063-0.001-0.125-0.002-0.188-0.003l-0.041-0.001
	l-0.21-0.003l-0.034,0c-0.066-0.001-0.132-0.002-0.199-0.003l-0.034,0c-0.066-0.001-0.132-0.002-0.197-0.003l-0.037,0
	c-0.073-0.001-0.146-0.002-0.219-0.003l-0.015,0c-0.071-0.001-0.142-0.002-0.212-0.002l-0.033,0
	c-0.068-0.001-0.134-0.002-0.202-0.002l-0.029,0l-0.206-0.002l-0.037,0l-0.207-0.002l-0.029,0l-0.209-0.002h-0.022l-0.225-0.002
	h-0.006l-0.229-0.002h-0.02c-0.07-0.001-0.141-0.001-0.212-0.002h-0.027c-0.074-0.001-0.143-0.001-0.216-0.001l-0.014,0
	c-0.076,0-0.15-0.001-0.226-0.001h-0.02l-0.208-0.001l-0.035,0l-0.212-0.001h-0.014l-0.229-0.001h-0.016
	c-0.072,0-0.143-0.001-0.215-0.001l-0.027,0c-0.068,0-0.139,0-0.207,0h-0.028c-0.075,0-0.15-0.001-0.225-0.001h-0.011
	c-0.072,0-0.146,0-0.218,0h-0.029c-0.071,0-0.143,0-0.214,0L234.67,128.005L234.67,128.005z"/>
<path style="fill:#744FC1;" d="M329.099,446.719l1.292-0.323c21.55-5.388,35.346-26.428,31.694-48.34l-8.96-53.763
	c-3.412-20.472-21.078-35.507-41.833-35.602h0c-23.531-0.108-42.694,18.881-42.802,42.412c-0.009,2.066,0.131,4.13,0.421,6.176
	l7.668,54.086c3.303,23.298,24.868,39.508,48.166,36.204C326.211,447.362,327.664,447.078,329.099,446.719z"/>
<path style="fill:#E7455F;" d="M8.839,417.836L417.835,8.841c11.782-11.782,30.885-11.782,42.667,0v0
	c11.782,11.782,11.782,30.885,0,42.667l0,0L51.506,460.503c-11.782,11.782-30.885,11.782-42.667,0l0,0
	C-2.943,448.721-2.943,429.618,8.839,417.836L8.839,417.836z"/>
<path style="fill:#5628B4;" d="M375.167,51.508c11.782-11.782,30.885-11.782,42.667,0c11.782,11.782,11.782,30.885,0,42.667
	L460.5,51.508c11.782-11.782,11.782-30.885,0-42.667c-11.782-11.782-30.885-11.782-42.667,0L375.167,51.508z"/>
<g>
	<path style="fill:#F7B236;" d="M58.974,24.917c-6.505,15.341-18.718,27.554-34.059,34.059c-2.778,1.04-4.187,4.134-3.147,6.912
		c0.545,1.455,1.692,2.602,3.147,3.147c15.341,6.505,27.554,18.718,34.059,34.059c1.04,2.778,4.134,4.187,6.912,3.147
		c1.455-0.545,2.602-1.692,3.147-3.147c6.505-15.341,18.718-27.554,34.059-34.059c2.778-1.04,4.187-4.134,3.147-6.912
		c-0.545-1.455-1.692-2.602-3.147-3.147C87.75,52.471,75.538,40.258,69.033,24.917c-1.04-2.778-4.134-4.187-6.912-3.147
		C60.666,22.314,59.518,23.462,58.974,24.917z"/>
	<path style="fill:#F7B236;" d="M123.035,131.437c-6.509,15.459-18.808,27.757-34.267,34.267c-2.744,1.018-4.142,4.068-3.124,6.812
		c0.537,1.446,1.678,2.587,3.124,3.124c15.459,6.509,27.757,18.808,34.267,34.267c1.018,2.744,4.068,4.142,6.812,3.124
		c1.446-0.537,2.587-1.678,3.124-3.124c6.509-15.459,18.808-27.757,34.267-34.267c2.744-1.018,4.142-4.068,3.124-6.812
		c-0.537-1.446-1.678-2.587-3.124-3.124c-15.459-6.509-27.757-18.808-34.267-34.267c-1.018-2.744-4.068-4.142-6.812-3.124
		C124.713,128.85,123.572,129.991,123.035,131.437z"/>
	<path style="fill:#F7B236;" d="M418.438,89.203c-2.489,3.395-5.463,6.405-8.828,8.933c-4.714,3.441-5.746,10.052-2.305,14.765
		c0.644,0.883,1.422,1.66,2.305,2.305c3.365,2.529,6.339,5.539,8.828,8.933c3.543,4.547,10.102,5.36,14.648,1.817
		c0.678-0.528,1.288-1.139,1.817-1.817c2.489-3.395,5.463-6.405,8.828-8.933c4.714-3.441,5.746-10.052,2.305-14.765
		c-0.644-0.883-1.422-1.66-2.305-2.305c-3.365-2.529-6.339-5.539-8.828-8.933c-3.543-4.547-10.102-5.36-14.648-1.817
		C419.576,87.915,418.966,88.525,418.438,89.203z"/>
	<path style="fill:#F7B236;" d="M336.307,24.917c-6.505,15.341-18.718,27.554-34.059,34.059c-2.778,1.04-4.187,4.134-3.147,6.912
		c0.545,1.455,1.692,2.602,3.147,3.147c15.341,6.505,27.554,18.718,34.059,34.059c1.04,2.778,4.134,4.187,6.912,3.147
		c1.455-0.545,2.602-1.692,3.147-3.147c6.505-15.341,18.718-27.554,34.059-34.059c2.778-1.04,4.187-4.134,3.147-6.912
		c-0.545-1.455-1.692-2.602-3.147-3.147c-15.341-6.505-27.554-18.718-34.059-34.059c-1.04-2.778-4.134-4.187-6.912-3.147
		C337.999,22.314,336.852,23.462,336.307,24.917z"/>
	<path style="fill:#F7B236;" d="M314.974,174.25c-6.505,15.341-18.718,27.554-34.059,34.059c-2.778,1.04-4.187,4.134-3.147,6.912
		c0.544,1.455,1.692,2.602,3.147,3.147c15.341,6.505,27.554,18.718,34.059,34.059c1.04,2.778,4.134,4.187,6.912,3.147
		c1.455-0.544,2.602-1.692,3.147-3.147c6.505-15.341,18.718-27.554,34.059-34.059c2.778-1.04,4.187-4.134,3.147-6.912
		c-0.544-1.455-1.692-2.602-3.147-3.147c-15.341-6.505-27.554-18.718-34.059-34.059c-1.04-2.778-4.134-4.187-6.912-3.147
		C316.666,171.648,315.518,172.795,314.974,174.25L314.974,174.25z"/>
</g>
<path style="fill:#EE7B8E;" d="M10.67,416.012L373.346,53.335c5.889-5.889,15.437-5.889,21.326,0l0.007,0.007
	c5.889,5.889,5.889,15.437,0,21.326L32.003,437.345c-5.889,5.889-15.437,5.889-21.326,0l-0.007-0.007
	C4.781,431.449,4.781,421.901,10.67,416.012z"/>
<path style="fill:#B6A4E0;" d="M409.758,16.921l12.504-12.504c5.889-5.889,15.437-5.889,21.326,0l0.007,0.007
	c5.889,5.889,5.889,15.437,0,21.326l-12.504,12.504c-5.889,5.889-15.437,5.889-21.326,0l-0.007-0.007
	C403.869,32.358,403.869,22.81,409.758,16.921z"/>
<g>
	<circle style="fill:#FBD99C;" cx="53.34" cy="53.342" r="10.667"/>
	<circle style="fill:#FBD99C;" cx="117.34" cy="160.002" r="10.667"/>
	<circle style="fill:#FBD99C;" cx="330.67" cy="53.342" r="10.667"/>
	<circle style="fill:#FBD99C;" cx="309.34" cy="202.672" r="10.667"/>
</g>
<g>
</g>
<g>
</g>
<g>
</g>
<g>
</g>
<g>
</g>
<g>
</g>
<g>
</g>
<g>
</g>
<g>
</g>
<g>
</g>
<g>
</g>
<g>
</g>
<g>
</g>
<g>
</g>
<g>
</g>
</svg>
