<svg id="Capa_1" enable-background="new 0 0 461.259 461.259" height="512" viewBox="0 0 461.259 461.259" width="512" xmlns="http://www.w3.org/2000/svg"><g><path d="m461.256 378.181c-.782 38.665-103.244 70.029-230.618 70.029s-232.256-31.403-230.619-70.029l.107-8.555h461.074z" fill="#414451"/><path d="m461.256 370.965c-.776 38.665-103.25 70.029-230.618 70.029s-232.256-31.387-230.619-70.029c1.024-23.697 47.187-47.142 115.95-59.995.152-.034.315-.073.467-.096.562-3.836 1.164-7.616 1.738-11.34 30.638-195.93 66.142-233.802 73.123-239.528.917-.754 1.834-1.479 2.734-2.25 4.05-3.426 17.066-13.275 48.936-28.76 19.143-9.597 40.102-15.03 61.496-15.941 6.059-.132 12.028 1.48 17.195 4.646 26.729 16.978 50.949 37.615 71.953 61.311.541.608.488 1.539-.12 2.081-.367.327-.872.449-1.348.327-24.149-6.173-49.157-8.291-74-6.266-16.857 9.915-28.987 26.226-33.631 45.224-.358 1.75.086 3.567 1.209 4.955l3.887 4.815c1.052 1.307 1.21 3.121.399 4.59l-3.746 6.845c-1.361 2.472-.601 5.575 1.749 7.138l11.07 7.385c1.468.973 2.618 2.356 3.307 3.977.17.381.311.774.422 1.176l38.491 140.374 2.43 8.837c70.277 12.521 118.026 35.892 117.526 60.495z" fill="#575b6d"/><path d="m302.388 160.056c-28.979-12.498-58.583 3.532-58.583 3.532 5.726-21.667 35.33-29.812 46.551-32.022.301 1.054.174 2.184-.354 3.144l-3.746 6.845c-1.361 2.472-.601 5.575 1.749 7.138l11.07 7.385c1.47.974 2.622 2.356 3.313 3.978z" fill="#414451"/><path d="m348.416 329.138c0 23.062-52.812 41.809-117.97 41.809s-117.97-18.719-117.97-41.809l3.51-18.168 2.205-11.435c11.25 18.793 57.221 32.877 112.249 32.877 52.986 0 97.602-13.055 110.854-30.813l2.43 8.837z" fill="#ef5261"/><path d="m257.89 382.889h-53.689c-5.191.003-9.402-4.202-9.405-9.393v-45.19c.016-5.182 4.223-9.374 9.405-9.371h53.7c5.182.006 9.382 4.206 9.388 9.388v45.173c-.003 5.189-4.211 9.393-9.399 9.393zm-49.01-14.062h44.312v-35.83h-44.312z" fill="#f6c863"/></g></svg>