<svg xmlns="http://www.w3.org/2000/svg" viewBox="0 0 500 500"><g id="freepik--background-complete--inject-142"><path d="M421.59,273.45c1.5,13.62,3,27.53.1,40.93s-10.93,26.45-23.58,31.73c-6.79,2.84-15.17,3.77-19.34,9.85-3.81,5.57-3.94,15-10.58,16.26-5.33,1-9.59-4.92-15-5.53s-9.94,4.33-11.91,9.41-2.47,10.73-5.15,15.47-8.88,8.31-13.56,5.52v-1l-34.94,3.26a80.94,80.94,0,0,0,100.5-5.14c11.31-9.93,19.63-22.76,27.8-35.41,8.63-13.36,17.45-27.17,20.36-42.81S434.83,282.26,421.59,273.45Z" style="fill:#ebebeb"></path><path d="M110.47,366.53c-1.53-8.17,2.32-16.37,2.47-24.68S105.82,323.72,98.18,327c5.59-3.34,6.18-11.73,2.92-17.36s-9.2-9.1-15-12.15-11.8-6.11-15.69-11.33c-6-8.1-5.38-19.13-6.92-29.11a62.68,62.68,0,0,0-22-38.56c12,11.57,11.43,30.64,9.2,47.12s-4.92,34.75,4.43,48.51c5.32,7.83,13.91,13,19.09,20.93,5,7.56,6.32,16.88,10.19,25,7.87,16.6,24.9,26.53,40.95,35.46,7.88,1.18,12.69,1.3,17.77-4.85C129.33,386.89,113.09,380.61,110.47,366.53Z" style="fill:#ebebeb"></path><path d="M223,33c-11,4.48-20.43,13-32.15,14.78-9.8,1.48-19.56-2-29.21-4.25s-20.75-2.9-28.54,3.22c-14.33,11.26-7.3,35.58-17.82,50.46-7,10-20.07,13.21-30.42,19.66-24.77,15.46-31.67,53.36-13.93,76.55L72.67,191c-2.31-9.82-4.64-19.81-4.08-29.89S73,140.65,81.05,134.52c11.93-9.13,30.41-7.33,40.6-18.36,10-10.76,7.57-29.29,18.06-39.55C149.06,67.45,164,69,177,67.44c19.3-2.29,36.68-12.49,55.34-18s41.77-4.82,54,10.33C276.81,36.16,246.58,23.35,223,33Z" style="fill:#ebebeb"></path><path d="M432,241c4.43-.15,8,5.18,6.25,9.24s-8.15,5-11,1.62-1-9.51,3.32-10.65" style="fill:#ebebeb"></path><path d="M137,432.56c-4.16-1.66-9.11-2.21-12-5.63-2.75-3.22-2.77-8-5.12-11.56a16.07,16.07,0,0,0-11.32-6.88c-16.87-1.77-30-2.62-45.15-18.35,11.55,15.48,23.29,31.15,38.46,43.1s34.44,20,53.62,17.67C150.57,443.57,145.19,435.83,137,432.56Z" style="fill:#ebebeb"></path><path d="M434,110.08c-2.65-4.3-1.57-10.12-4.11-14.49s-7.23-7.86-12.26-7.46c-7.24.57-11.73,9-10.84,16.16s5.51,13.31,10,19c-8.33,2.58-13.05,13.2-9.38,21.11,3.92,8.46,14.39,11.64,20.31,18.85,11,13.43,2.69,35.12,11.76,50C445.57,189.92,454.44,143.36,434,110.08Z" style="fill:#ebebeb"></path><path d="M49.49,111.7,88.55,79.05c1.42-1.19,3-2.58,3.13-4.43.23-2.41-2-4.34-4.05-5.55-4.12-2.37-9.19-3.69-13.64-2s-7.54,7.15-5.45,11.41c-2.4-2.74-5.07-5.65-8.65-6.34s-8,2.26-7.15,5.82c.36,1.58,1.61,2.84,2,4.41.69,2.78-1.41,5.38-3.22,7.6a62.14,62.14,0,0,0-12.41,51.7,56,56,0,0,1,17-36" style="fill:#ebebeb"></path></g><g id="freepik--Plants--inject-142"><path d="M425.81,162.89a1.64,1.64,0,0,1,0,.33c0,.26,0,.59,0,1s0,1-.11,1.6L425.4,168a49.36,49.36,0,0,1-4.14,13.33,79.12,79.12,0,0,1-11.34,17.32c-5,6-11.24,11.93-17.69,18.18s-12.47,12.36-17.11,18.6a67.94,67.94,0,0,0-9.84,18,45.77,45.77,0,0,0-2.61,13.6c0,.81,0,1.54,0,2.18s.06,1.17.08,1.6,0,.73.05,1a1.64,1.64,0,0,1,0,.33,1.29,1.29,0,0,1-.06-.33l-.11-1c0-.43-.11-1-.14-1.6s0-1.38-.05-2.2a44,44,0,0,1,2.43-13.74,67.44,67.44,0,0,1,9.79-18.23c4.65-6.3,10.68-12.45,17.14-18.71s12.67-12.15,17.68-18.09a80.69,80.69,0,0,0,11.39-17.13,51.28,51.28,0,0,0,4.3-13.18q.19-1.2.33-2.16c.09-.62.12-1.16.17-1.59l.1-1A1.29,1.29,0,0,1,425.81,162.89Z" style="fill:#263238"></path><path d="M401.68,226.28c-.21-.32-.79-.35-1.29-.32,1.55-.09-11,3.48-11.13,3.56a16.53,16.53,0,0,0-6.73,7.9l.73-.12a19.34,19.34,0,0,0,10.19-3.25,47,47,0,0,0,7.72-6.57C401.54,227.12,401.93,226.64,401.68,226.28Z" style="fill:#455a64"></path><path d="M391.85,194.6c-.39-.06.1,1-.21,1.36-2.51,3-5.18,6.21-5.85,10a16.53,16.53,0,0,0,1.23,10.3l.41-.62a19.43,19.43,0,0,0,4.54-9.68,46.85,46.85,0,0,0,.41-10.13C392.36,195.28,392.28,194.67,391.85,194.6Z" style="fill:#455a64"></path><path d="M394,230.23a5.55,5.55,0,0,1-1,1,23.3,23.3,0,0,1-3.14,2.36c-2.77,1.86-7,3.69-11.46,6s-8.06,5.16-10,7.82a21.6,21.6,0,0,0-2.49,4.66,5.34,5.34,0,0,1,.33-1.41,13.89,13.89,0,0,1,1.78-3.52c1.87-2.8,5.52-5.82,10-8.12s8.72-4,11.52-5.77S393.88,230.15,394,230.23Z" style="fill:#263238"></path><path d="M429,201.67c-.15-.35.18.14-.31.07-3.9-.53-9-.67-12.51.74A16.57,16.57,0,0,0,408,209l.74,0a19.47,19.47,0,0,0,10.62-1.24,47.12,47.12,0,0,0,8.83-5C428.65,202.47,429.13,202.08,429,201.67Z" style="fill:#455a64"></path><path d="M420.62,204.08a5.42,5.42,0,0,1-1.19.83,24.33,24.33,0,0,1-3.56,1.73c-3.1,1.3-7.63,2.29-12.47,3.67a31.81,31.81,0,0,0-11.09,6.34c-2.53,2.14-3.94,3.64-4,3.57a5,5,0,0,1,.91-1.13,38.4,38.4,0,0,1,2.8-2.79,30.08,30.08,0,0,1,11.2-6.61c4.9-1.4,9.4-2.31,12.49-3.48S420.56,204,420.62,204.08Z" style="fill:#263238"></path><path d="M448,157.08c-.27-.28-.84-.2-1.32-.08a23.39,23.39,0,0,0-10.32,5.5,16.5,16.5,0,0,0-5.2,9l.7-.25a19.43,19.43,0,0,0,9.44-5,47.24,47.24,0,0,0,6.41-7.86C448,157.93,448.28,157.39,448,157.08Z" style="fill:#455a64"></path><path d="M441.09,162.36s-.16.34-.54.89a20.35,20.35,0,0,1-1.83,2.16,51,51,0,0,1-7.19,5.91c-1.47,1.06-2.88,2.06-4.12,3a25.75,25.75,0,0,0-3.08,2.74c-1.64,1.69-2.5,2.89-2.59,2.83a3,3,0,0,1,.51-.91,23.19,23.19,0,0,1,4.79-5.13c1.24-1,2.64-2,4.11-3.06a68.16,68.16,0,0,0,7.25-5.72C440.12,163.47,441,162.29,441.09,162.36Z" style="fill:#263238"></path><path d="M390.49,200a5.19,5.19,0,0,1,0,1.4c-.07.9-.23,2.19-.5,3.78s-.66,3.46-1.22,5.52a25.33,25.33,0,0,1-4.36,9.56l-1.85,2.77c-1.16,1.77-2.17,3.38-3,4.77-1.59,2.77-2.38,4.59-2.48,4.55a5.25,5.25,0,0,1,.45-1.32c.34-.84.88-2,1.63-3.45s1.72-3.08,2.86-4.88l1.83-2.79c.62-1,1.33-1.94,1.88-3a36.07,36.07,0,0,0,2.42-6.38c.59-2,1-3.88,1.35-5.45s.55-2.84.7-3.72A5.83,5.83,0,0,1,390.49,200Z" style="fill:#263238"></path><path d="M414.81,167c-.38,0-.72.47-1,.9a23.37,23.37,0,0,0-3.15,11.26,16.48,16.48,0,0,0,2.9,10l.3-.68a19.4,19.4,0,0,0,2.89-10.29,46.8,46.8,0,0,0-1.25-10.07C415.43,167.61,415.25,167,414.81,167Z" style="fill:#455a64"></path><path d="M414.07,172.58a13.93,13.93,0,0,1,.55,3.63,54.78,54.78,0,0,1,0,8.87,23.21,23.21,0,0,1-2.18,8.6,20.57,20.57,0,0,1-1.53,3.33,20.94,20.94,0,0,1,1.1-3.5c.36-1.07.9-2.31,1.24-3.73a33.84,33.84,0,0,0,.72-4.76,77.49,77.49,0,0,0,.23-8.79C414.11,174,414,172.59,414.07,172.58Z" style="fill:#263238"></path><path d="M90.86,159.25c.37-.05.76.36,1.06.74a23,23,0,0,1,4.56,10.51A16.21,16.21,0,0,1,95,180.56l-.39-.62a19.12,19.12,0,0,1-4.18-9.6,46.65,46.65,0,0,1-.13-9.94C90.33,159.9,90.43,159.3,90.86,159.25Z" style="fill:#455a64"></path><path d="M68.56,148.57c.35-.15.83.15,1.22.44A22.84,22.84,0,0,1,77,157.94,16.18,16.18,0,0,1,78.19,168l-.53-.49a19,19,0,0,1-6.57-8.16,45.75,45.75,0,0,1-2.76-9.55C68.23,149.33,68.16,148.73,68.56,148.57Z" style="fill:#455a64"></path><path d="M104.15,190.36c-.07-.37-.57-.62-1-.8a23,23,0,0,0-11.39-1.26,16.24,16.24,0,0,0-9.17,4.39l.7.18A19,19,0,0,0,93.68,194a45.66,45.66,0,0,0,9.53-2.8C103.68,191.05,104.22,190.78,104.15,190.36Z" style="fill:#455a64"></path><path d="M139,204.92c.37.06.62.57.79,1A23,23,0,0,1,141,217.33a16.23,16.23,0,0,1-4.38,9.18l-.19-.71a19,19,0,0,1-1.16-10.41,45.48,45.48,0,0,1,2.8-9.53C138.28,205.38,138.55,204.84,139,204.92Z" style="fill:#455a64"></path><path d="M74.69,159.32a2.07,2.07,0,0,1,.11.3c.06.23.15.52.26.89a9.78,9.78,0,0,0,.47,1.43l.33.91.44,1a32.88,32.88,0,0,0,7.75,10.43,57.71,57.71,0,0,0,7.06,5.63c2.68,1.84,5.68,3.61,8.84,5.47s6.49,3.8,9.79,6.07a50,50,0,0,1,9.38,8.08,54.76,54.76,0,0,1,6.93,10.26c1.9,3.52,3.52,7,5.13,10.31s3.22,6.37,4.9,9.16a53.53,53.53,0,0,0,5.17,7.4,24.72,24.72,0,0,0,10.4,7.64,15.21,15.21,0,0,0,2,.61,12.63,12.63,0,0,0,1.46.34l.91.17a1.87,1.87,0,0,1,.31.08l-.31,0-.92-.13a10.1,10.1,0,0,1-1.49-.29,15.26,15.26,0,0,1-2-.57A24.59,24.59,0,0,1,141,236.89a52.32,52.32,0,0,1-5.26-7.42c-1.7-2.79-3.35-5.88-5-9.17s-3.25-6.78-5.15-10.27a54.77,54.77,0,0,0-6.87-10.17,49.76,49.76,0,0,0-9.28-8c-3.28-2.26-6.6-4.2-9.75-6.08s-6.15-3.66-8.83-5.53a56.41,56.41,0,0,1-7.07-5.71,32.51,32.51,0,0,1-7.68-10.61c-.15-.36-.3-.7-.43-1l-.31-.92a12.62,12.62,0,0,1-.43-1.45q-.12-.56-.21-.9A1.55,1.55,0,0,1,74.69,159.32Z" style="fill:#263238"></path><path d="M137.15,218.33a36.85,36.85,0,0,0,0,8.44,37.1,37.1,0,0,0,2.49,8.07,8.3,8.3,0,0,1-1.27-2.17,22.22,22.22,0,0,1-1.82-11.89A8.38,8.38,0,0,1,137.15,218.33Z" style="fill:#263238"></path><path d="M121.26,174.39c.37.06.63.57.8,1a23.07,23.07,0,0,1,1.27,11.39,16.11,16.11,0,0,1-4.39,9.17l-.18-.7a19,19,0,0,1-1.17-10.41,46.36,46.36,0,0,1,2.8-9.54C120.57,174.85,120.84,174.31,121.26,174.39Z" style="fill:#455a64"></path><path d="M119.44,187.8a36.16,36.16,0,0,0,0,8.44A36.25,36.25,0,0,0,122,204.3a8.3,8.3,0,0,1-1.27-2.17,22.15,22.15,0,0,1-1.74-5.81,21.85,21.85,0,0,1-.08-6.07A7.79,7.79,0,0,1,119.44,187.8Z" style="fill:#263238"></path><path d="M91.7,192.43a10.5,10.5,0,0,1,2.61-1.12,25,25,0,0,1,6.77-1.14,21.72,21.72,0,0,1,6.82.8,4.58,4.58,0,0,1,1.82,1.07c.35.36.46.63.43.64a5.25,5.25,0,0,0-2.36-1.36,25.88,25.88,0,0,0-6.7-.63,29.86,29.86,0,0,0-6.68,1C92.74,192.12,91.73,192.51,91.7,192.43Z" style="fill:#263238"></path><path d="M122.88,212.27c0-.37-.5-.68-.93-.9a23.05,23.05,0,0,0-11.19-2.48,16.14,16.14,0,0,0-9.59,3.38l.67.25a19,19,0,0,0,10.23,2.28,45.8,45.8,0,0,0,9.78-1.76C122.34,212.91,122.91,212.7,122.88,212.27Z" style="fill:#455a64"></path><path d="M110.28,213a9.68,9.68,0,0,1,2.72-.84,24.85,24.85,0,0,1,6.84-.41,22.27,22.27,0,0,1,6.7,1.53,4.64,4.64,0,0,1,1.7,1.26c.31.4.39.67.36.69a5.27,5.27,0,0,0-2.2-1.61,26,26,0,0,0-6.6-1.35,29.24,29.24,0,0,0-6.74.26C111.35,212.8,110.3,213.08,110.28,213Z" style="fill:#263238"></path><path d="M94,171.76a16.56,16.56,0,0,1,0,1.9,17.58,17.58,0,0,0,.66,4.46A31.94,31.94,0,0,0,97.2,184a12.66,12.66,0,0,1-3-5.76,14,14,0,0,1-.53-4.61A4.4,4.4,0,0,1,94,171.76Z" style="fill:#263238"></path><path d="M97.88,249.39a3.58,3.58,0,0,1,.76.15l2.14.52c1.87.46,4.57,1.08,7.92,1.8s7.37,1.51,11.8,2.49a137.16,137.16,0,0,1,14.27,3.88,67.16,67.16,0,0,1,13.39,6.28,46.07,46.07,0,0,1,9.39,7.61,34.15,34.15,0,0,1,4.84,6.55c.51.82.78,1.52,1,2a3.76,3.76,0,0,1,.3.71,4.23,4.23,0,0,1-.41-.66c-.26-.43-.56-1.11-1.1-1.91a36.61,36.61,0,0,0-4.94-6.38,47.09,47.09,0,0,0-9.37-7.44,67.69,67.69,0,0,0-13.31-6.19,140.21,140.21,0,0,0-14.19-3.91l-11.77-2.61c-3.35-.77-6-1.45-7.89-2-.93-.25-1.64-.48-2.12-.62A5.65,5.65,0,0,1,97.88,249.39Z" style="fill:#263238"></path><path d="M113.65,265.37c0-.34.43-.62.81-.83a20.5,20.5,0,0,1,9.9-2.52,14.43,14.43,0,0,1,8.64,2.74l-.6.25a16.91,16.91,0,0,1-9.05,2.31,40.52,40.52,0,0,1-8.76-1.3C114.15,265.92,113.64,265.75,113.65,265.37Z" style="fill:#455a64"></path><path d="M106.46,236.1c.25-.22.75-.1,1.16,0a20.53,20.53,0,0,1,8.57,5.56A14.45,14.45,0,0,1,120,249.9l-.59-.27a17,17,0,0,1-7.84-5.08,41,41,0,0,1-5-7.32C106.39,236.84,106.17,236.35,106.46,236.1Z" style="fill:#455a64"></path><path d="M121.21,264.72c0-.1,1.77.27,4.64.2s6.8-.66,11.21-1.06,8.52.16,11.19,1.38a11.65,11.65,0,0,1,3,1.78,4.13,4.13,0,0,1,.89.89,18.87,18.87,0,0,0-4-2.31,25,25,0,0,0-11-1.17c-4.36.39-8.33,1-11.24.89a21,21,0,0,1-3.43-.29A4,4,0,0,1,121.21,264.72Z" style="fill:#263238"></path><path d="M82.05,259.76c0-.33.31-.69.64-1a20.51,20.51,0,0,1,9.23-4.36,14.47,14.47,0,0,1,9,1l-.54.36a17,17,0,0,1-8.44,4,40.73,40.73,0,0,1-8.85.39C82.65,260.21,82.11,260.14,82.05,259.76Z" style="fill:#455a64"></path><path d="M89.35,257.69c0-.11,1.8-.08,4.62-.7s6.59-2,10.87-3.2a26.27,26.27,0,0,1,11.36-.29,33.17,33.17,0,0,1,3.37.77,4.89,4.89,0,0,1,1.2.41c0,.09-1.77-.37-4.63-.79a27.81,27.81,0,0,0-11.15.44c-4.23,1.22-8,2.58-10.94,3a20.39,20.39,0,0,1-3.44.37A4.64,4.64,0,0,1,89.35,257.69Z" style="fill:#263238"></path><path d="M112,241.29a5.89,5.89,0,0,1,.83.89c.52.59,1.28,1.43,2.24,2.44s2.15,2.18,3.52,3.41a32,32,0,0,0,4.75,3.61c.9.52,1.87.92,2.78,1.34l2.65,1.23c1.67.8,3.16,1.57,4.37,2.29a33.25,33.25,0,0,1,2.81,1.79,5.4,5.4,0,0,1,1,.78c-.06.07-1.49-.91-4-2.23-1.23-.66-2.72-1.39-4.4-2.16l-2.65-1.19a29.32,29.32,0,0,1-2.84-1.37,29.65,29.65,0,0,1-4.82-3.7c-1.36-1.27-2.52-2.48-3.46-3.53s-1.65-1.94-2.12-2.57A4.2,4.2,0,0,1,112,241.29Z" style="fill:#263238"></path></g><g id="freepik--Phoenix--inject-142"><path d="M283.83,339.18l-18.6,9.46c-.52-9.27-1.81-18.72-6.06-27s-12-15.19-21.15-16.46c-3.39-.47-6.93-.17-10.18-1.27s-6.22-4.3-5.44-7.64c-4.16,3.5,1.69,12.74-3.31,14.87-2.84,1.22-5.68-2.05-6.24-5.09s-.12-6.41-1.8-9c-2.74-4.24-9.07-3.71-13.53-6.07-10.46-5.52-7.5-24.31-18.31-29.09,7.59,8.66.84,23.66,7.6,33,2.67,3.67,7,5.78,9.79,9.37s2.72,10.15-1.64,11.38a24,24,0,0,1-12.08-15.83c-2.76,10.12,3.15,20.57,10.11,28.42s15.43,14.8,19.52,24.46c3.8,9,3.38,19.3,7.24,28.23,6.48,15,23,22.43,38.15,28.55l.92.73c4.51-10.29-1-9.94,2.29-20.68,1.29-4.17,4.28-7.66,5.56-11.84,1.77-5.74.19-12.39,3.2-17.59,2.28-3.93,6.64-6.07,10.11-9S286.19,343.07,283.83,339.18Z" style="fill:#E27676"></path><g style="opacity:0.7000000000000001"><path d="M283.83,339.18l-18.6,9.46c-.52-9.27-1.81-18.72-6.06-27s-12-15.19-21.15-16.46c-3.39-.47-6.93-.17-10.18-1.27s-6.22-4.3-5.44-7.64c-4.16,3.5,1.69,12.74-3.31,14.87-2.84,1.22-5.68-2.05-6.24-5.09s-.12-6.41-1.8-9c-2.74-4.24-9.07-3.71-13.53-6.07-10.46-5.52-7.5-24.31-18.31-29.09,7.59,8.66.84,23.66,7.6,33,2.67,3.67,7,5.78,9.79,9.37s2.72,10.15-1.64,11.38a24,24,0,0,1-12.08-15.83c-2.76,10.12,3.15,20.57,10.11,28.42s15.43,14.8,19.52,24.46c3.8,9,3.38,19.3,7.24,28.23,6.48,15,23,22.43,38.15,28.55l.92.73c4.51-10.29-1-9.94,2.29-20.68,1.29-4.17,4.28-7.66,5.56-11.84,1.77-5.74.19-12.39,3.2-17.59,2.28-3.93,6.64-6.07,10.11-9S286.19,343.07,283.83,339.18Z" style="fill:#fff"></path></g><path d="M217.2,348.47c-16.38-2.14-17.75,7-17.11,14.06.27,2.93,1.07,5.8,1.21,8.75.37,7.63-3.62,14.73-5.16,22.22-3.48,16.92,5.68,33.61,14.5,48.47-10.14-3-15.4-13.87-19.25-23.71-3.11-8-6.15-16.44-4.9-24.91.67-4.45,2.5-8.68,3-13.15.56-4.89-.49-9.83-.44-14.75a34,34,0,0,1,18.09-29.26" style="fill:#E27676"></path><g style="opacity:0.30000000000000004"><path d="M217.2,348.47c-16.38-2.14-17.75,7-17.11,14.06.27,2.93,1.07,5.8,1.21,8.75.37,7.63-3.62,14.73-5.16,22.22-3.48,16.92,5.68,33.61,14.5,48.47-10.14-3-15.4-13.87-19.25-23.71-3.11-8-6.15-16.44-4.9-24.91.67-4.45,2.5-8.68,3-13.15.56-4.89-.49-9.83-.44-14.75a34,34,0,0,1,18.09-29.26"></path></g><path d="M159.78,337.89q-4.92-1.5-9.68-3.45a7.62,7.62,0,0,0-5.31-.7,37.8,37.8,0,0,1-9.89.57,13.22,13.22,0,0,1-8.72-4.23,3.72,3.72,0,0,0-.07,4.47,11,11,0,0,0,3.65,3.09,54.84,54.84,0,0,0,9.11,4.84A18.06,18.06,0,0,0,149,343.54a26.77,26.77,0,0,0,5.5-2.1l6-2.82Z" style="fill:#E27676"></path><path d="M211.52,329.5c-17.52-.21-21.52-.61-31.69-3.77S156.54,313,151,314.29A81.45,81.45,0,0,0,212.07,337" style="fill:#E27676"></path><path d="M208.55,336.21c-19.39-.39-40.12,4.8-52.92,19.38-11.29,12.86-14.61,30.72-16.56,47.71,8.42-4.74,13-14.08,16.54-23.07s6.72-18.57,13.7-25.25c11.27-10.78,28.88-10.92,42.76-18.05" style="fill:#E27676"></path><path d="M213.53,333.79q-8.67,4.68-17.68,8.69c-6.92,3.08-14.34,6.12-18.82,12.23a38.2,38.2,0,0,0-4.3,8.42c-5.55,13.67-10.36,28.07-9.87,42.82a100.81,100.81,0,0,0,2.08,15.94,282.58,282.58,0,0,0,18.89,60.19c4.71-17.37-2.6-35.48-4.3-53.4-.78-8.26-.36-16.61-1.27-24.87-1-8.63-3.35-17.41-1.32-25.85a37.69,37.69,0,0,1,2.84-7.54c8.28-17.07,15-20.41,33.6-24.18" style="fill:#E27676"></path><path d="M216.67,327.47c-5.15,1.83-10.9.33-15.88-1.92a28.88,28.88,0,0,1-5.51-3.15c-2.43-1.86-4.43-4.3-7.08-5.81-1.43-.82-3.06-1.37-4.21-2.54,2,4.06,4.42,8.12,8.22,10.56a29.05,29.05,0,0,0,5.2,2.45,44.18,44.18,0,0,0,9.23,2.84,14.61,14.61,0,0,0,9.39-1.4" style="fill:#E27676"></path><path d="M213.42,341.17s-.16.12-.51.26a10.37,10.37,0,0,1-1.59.49,11,11,0,0,1-2.62.24,10.81,10.81,0,0,1-1.64-.18,3.54,3.54,0,0,1-.9-.27,1.27,1.27,0,0,1-.7-.81l0-.18.19-.05a11.21,11.21,0,0,0,2.94-1.14c.25-.14.49-.29.73-.45s.26-.17.34-.24a.25.25,0,0,0,.08-.19c0-.11-.3-.27-.56-.32a4.86,4.86,0,0,0-.89-.05,22.42,22.42,0,0,1-4-.43,20.22,20.22,0,0,1-2.07-.52,4.14,4.14,0,0,1-1-.5,1.75,1.75,0,0,1-.71-1l-.06-.31h.32a17.61,17.61,0,0,0,7.56-1.83l.07.48-4.63-.86a9.24,9.24,0,0,1-2.14-.56,2.47,2.47,0,0,1-1.51-1.55l-.07-.29.3,0a18.37,18.37,0,0,0,7.49-.77c1.74-.56,2.65-1.07,2.67-1a4.35,4.35,0,0,1-.64.39,17.5,17.5,0,0,1-1.95.85,17.84,17.84,0,0,1-7.61,1l.22-.27a2,2,0,0,0,1.27,1.25,9.7,9.7,0,0,0,2.06.51l4.63.82.75.13-.68.34a17.59,17.59,0,0,1-5.76,1.76,15.82,15.82,0,0,1-2,.13l.25-.31c.11.58.77.94,1.4,1.15a17.93,17.93,0,0,0,2,.51,22.48,22.48,0,0,0,3.91.46,5,5,0,0,1,1,.06c.32.11.71.19.89.68a.63.63,0,0,1-.22.62c-.15.13-.27.19-.39.28s-.51.32-.77.46a11.64,11.64,0,0,1-3.07,1.14l.15-.23c.11.5.76.72,1.28.82a10.54,10.54,0,0,0,1.59.21,11.22,11.22,0,0,0,2.57-.14C212.68,341.46,213.4,341.12,213.42,341.17Z" style="fill:#263238"></path><path d="M204.58,342.87a2,2,0,0,1-.4.06l-1.18.14c-.52.07-1.15.19-1.9.31s-1.61.34-2.56.64a35,35,0,0,0-14.33,8.37c-5.17,4.84-9.71,12.29-12.17,21.32a70.43,70.43,0,0,0-2.35,14.48,119.34,119.34,0,0,0,.19,15.78,367.63,367.63,0,0,0,8.55,54.79c1.61,6.92,3.11,12.48,4.18,16.3l1.24,4.41c.13.48.24.86.31,1.15a1.87,1.87,0,0,1,.09.39s-.05-.12-.14-.38l-.36-1.13c-.31-1-.79-2.47-1.34-4.38-1.12-3.81-2.68-9.35-4.34-16.27A353.88,353.88,0,0,1,169.36,404a120.34,120.34,0,0,1-.18-15.85,70,70,0,0,1,2.39-14.57c2.51-9.11,7.13-16.62,12.38-21.46a34.68,34.68,0,0,1,14.54-8.31c.95-.29,1.83-.42,2.58-.59s1.4-.21,1.92-.26l1.19-.09A1.71,1.71,0,0,1,204.58,342.87Z" style="fill:#263238"></path><path d="M204.09,337.81l-.26.05-.76.08-2.93.32a85.54,85.54,0,0,0-10.65,1.94,65.55,65.55,0,0,0-15,5.65A51.91,51.91,0,0,0,159.27,358a43.83,43.83,0,0,0-5.61,8.43,85.75,85.75,0,0,0-3.78,8.69l-5.67,15.06c-1.61,4.25-2.92,7.71-3.85,10.14-.45,1.17-.81,2.09-1.07,2.75-.12.29-.22.52-.29.71a1,1,0,0,1-.12.24,1.15,1.15,0,0,1,.07-.26l.24-.72c.24-.68.57-1.61,1-2.79l3.7-10.2c1.59-4.31,3.47-9.43,5.56-15.11a87.12,87.12,0,0,1,3.78-8.74,44.37,44.37,0,0,1,5.66-8.54,51.77,51.77,0,0,1,15.43-12.22,64.42,64.42,0,0,1,15.1-5.59,77.91,77.91,0,0,1,10.72-1.78c1.27-.12,2.27-.19,2.94-.22l.77,0Z" style="fill:#263238"></path><path d="M201.49,334.51a2,2,0,0,1-.54-.05l-1.56-.23c-1.35-.2-3.28-.56-5.66-1.09s-5.2-1.25-8.29-2.18-6.44-2.1-9.89-3.49-6.66-2.91-9.54-4.37-5.4-2.91-7.47-4.19-3.72-2.36-4.83-3.15l-1.28-.92c-.29-.21-.43-.33-.42-.35a3.14,3.14,0,0,1,.48.26l1.33.84c1.14.74,2.82,1.77,4.91,3s4.63,2.63,7.5,4.09,6.08,2.91,9.51,4.31,6.78,2.54,9.84,3.51,5.86,1.72,8.23,2.28,4.28,1,5.62,1.25l1.53.33A1.91,1.91,0,0,1,201.49,334.51Z" style="fill:#263238"></path><path d="M160.89,338.94a8.05,8.05,0,0,1-1.55-.13c-1-.09-2.42-.19-4.2-.22s-3.9,0-6.25.12-5,.19-7.69.06c-5.45-.23-10.48-1.78-13.13-4.35a7.25,7.25,0,0,1-2.23-3.61,4.18,4.18,0,0,1-.12-1.16,1.17,1.17,0,0,1,0-.4c.06,0,0,.56.28,1.51a7.27,7.27,0,0,0,2.28,3.39,11.94,11.94,0,0,0,2.36,1.63,11.49,11.49,0,0,0,1.46.65,12.59,12.59,0,0,0,1.6.59,29.54,29.54,0,0,0,7.48,1.23c2.7.13,5.29,0,7.65,0s4.49-.08,6.28,0a38.33,38.33,0,0,1,4.22.39A9.41,9.41,0,0,1,160.89,338.94Z" style="fill:#263238"></path><path d="M198,351.2a18,18,0,0,0-1.65,3.34,27,27,0,0,0-1.17,10c0,2.15.2,4.52.11,7.07a37.43,37.43,0,0,1-1.24,8c-1.35,5.53-3.65,11.53-3.28,18.12a48.12,48.12,0,0,0,4.69,17.76,143.69,143.69,0,0,0,7.23,13.3c2.2,3.71,4,6.73,5.09,8.87.56,1.07,1,1.9,1.27,2.48.12.26.22.48.31.65a.88.88,0,0,1,.08.23.93.93,0,0,1-.13-.2l-.36-.64-1.35-2.42c-1.19-2.1-3-5.1-5.23-8.79A137.76,137.76,0,0,1,195,415.77a48,48,0,0,1-4.77-17.93,33.35,33.35,0,0,1,.17-4.91,39.24,39.24,0,0,1,.85-4.69c.72-3,1.62-5.89,2.32-8.65a38.25,38.25,0,0,0,1.27-7.94c.11-2.53,0-4.89-.05-7a26.42,26.42,0,0,1,1.35-10.13,11.94,11.94,0,0,1,1.26-2.49,7.05,7.05,0,0,1,.42-.59A1.07,1.07,0,0,1,198,351.2Z" style="fill:#263238"></path><path d="M355.31,244.66c8.62-10.77,17.72-23.14,16.18-36.84-.61-5.42-2.89-10.55-3.48-16a26.71,26.71,0,0,1,12.37-25.15l-11.22,1.51a87.15,87.15,0,0,0,13.14-30.85c.86-4.06,1.47-8.3,3.59-11.87,5.3-8.91,17.7-10.47,25.24-17.6,3-2.86,5-8.17,1.85-10.89-2.81-2.45-7.18-.65-10.21,1.52s-6.54,4.8-10.09,3.68c-4.75-1.5-5.09-8.35-2.87-12.81s6.06-8.3,6.71-13.24c.87-6.54-4-12.23-8.1-17.42s-7.67-12.42-4.25-18.06a24.1,24.1,0,0,0-1.39,25.54c-5.61-.45-10-6.64-8.58-12.08-4.36.24-6.82,5.52-6.2,9.84s3.2,8.07,4.8,12.13,2,9.27-1.21,12.26c-2.89,2.73-7.37,2.47-11.32,2.89-13.72,1.46-25.15,14.63-24.66,28.42.09,2.76.59,5.6-.25,8.22s-3.7,4.91-6.27,3.9c-2.33-.92-3.06-3.84-3.16-6.35a31.39,31.39,0,0,1,4.64-17.66,25.22,25.22,0,0,0-13,22.13c.06,4.47,1.25,9.33-1.1,13.14-1.33,2.16-3.58,3.56-5.26,5.46-5.22,5.9-3.83,15.15-.52,22.29s8.26,13.74,9.51,21.52c1.49,9.29-2.53,19.17.66,28,2,5.61,6.79,10,12.28,12.34s11.61,2.9,17.56,2.47c1.86-.13,3.87-.32,5.43.69,1.84,1.19,2.41,3.73,1.91,5.87a16.3,16.3,0,0,1-3.14,5.72" style="fill:#E27676"></path><g style="opacity:0.7000000000000001"><path d="M355.31,244.66c8.62-10.77,17.72-23.14,16.18-36.84-.61-5.42-2.89-10.55-3.48-16a26.71,26.71,0,0,1,12.37-25.15l-11.22,1.51a87.15,87.15,0,0,0,13.14-30.85c.86-4.06,1.47-8.3,3.59-11.87,5.3-8.91,17.7-10.47,25.24-17.6,3-2.86,5-8.17,1.85-10.89-2.81-2.45-7.18-.65-10.21,1.52s-6.54,4.8-10.09,3.68c-4.75-1.5-5.09-8.35-2.87-12.81s6.06-8.3,6.71-13.24c.87-6.54-4-12.23-8.1-17.42s-7.67-12.42-4.25-18.06a24.1,24.1,0,0,0-1.39,25.54c-5.61-.45-10-6.64-8.58-12.08-4.36.24-6.82,5.52-6.2,9.84s3.2,8.07,4.8,12.13,2,9.27-1.21,12.26c-2.89,2.73-7.37,2.47-11.32,2.89-13.72,1.46-25.15,14.63-24.66,28.42.09,2.76.59,5.6-.25,8.22s-3.7,4.91-6.27,3.9c-2.33-.92-3.06-3.84-3.16-6.35a31.39,31.39,0,0,1,4.64-17.66,25.22,25.22,0,0,0-13,22.13c.06,4.47,1.25,9.33-1.1,13.14-1.33,2.16-3.58,3.56-5.26,5.46-5.22,5.9-3.83,15.15-.52,22.29s8.26,13.74,9.51,21.52c1.49,9.29-2.53,19.17.66,28,2,5.61,6.79,10,12.28,12.34s11.61,2.9,17.56,2.47c1.86-.13,3.87-.32,5.43.69,1.84,1.19,2.41,3.73,1.91,5.87a16.3,16.3,0,0,1-3.14,5.72" style="fill:#fff"></path></g><path d="M298.85,314.65c-2.13-8.18,2.65-16.55,8.18-22.94,9.35-10.8,21.22-19,31.91-28.5s20.59-20.83,23.93-34.71a29.39,29.39,0,0,1-8.27,5.92,56.34,56.34,0,0,0,8.85-26.22c.79-10.25-1.25-20.58-.23-30.8.84-8.35,3.7-16.37,7.18-24a149.6,149.6,0,0,1,40.9-53.23s-16.24,2.46-31.44,18.08c0,0,21.53-40.12,37.16-55.74,0,0-14.78,4.64-22.38,13.51s-28.3,39.7-28.3,39.7l16.89-38.43a42.64,42.64,0,0,0-16.47,21.11c-5.06,14.36-16.89,38.43-16.89,38.43s6.74-40.54,7.8-41.38-6.53,5.49-8.22,11.82-16.89,39.28-17.74,49.41-4.22,25.76-4.22,25.76-3.38-31.67-.85-46.45c0,0-5.91,13.09-7.17,20.27s-1.27,41.39-1.27,41.39-5.91,5.49-5.49,11.82c0,0-6.76,3-4.65,21.12,0,0-5.95.42-9.73,18.16,0,0-3.78-5.07-8,1.69s-30,55.74-30,55.74Z" style="fill:#E27676"></path><path d="M330.37,258.2a2.05,2.05,0,0,1-.09.57c-.06.38-.2.92-.32,1.63a60.8,60.8,0,0,0-.86,6,78.73,78.73,0,0,0,.89,20,175.37,175.37,0,0,0,4.65,19.59c.7,2.43,1.28,4.42,1.7,5.87.18.65.33,1.18.44,1.61a2,2,0,0,1,.12.57,3.51,3.51,0,0,1-.22-.54c-.14-.42-.32-.94-.53-1.58-.46-1.37-1.1-3.35-1.86-5.82a152.1,152.1,0,0,1-4.81-19.61,74.13,74.13,0,0,1-.75-20.16,52.39,52.39,0,0,1,1-6c.15-.71.32-1.24.42-1.61A2.18,2.18,0,0,1,330.37,258.2Z" style="fill:#E27676"></path><path d="M315.48,233.8a8.24,8.24,0,0,0-3.29.74,6,6,0,0,0-2.6,2.45,6.19,6.19,0,0,0-.63,4.28,4.26,4.26,0,0,0,.14.54l.07.25-.24.08a16.25,16.25,0,0,0-6.6,4.12c-1.4,1.44-2,2.53-2.11,2.48a2.64,2.64,0,0,1,.4-.79,12.57,12.57,0,0,1,1.45-1.94,15.47,15.47,0,0,1,6.7-4.37l-.17.33c-.05-.19-.11-.38-.15-.59a6.55,6.55,0,0,1,.73-4.62,6.23,6.23,0,0,1,5.37-3.1A2,2,0,0,1,315.48,233.8Z" style="fill:#263238"></path><path d="M331.27,220.15c0,.08-.67,0-1.69.12a5.89,5.89,0,0,0-5.1,5.34c-.11,1,0,1.68-.05,1.69a2.94,2.94,0,0,1-.32-1.71,5.81,5.81,0,0,1,5.43-5.69A3,3,0,0,1,331.27,220.15Z" style="fill:#263238"></path><path d="M336.29,218.47a1.71,1.71,0,0,1,0,.52c-.05.4-.12.89-.2,1.48s-.2,1.43-.39,2.34-.35,1.94-.64,3.06a75.85,75.85,0,0,1-2.28,7.84,83,83,0,0,1-3.9,9.2,86.35,86.35,0,0,1-5.06,8.63,76.68,76.68,0,0,1-4.93,6.5c-.73.91-1.46,1.66-2.08,2.35s-1.18,1.25-1.64,1.7l-1.08,1a1.83,1.83,0,0,1-.39.34s.1-.15.32-.41l1-1.11c.44-.47,1-1.05,1.57-1.76s1.3-1.47,2-2.38c1.47-1.79,3.11-4,4.82-6.54a90.84,90.84,0,0,0,5-8.59,92.85,92.85,0,0,0,3.92-9.13c1-2.88,1.82-5.52,2.37-7.76.31-1.12.51-2.15.72-3s.36-1.67.47-2.31.22-1.07.29-1.46A2.22,2.22,0,0,1,336.29,218.47Z" style="fill:#263238"></path><path d="M346.84,150.67a.7.7,0,0,1-.06.23l-.23.65c-.22.61-.53,1.45-.92,2.5s-.81,2.44-1.29,4-1,3.37-1.41,5.39a112.51,112.51,0,0,0-2.31,14.32c-.54,5.44-.81,11.45-.85,17.76,0,5.22,0,10.24.12,14.9l-.49,0a20.41,20.41,0,0,0-5.45-11l.35-.18,2.07,13.15c.23,1.53.41,2.75.54,3.63,0,.39.09.7.13.95a1.63,1.63,0,0,1,0,.33,1.29,1.29,0,0,1-.08-.32c-.05-.25-.11-.56-.19-.94-.16-.88-.37-2.09-.65-3.61-.54-3.18-1.31-7.66-2.25-13.12l-.11-.65.46.47a20.71,20.71,0,0,1,5.65,11.17l-.49,0c-.1-4.66-.19-9.69-.15-14.92,0-6.32.32-12.35.9-17.8a106.28,106.28,0,0,1,2.42-14.35c.46-2,1-3.82,1.49-5.4s1-2.9,1.38-4l1-2.47.27-.63A1.07,1.07,0,0,1,346.84,150.67Z" style="fill:#263238"></path><path d="M372.17,125.93a4.06,4.06,0,0,1-.41.57l-1.25,1.57-4.62,5.74a124.35,124.35,0,0,0-13.52,20.13,65,65,0,0,0-4.85,12.41,50.53,50.53,0,0,0-1.76,10.73,42.63,42.63,0,0,0,.23,7.33c.07.87.22,1.53.27,2a3.58,3.58,0,0,1,.07.7,3.34,3.34,0,0,1-.18-.68c-.08-.45-.26-1.11-.36-2a39.25,39.25,0,0,1-.4-7.38,49.66,49.66,0,0,1,1.66-10.84,64.58,64.58,0,0,1,4.85-12.52,116.7,116.7,0,0,1,13.7-20.12c2-2.41,3.61-4.32,4.75-5.64l1.33-1.51A3.31,3.31,0,0,1,372.17,125.93Z" style="fill:#263238"></path><path d="M363,123.4a4.7,4.7,0,0,1-.49,1c-.4.74-.9,1.66-1.5,2.75-1.28,2.32-3.08,5.5-5.11,9s-3.87,6.65-5.24,8.92L349,147.78a5.12,5.12,0,0,1-.66.95,4.32,4.32,0,0,1,.48-1c.41-.74.91-1.66,1.5-2.75,1.28-2.32,3.09-5.5,5.11-9s3.88-6.65,5.25-8.92l1.64-2.67A5.22,5.22,0,0,1,363,123.4Z" style="fill:#263238"></path><path d="M283.05,263.47l5.72-1.82-2.86-1s3.13-3.78,14.57,0,21.69,16.57,21.69,16.57l-1.56,1.33s-16.25-15.07-31.39-12.77l4.83,1.93-12.68-1.12Z" style="opacity:0.30000000000000004"></path><path d="M344.2,247.36a11.11,11.11,0,0,1,1.23-2.19,52.73,52.73,0,0,1,3.6-4.87,54.25,54.25,0,0,1,4.16-4.41,10.78,10.78,0,0,1,1.94-1.59,15.52,15.52,0,0,1-1.68,1.86c-1.06,1.11-2.51,2.67-4,4.48s-2.78,3.5-3.7,4.74A12.64,12.64,0,0,1,344.2,247.36Z" style="fill:#263238"></path><path d="M331.57,258.66a11.76,11.76,0,0,1,.13-4.87,5.92,5.92,0,0,1,.2,2.45A5.77,5.77,0,0,1,331.57,258.66Z" style="fill:#263238"></path><path d="M333.06,257.79a17.16,17.16,0,0,1,.27-2.87,16.23,16.23,0,0,1,.25-2.87,8.21,8.21,0,0,1-.52,5.74Z" style="fill:#263238"></path><path d="M334.26,256.39c-.13-.09.63-1.29,1-3s.13-3.08.29-3.11a4.7,4.7,0,0,1,.22,3.21A4.76,4.76,0,0,1,334.26,256.39Z" style="fill:#263238"></path><path d="M356.39,99a4.9,4.9,0,0,1-.37.8c-.29.55-.67,1.31-1.16,2.25s-1.13,2.16-1.81,3.57-1.49,3-2.28,4.78-1.73,3.74-2.6,5.88-1.81,4.42-2.76,6.83c-1.81,4.87-3.64,10.28-5.28,16s-2.85,11.35-3.82,16.45c-.45,2.56-.9,5-1.21,7.27s-.61,4.42-.83,6.37-.38,3.72-.53,5.27-.25,2.9-.31,4-.14,1.91-.18,2.53a5.57,5.57,0,0,1-.1.88,5.52,5.52,0,0,1,0-.89c0-.62.05-1.46.09-2.53s.09-2.44.22-4,.22-3.34.45-5.29.43-4.1.78-6.39.72-4.73,1.15-7.3c1-5.12,2.19-10.71,3.8-16.5s3.49-11.2,5.34-16.07c1-2.41,1.85-4.72,2.8-6.83s1.82-4.09,2.66-5.86,1.66-3.36,2.36-4.76,1.35-2.58,1.89-3.53l1.25-2.21A7,7,0,0,1,356.39,99Z" style="fill:#263238"></path><path d="M414.78,62.3a4.45,4.45,0,0,1-.53.59c-.41.41-.94,1-1.61,1.65-1.42,1.4-3.43,3.48-5.88,6.07s-5.3,5.75-8.39,9.31-6.35,7.6-9.66,11.92-6.31,8.56-9,12.46-4.93,7.49-6.78,10.54-3.33,5.53-4.32,7.26c-.49.83-.87,1.49-1.16,2a3.76,3.76,0,0,1-.44.67s.11-.25.35-.72.62-1.19,1.07-2c.94-1.77,2.36-4.29,4.18-7.36s4.08-6.68,6.7-10.62,5.64-8.16,8.95-12.51,6.62-8.33,9.71-11.91,6-6.69,8.48-9.25,4.55-4.6,6-6l1.68-1.57A3.77,3.77,0,0,1,414.78,62.3Z" style="fill:#263238"></path><path d="M323,195.13a2.65,2.65,0,0,1-.13-.58c-.08-.43-.17-1-.29-1.66-.25-1.45-.53-3.56-.8-6.18s-.49-5.74-.61-9.21-.07-7.3.15-11.31.64-7.81,1.11-11.26,1.06-6.52,1.63-9.09,1.08-4.63,1.48-6.05c.2-.66.35-1.19.48-1.62a3.69,3.69,0,0,1,.19-.56,2.14,2.14,0,0,1-.09.59c-.1.43-.23,1-.38,1.64-.35,1.43-.8,3.5-1.32,6.07s-1,5.65-1.51,9.09-.84,7.22-1.07,11.22-.25,7.8-.19,11.27.26,6.58.5,9.19.44,4.72.63,6.18l.19,1.68A2.2,2.2,0,0,1,323,195.13Z" style="fill:#263238"></path><g style="opacity:0.30000000000000004"><path d="M327.78,182.56q.23,9.91.44,19.83c3.52-6.78,3.88-14.75,3.63-22.39s-1-15.39.57-22.87l-4.74,26.26"></path></g><g style="opacity:0.30000000000000004"><path d="M332.44,204.13c1.58,13.19-3.28,26.2-8.06,38.59q-2.49,6.43-5,12.86h0a5.3,5.3,0,0,0,2.6-2.21c4.31-7.29,8.58-11.84,11.06-22.57C335.12,222,336.16,212.42,332.44,204.13Z"></path></g><path d="M385,34.53c-1.53-1.32-2.73-4-3.2-7.15a36.53,36.53,0,0,0,2.62-7.61c1.84,3.72,2.05,10.11.48,14.27" style="fill:#E27676"></path><g style="opacity:0.7000000000000001"><path d="M385,34.53c-1.53-1.32-2.73-4-3.2-7.15a36.53,36.53,0,0,0,2.62-7.61c1.84,3.72,2.05,10.11.48,14.27" style="fill:#fff"></path></g><path d="M283,439.15c-.28-2.3-19-23.86-20.41-28.18s-10.07-18.11-10.07-18.11L245,396.31c3.16,3.16,8.34,8.63,10.64,13.51s4.31,12.08,3.74,15.53-2,9.49,3.16,10.93c0,0-.86-2,0-5.75s1.15-3.74,4-.87,1.95,3.74,2.27,6.62a44.84,44.84,0,0,1,0,6.9s3.49-1.44,4.35-4.31a6.68,6.68,0,0,0,0-4.61s6.32,4.32,6,6a19.32,19.32,0,0,0,0,4.32S283.28,441.45,283,439.15Z" style="fill:#455a64"></path><path d="M257,400.67a9.56,9.56,0,0,0-3.11.66,9.94,9.94,0,0,0-2.6,1.82,2.73,2.73,0,0,1,.6-.73,6.51,6.51,0,0,1,4.16-1.81A2.75,2.75,0,0,1,257,400.67Z" style="fill:#263238"></path><path d="M260.21,406.51c0-.18-1.23,0-2.61.72a13.78,13.78,0,0,0-2.29,1.57,2.32,2.32,0,0,1,.54-.62,7.2,7.2,0,0,1,1.66-1.14,6.77,6.77,0,0,1,1.9-.63,1.49,1.49,0,0,1,.61,0C260.18,406.42,260.22,406.51,260.21,406.51Z" style="fill:#263238"></path><path d="M263.41,413.12a9.53,9.53,0,0,0-2.92.63,7.26,7.26,0,0,0-1.82,1.1l-.49.42a.16.16,0,0,1-.11.05c-.05,0-.08-.07-.05-.09s.09,0,.06,0-.07.09.05,0a4.37,4.37,0,0,1,.45-.48,6.09,6.09,0,0,1,1.82-1.18,6.34,6.34,0,0,1,2.12-.5A2.65,2.65,0,0,1,263.41,413.12Z" style="fill:#263238"></path><path d="M267.66,418.81s-.49,0-1.27.06a13.59,13.59,0,0,0-3,.5,13.76,13.76,0,0,0-2.81,1.17c-.68.38-1.08.66-1.1.63s.08-.09.25-.22a7.24,7.24,0,0,1,.78-.53,11.42,11.42,0,0,1,5.88-1.7,7.61,7.61,0,0,1,.93,0A1.38,1.38,0,0,1,267.66,418.81Z" style="fill:#263238"></path><path d="M262.28,431.55a12.68,12.68,0,0,0-1.57-1.24,2,2,0,0,0-1.34-.2c-.34.08-.52.23-.55.2a.86.86,0,0,1,.51-.34,2,2,0,0,1,1.47.15,3.57,3.57,0,0,1,1.13.93C262.17,431.34,262.3,431.53,262.28,431.55Z" style="fill:#263238"></path><path d="M264.19,427.68c-.05,0-.77-.94-1.89-1.92a3,3,0,0,0-1.61-.86,3.55,3.55,0,0,0-.77,0,1.1,1.1,0,0,1,.78-.19,2.89,2.89,0,0,1,1.74.85,10.11,10.11,0,0,1,1.32,1.41A2.61,2.61,0,0,1,264.19,427.68Z" style="fill:#263238"></path><path d="M280.74,435.66a3.6,3.6,0,0,0-1.9.51,3.68,3.68,0,0,0-1.23,1.53,1.11,1.11,0,0,1,.15-.59,2.73,2.73,0,0,1,1-1.12,2.66,2.66,0,0,1,1.4-.44A1.16,1.16,0,0,1,280.74,435.66Z" style="fill:#263238"></path><path d="M271.33,423.44s-.45.07-1.13.34a6.48,6.48,0,0,0-2.29,1.61,17.78,17.78,0,0,0-2.16,3.39,5.38,5.38,0,0,1,.43-1.11,9.48,9.48,0,0,1,1.58-2.42,6,6,0,0,1,2.39-1.61,4,4,0,0,1,.86-.2A.87.87,0,0,1,271.33,423.44Z" style="fill:#263238"></path><path d="M276.17,429.51a3.49,3.49,0,0,0-1.23-.31,6.44,6.44,0,0,0-3,.72,8.36,8.36,0,0,0-2.49,1.82c-.55.58-.82,1-.85,1a1.5,1.5,0,0,1,.16-.32,6.38,6.38,0,0,1,.58-.77,7.52,7.52,0,0,1,2.51-1.91,6.1,6.1,0,0,1,3.09-.68,2.71,2.71,0,0,1,.93.25C276.09,429.41,276.18,429.5,276.17,429.51Z" style="fill:#263238"></path><path d="M273.37,438.26a2.71,2.71,0,0,0-3.78-.47c-.36.27-.53.5-.56.48a1.43,1.43,0,0,1,.47-.6,2.64,2.64,0,0,1,1.71-.65,2.68,2.68,0,0,1,1.72.63C273.31,438,273.41,438.25,273.37,438.26Z" style="fill:#263238"></path><path d="M303.52,275.37a6.43,6.43,0,0,1-2.11-.81c-1.12-.52-2-.94-2-1.08a4.23,4.23,0,0,1,2.2.61C302.77,274.62,303.59,275.25,303.52,275.37Z" style="fill:#263238"></path><path d="M304.45,274.26c-.07.13-.95-.29-2-.79s-2-.89-1.93-1a4,4,0,0,1,2.15.56C303.75,273.51,304.53,274.15,304.45,274.26Z" style="fill:#263238"></path><path d="M307,274.76c-.12.09-.82-.65-1.85-1.31s-2-1-1.95-1.16a3.25,3.25,0,0,1,2.23.72C306.57,273.73,307.13,274.68,307,274.76Z" style="fill:#263238"></path><path d="M229.21,402.89c.09-.71,4.6-24.76,4.6-24.76l-6.42-.48c-.31.79-3.49,27.45-2.83,28.63s2.9,4.1,2.37,5.19-.29,7.13-5,7.89c0,0,3.77,2,5.3.56s3.86-3.14,4.1-4.71,1.95,1.68,1.77,3.09-1.8,5.61-3.51,5.7a7.08,7.08,0,0,0,4.07-1.4c1.66-1.4,3-5.33,3-5.33l1.38-3.54S229.12,403.6,229.21,402.89Z" style="fill:#455a64"></path><path d="M232.41,385.1s-.25-.25-.74-.51a4.44,4.44,0,0,0-2.07-.42c-.85,0-1.63,0-2.18.09s-.88.14-.89.11a2.5,2.5,0,0,1,.87-.26,17.65,17.65,0,0,1,2.2-.15,4,4,0,0,1,2.15.51A1.56,1.56,0,0,1,232.41,385.1Z" style="fill:#263238"></path><path d="M231.29,391.33a7.35,7.35,0,0,0-2.73-.7,7.12,7.12,0,0,0-2.75.6,2.23,2.23,0,0,1,.74-.43,4.92,4.92,0,0,1,2-.37,4.85,4.85,0,0,1,2,.45A2,2,0,0,1,231.29,391.33Z" style="fill:#263238"></path><path d="M229.74,398.92a5,5,0,0,0-2.22-1.13,5,5,0,0,0-2.48.3,3.5,3.5,0,0,1,4.7.83Z" style="fill:#263238"></path><path d="M230.21,404.11a2.73,2.73,0,0,0-.91-.15,6,6,0,0,0-2.19.49,8.11,8.11,0,0,0-2.56,1.88,2.68,2.68,0,0,1,.57-.77,5.82,5.82,0,0,1,1.91-1.3,5.48,5.48,0,0,1,2.27-.45A1.27,1.27,0,0,1,230.21,404.11Z" style="fill:#263238"></path><path d="M234.62,409.51a3.41,3.41,0,0,0-1.13-.39,6.76,6.76,0,0,0-2.86.37,10.55,10.55,0,0,0-2.64,1.23c-.63.4-1,.7-1,.67s.07-.09.23-.24a7,7,0,0,1,.7-.56,9.27,9.27,0,0,1,2.66-1.3,6.36,6.36,0,0,1,2.94-.32,2.32,2.32,0,0,1,.85.32A1,1,0,0,1,234.62,409.51Z" style="fill:#263238"></path><path d="M229.27,417.93a8.55,8.55,0,0,0-1.19-1.73,8.71,8.71,0,0,0-1.71-1.22,3.44,3.44,0,0,1,1.86,1.07A3.48,3.48,0,0,1,229.27,417.93Z" style="fill:#263238"></path><path d="M236.6,417.39s-.14-.19-.44-.38a2,2,0,0,0-1.3-.25,3.37,3.37,0,0,0-1.3.41c-.3.18-.43.36-.46.34s.07-.24.38-.47a2.79,2.79,0,0,1,1.36-.48,1.91,1.91,0,0,1,1.41.33C236.55,417.14,236.62,417.38,236.6,417.39Z" style="fill:#263238"></path><path d="M317.25,275.37s13.26,12,14.2,17.36,6.64,22.43,6.16,25.27l-1,3.06s.75,13.7-.19,16-2.25,3-3.56,3.19a18.37,18.37,0,0,1-3.38,0,2.7,2.7,0,0,0,1.31-3.19c-.75-2.07-9-13.52-11.08-15.77s-8.63-7.7-15.77-6.39S281,324.81,278.59,328s-12,5.82-13.14,14.09a117.74,117.74,0,0,1-7.89,28c-3.57,8.07-5.32,10.26-5.7,15.89s1.87,8.63,1.87,8.63l-7.81,3.64s-11.83-9.2-12.2-14.46-3-20.27-3.38-27.78l-.75-5.07s-7.7,11.64-13.9,12.58h-6.57l12-9.95-15.21,4.32a2.49,2.49,0,0,1,0-3c1.13-1.69,11.27-6.38,11.27-6.38l-11.77-.19,2.08-19S229.4,325.38,236,314.3A226,226,0,0,0,247.42,292l36.24-22.72S311.41,272.12,317.25,275.37Z" style="fill:#E27676"></path><path d="M336.74,324.08c-.14-3-2.44-5.23-2.56-7.09-.29-4.77-6.61-8.25-6.61-8.25-2.25,3-2.08,6.13-2.13,9.66,0,2.81-2.34,5.11-3.27,5.93l.89,1.18.73,1Z" style="opacity:0.30000000000000004"></path><path d="M336.74,324.08l-6.79-.8-6.16,3.23c3.16,4.25,6.48,9.09,7,10.51a2.7,2.7,0,0,1-1.31,3.19,18.37,18.37,0,0,0,3.38,0c1.31-.19,2.62-.94,3.56-3.19C337.21,335.1,336.88,327.07,336.74,324.08Z" style="fill:#263238"></path><path d="M331.68,316.89a2.28,2.28,0,1,1-.2-3.23A2.28,2.28,0,0,1,331.68,316.89Z" style="fill:#263238"></path><path d="M340.77,292.51a29.86,29.86,0,0,1-1.43,3.29A26.71,26.71,0,0,0,337,304a56.32,56.32,0,0,0-.18,8.62c.1,2.21.24,3.57.16,3.58a3.12,3.12,0,0,1-.21-.94c-.1-.62-.22-1.51-.32-2.62a45.12,45.12,0,0,1,0-8.7,23.71,23.71,0,0,1,2.57-8.3c.49-1,.93-1.79,1.23-2.33A3.34,3.34,0,0,1,340.77,292.51Z" style="fill:#E27676"></path><path d="M338.62,269.49a2.51,2.51,0,0,1-.12.45c-.11.35-.25.77-.42,1.28s-.42,1.22-.65,2-.53,1.68-.78,2.69a71.48,71.48,0,0,0-1.55,7.12,74.73,74.73,0,0,0-.91,8.88,78,78,0,0,0,.21,8.92,72.33,72.33,0,0,0,1,7.23c.16,1,.4,1.93.57,2.74s.34,1.5.49,2.06l.32,1.31a2,2,0,0,1,.08.46s-.08-.14-.18-.43-.25-.78-.42-1.28-.38-1.24-.58-2.05-.45-1.71-.64-2.74a64.64,64.64,0,0,1-1.12-7.25,74.49,74.49,0,0,1-.25-9,71.49,71.49,0,0,1,.95-8.94,63.41,63.41,0,0,1,1.68-7.14c.27-1,.59-1.9.86-2.69s.51-1.45.73-2l.51-1.24C338.53,269.63,338.6,269.48,338.62,269.49Z" style="fill:#E27676"></path><path d="M228,347.51c2.47-1,12.88-3.92,15.48-4.46a6,6,0,0,1,4.08.18c1.52.83,2.09,2.74,2.21,4.47.4,6-12.41,28.53-16.4,33.07l-6.57-.66s-.09-6.51,1.17-10c.22-.59-6.93-2.36-6.4-9.94A19.69,19.69,0,0,1,228,347.51Z" style="fill:#E27676"></path><path d="M330,315.81c-.12.08-.53-.37-.75-1.06s-.15-1.29,0-1.29.3.51.5,1.13S330.07,315.73,330,315.81Z" style="fill:#fff"></path><path d="M329.59,325.72s0-.09.16-.09a.56.56,0,0,1,.44.31,15.48,15.48,0,0,1,.61,1.73c.46,1.45,1.07,3.47,1.7,5.7a12.57,12.57,0,0,1,.68,3.26,3.31,3.31,0,0,1-1.07,2.55,3.14,3.14,0,0,1-1.66.83c-.44.06-.68,0-.68,0a4.27,4.27,0,0,0,2.09-1.07,3,3,0,0,0,.84-2.28,14,14,0,0,0-.7-3.13c-.63-2.23-1.18-4.26-1.56-5.74-.19-.73-.31-1.37-.43-1.73a.48.48,0,0,0-.27-.31C329.66,325.7,329.6,325.74,329.59,325.72Z" style="fill:#455a64"></path><path d="M335.18,334.83c-.14,0-.27-.45-.29-1s.08-1.06.22-1.06.28.47.3,1S335.33,334.81,335.18,334.83Z" style="fill:#455a64"></path><path d="M226,344.77a4.34,4.34,0,0,1,.62-.45c.41-.28,1-.67,1.84-1.18a59.66,59.66,0,0,1,7.06-3.86,30.45,30.45,0,0,1,5.26-1.87,20.61,20.61,0,0,1,6.38-.63,9.32,9.32,0,0,1,3.45.72,3.12,3.12,0,0,1,1.37,1.32,5,5,0,0,1,.49,1.83,22.34,22.34,0,0,1-.62,7.59c-1.31,5.07-3.67,9.48-5.77,13.44s-4.28,7.39-6.15,10.23-3.49,5.06-4.64,6.57c-.58.76-1,1.33-1.36,1.72a4.64,4.64,0,0,1-.5.57,3.73,3.73,0,0,1,.42-.64l1.28-1.77c1.1-1.54,2.67-3.79,4.49-6.65s3.92-6.31,6-10.26a62.14,62.14,0,0,0,5.68-13.34,21.81,21.81,0,0,0,.62-7.4,4.72,4.72,0,0,0-.42-1.66,2.63,2.63,0,0,0-1.16-1.1,8.57,8.57,0,0,0-3.25-.69,24.75,24.75,0,0,0-11.46,2.35,70.83,70.83,0,0,0-7.11,3.7l-1.89,1.1A3.76,3.76,0,0,1,226,344.77Z" style="fill:#263238"></path><path d="M250.42,363a6.27,6.27,0,0,1,0,2.29,14.83,14.83,0,0,1-1.73,5.27,1.62,1.62,0,0,1-.68.64.74.74,0,0,1-.57,0,.8.8,0,0,1-.41-.4,3.53,3.53,0,0,1-.17-.79l-.08-.72a15.13,15.13,0,0,1,0-2.49,6.47,6.47,0,0,1,.41-2.26c.08,0,0,.88,0,2.27a20.24,20.24,0,0,0,.14,2.43c0,.23.07.46.1.69a4.08,4.08,0,0,0,.15.66c.08.13.14.17.3.1a1.21,1.21,0,0,0,.45-.45,17.36,17.36,0,0,0,1.81-5.05C250.3,363.89,250.34,363,250.42,363Z" style="fill:#263238"></path><path d="M255.15,359.56a28.57,28.57,0,0,1-1.59,5.2,10.13,10.13,0,0,1-.86,2,2.18,2.18,0,0,1-.72.7,1.44,1.44,0,0,1-.9.19,1.25,1.25,0,0,1-1-.69c-.11-.3,0-.47,0-.46s0,.16.18.37a1.09,1.09,0,0,0,.89.41,1.37,1.37,0,0,0,1.19-.78,11.65,11.65,0,0,0,.77-1.91A27.79,27.79,0,0,1,255.15,359.56Z" style="fill:#263238"></path><path d="M265.55,326.83a11.67,11.67,0,0,1-1.07,3.3,12.06,12.06,0,0,1-1.54,3.11,11.36,11.36,0,0,1,1.06-3.31A11.93,11.93,0,0,1,265.55,326.83Z" style="fill:#263238"></path><path d="M269.31,323.39c.12.1-1.08,1.77-2.19,4s-1.74,4.23-1.89,4.18a15.55,15.55,0,0,1,4.08-8.21Z" style="fill:#263238"></path><path d="M273,323.37a19.91,19.91,0,0,1-2.26,2.4,20.9,20.9,0,0,1-2.27,2.39,7.13,7.13,0,0,1,1.89-2.74A7.42,7.42,0,0,1,273,323.37Z" style="fill:#263238"></path><path d="M220.66,328a10.34,10.34,0,0,1,2.23-.57,9.55,9.55,0,0,1,2.24-.51,5.6,5.6,0,0,1-4.47,1.08Z" style="fill:#263238"></path><path d="M221.88,329.25c0-.14.66-.32,1.5-.4s1.54,0,1.55.12-.66.32-1.5.4S221.9,329.4,221.88,329.25Z" style="fill:#263238"></path><path d="M227.2,380.15a2.42,2.42,0,0,1-.17-.73,16.73,16.73,0,0,1-.18-2.09,27.37,27.37,0,0,1,.12-3.24,16.88,16.88,0,0,1,.82-4.11l.15.31a9.78,9.78,0,0,1-5.66-5.12,11.59,11.59,0,0,1-1-6.91,14.85,14.85,0,0,1,1.95-5.38,17.83,17.83,0,0,1,2.29-3.09,9.54,9.54,0,0,1,.74-.73c.17-.16.27-.24.29-.23a31.15,31.15,0,0,0-3,4.23,15.4,15.4,0,0,0-1.8,5.27,11.31,11.31,0,0,0,1,6.61,9.39,9.39,0,0,0,5.33,4.9l.24.08-.09.23a16.93,16.93,0,0,0-.87,4,29,29,0,0,0-.22,3.2C227.09,379.11,227.26,380.14,227.2,380.15Z" style="fill:#263238"></path><g style="opacity:0.30000000000000004"><path d="M233.78,380.27a9.68,9.68,0,0,0,1.21,5.45,2.55,2.55,0,0,0,.79,1c1.15.75,2.64-.29,3.47-1.4,3.73-5,3.63-12.11,7.36-17.13,1.51-2,3.61-3.64,4.8-5.88a17.25,17.25,0,0,0,1.5-5.78c.57-4.31,1-8.89-.83-12.85a33,33,0,0,1-2.21,9.69,59.14,59.14,0,0,1-6.86,13.2c-3.21,4.63-5.72,9.42-9.23,13.74"></path></g><path d="M321.91,279.81a2.71,2.71,0,0,1-.48-.36l-1.3-1.1c-1.14-.94-2.78-2.32-5-3.8-1.09-.75-2.32-1.47-3.68-2.26s-2.72-1.72-4.23-2.6a27.06,27.06,0,0,0-10.65-3.43,44.93,44.93,0,0,0-7.37-.23l.1-.48a22.54,22.54,0,0,0,6.65,2.33l-.09.44a69.08,69.08,0,0,0-10.51-1.3c-1.28-.1-2.29-.19-3-.27a5.25,5.25,0,0,1-1-.16,7.72,7.72,0,0,1,1.06,0l3,.14a62.5,62.5,0,0,1,10.6,1.13l-.09.44a22.58,22.58,0,0,1-6.8-2.32l-.82-.43.92-.05a44.91,44.91,0,0,1,7.46.22,27.1,27.1,0,0,1,10.84,3.54c1.51.9,2.88,1.84,4.21,2.65s2.58,1.55,3.66,2.32a50.87,50.87,0,0,1,4.88,3.95c.55.5,1,.9,1.24,1.17A3.26,3.26,0,0,1,321.91,279.81Z" style="fill:#263238"></path><path d="M344.36,293.3a14.06,14.06,0,0,0-6.29,8,3.37,3.37,0,0,1,.24-1.55,10.22,10.22,0,0,1,1.75-3.35,10.35,10.35,0,0,1,2.85-2.49A3.47,3.47,0,0,1,344.36,293.3Z" style="fill:#E27676"></path><path d="M336.44,287.59c.14,0-.4,2.45-.79,5.46s-.49,5.49-.64,5.49a25.72,25.72,0,0,1,1.43-11Z" style="fill:#E27676"></path><path d="M332.83,278.49c.15,0-.4,2.32-.48,5.18s.3,5.16.14,5.19a12.84,12.84,0,0,1-.66-5.21A13,13,0,0,1,332.83,278.49Z" style="fill:#E27676"></path><path d="M225.6,317.84c0-.1,1.35-.15,3.42-.76a17.2,17.2,0,0,0,11.57-11.22c.67-2.05.76-3.4.86-3.39a3.16,3.16,0,0,1,0,.95,14.84,14.84,0,0,1-.5,2.55,16.49,16.49,0,0,1-11.82,11.47,14.25,14.25,0,0,1-2.56.41A3.17,3.17,0,0,1,225.6,317.84Z" style="fill:#E27676"></path><path d="M228.73,310.69c0-.09,1,.05,2.46-.12a11.81,11.81,0,0,0,5.46-2,12,12,0,0,0,3.78-4.42c.68-1.35.87-2.29,1-2.27a6,6,0,0,1-.63,2.43,11,11,0,0,1-9.54,6.65A5.8,5.8,0,0,1,228.73,310.69Z" style="fill:#E27676"></path><path d="M332.76,318.2a33.57,33.57,0,0,0-1.16-3.41,30.63,30.63,0,0,0-2-3,7,7,0,0,1,3.15,6.4Z" style="fill:#263238"></path><path d="M303.32,312.55c0-.14,1.31-.59,2.79-1.5s2.51-1.87,2.62-1.77a7.64,7.64,0,0,1-5.41,3.27Z" style="fill:#263238"></path><path d="M299.32,313.08c0-.14,1.25-.54,2.63-1.4s2.32-1.81,2.43-1.71a6.64,6.64,0,0,1-5.06,3.11Z" style="fill:#263238"></path><path d="M310.63,290.14a3.65,3.65,0,0,1,2.33.55c1.21.6,1.94,1.44,1.84,1.53s-.94-.5-2.07-1.06A12.8,12.8,0,0,1,310.63,290.14Z" style="fill:#263238"></path><path d="M310.28,289.46a4.75,4.75,0,0,1,2.65.2,4.87,4.87,0,0,1,2.4,1.17,12.82,12.82,0,0,1-2.53-.67A12,12,0,0,1,310.28,289.46Z" style="fill:#263238"></path><path d="M274,253.22c-6.09-3.86-6.92-15-2.29-20.57,4.47-5.35,8.39-12.6,6.66-17.39a22.08,22.08,0,0,1-8.55,7.58c-4.43-4-1.83-11.63,2.51-15.74s10.17-6.84,13.19-12c6.13-10.5-2.31-25.52,4.67-35.48-8.95,4.95-4.36,20.14-11.52,27.44-1.87,1.92-4.38,3.07-6.51,4.68s-4,4.06-3.71,6.72q-.33-9.63-.65-19.25-.63-18.24-1.24-36.47c-.43-13-.86-26.05,1.89-38.71a47.7,47.7,0,0,0-10,35.19c.64,5.28,2.16,10.76.43,15.79s-8.71,8.55-12.44,4.77c-5.47-5.54,3.81-15.72-.3-22.33a11.29,11.29,0,0,1-22,1.3c-1-3.41-.32-7-.22-10.57s-.61-7.5-3.45-9.62c-3.33-2.49-8.29-1.47-11.8-3.71-6-3.8-4.16-14.16-10-18.22-3.37-2.35-7.9-1.58-12-2.1-5.88-.74-11.09-4.33-15-8.8s-3.45-36.81-6.13-42.09c-4.83,2.22-9.52,35.65-8.18,40.79s4.79,9.42,7.69,13.88c5.68,8.73,9.49,18.59,15.35,27.2,6.65,9.76,15.69,17.6,24.63,25.32,6.5,5.61,13.12,11.3,20.93,14.85,7.22,3.28,15.43,4.73,21.63,9.68,7.21,5.77,10.35,15.31,11.31,24.5s.09,18.5,1.1,27.69,4.28,18.7,11.61,24.33" style="fill:#E27676"></path><g style="opacity:0.7000000000000001"><path d="M274,253.22c-6.09-3.86-6.92-15-2.29-20.57,4.47-5.35,8.39-12.6,6.66-17.39a22.08,22.08,0,0,1-8.55,7.58c-4.43-4-1.83-11.63,2.51-15.74s10.17-6.84,13.19-12c6.13-10.5-2.31-25.52,4.67-35.48-8.95,4.95-4.36,20.14-11.52,27.44-1.87,1.92-4.38,3.07-6.51,4.68s-4,4.06-3.71,6.72q-.33-9.63-.65-19.25-.63-18.24-1.24-36.47c-.43-13-.86-26.05,1.89-38.71a47.7,47.7,0,0,0-10,35.19c.64,5.28,2.16,10.76.43,15.79s-8.71,8.55-12.44,4.77c-5.47-5.54,3.81-15.72-.3-22.33a11.29,11.29,0,0,1-22,1.3c-1-3.41-.32-7-.22-10.57s-.61-7.5-3.45-9.62c-3.33-2.49-8.29-1.47-11.8-3.71-6-3.8-4.16-14.16-10-18.22-3.37-2.35-7.9-1.58-12-2.1-5.88-.74-11.09-4.33-15-8.8s-3.45-36.81-6.13-42.09c-4.83,2.22-9.52,35.65-8.18,40.79s4.79,9.42,7.69,13.88c5.68,8.73,9.49,18.59,15.35,27.2,6.65,9.76,15.69,17.6,24.63,25.32,6.5,5.61,13.12,11.3,20.93,14.85,7.22,3.28,15.43,4.73,21.63,9.68,7.21,5.77,10.35,15.31,11.31,24.5s.09,18.5,1.1,27.69,4.28,18.7,11.61,24.33" style="fill:#fff"></path></g><path d="M211.1,141.85c-6.41-8.45-7.82-20.09-4.89-30.27a109.89,109.89,0,0,0,24.85,48.57" style="fill:#E27676"></path><path d="M160.13,117.12q-23.61-19.49-45.68-40.75a79.71,79.71,0,0,0,38.31,51.06L119,110.4c9.16,14.1,24,23.33,38.32,32.1l-41-15a195,195,0,0,0,57.7,35.63s-34.38-.47-49-5.81c0,0,3.29,5,12.67,10.36,10.43,6,32.17,7.4,32.17,7.4l-29,.28s-1.13,2.58,8.49,5.95,37.52,5.14,37.52,5.14l-30.38,4a5.66,5.66,0,0,0,4.46,4.25c3.89.9,12.49,1.64,12.49,1.64s-24.54,4.64-38.48.05c0,0,.09,11.56,21.53,12,7.18.15,21.93-.76,28.61,1.86l-18.91,6.3s2.64,5.15,14.65,6a165.53,165.53,0,0,0,23.05-.25l-26.21,14.65s2,3,7.54,2,20.2-6.53,20.2-6.53l-15.68,11a14.19,14.19,0,0,0,8,2.62c4.84,0,13.77-2.85,13.77-2.85l-21.76,9.51a7.47,7.47,0,0,0,7.53,4.28c5.53-.5,16.57-3.51,16.57-3.51l-13,10s2,4.42,5.2,3.83c8.7-1.61,18.43-7.93,18.43-7.93a68.42,68.42,0,0,1-10.58,9.84s2.41,3.45,8,1.46a59.51,59.51,0,0,0,12.21-6.1l-9.67,8.95s5.53,1.51,10.05,0,6.77,31.25,6.77,31.25l52.82-26.51c-26.44-18.88-32.7-50-32.25-88.07,0,0,.5-11.87-5.26-14.79S184.71,124,171.93,99.35s-23.64-52.63-23.64-52.63,4.39,25.71,7.81,34.45,16,30.68,16,30.68-36.43-41.22-38.45-48.64c0,0-1.57,19.5,26.66,55.06" style="fill:#E27676"></path><path d="M171.13,120.57l.41.35,1.17,1.07,4.51,4.19c3.92,3.67,9.6,9,16.66,15.59l.62.58-.8-.29-7.4-2.6.21-.32c3.39,3.68,7.08,7.65,11.24,11.65a104.38,104.38,0,0,0,14.14,11.57c5.32,3.58,11.4,6.47,17.42,9.93a66,66,0,0,1,8.8,5.91,32.28,32.28,0,0,1,7.35,8,19.39,19.39,0,0,1,2.78,7.76,68.26,68.26,0,0,1,.33,8,83.47,83.47,0,0,0,1.67,15.24l.18.87-.61-.65-2.14-2.31.43-.19a174.08,174.08,0,0,0,5.11,31.71c1.21,4.7,2.54,9.07,3.92,13.08s2.83,7.65,4,11a66,66,0,0,1,2.6,9.19,32.87,32.87,0,0,1,.68,7.09,25.79,25.79,0,0,1-.47,4.42c-.12.48-.2.85-.27,1.11s-.1.38-.1.38a3.93,3.93,0,0,1,.06-.39c.05-.27.13-.64.22-1.12a27.14,27.14,0,0,0,.4-4.41,34.31,34.31,0,0,0-.75-7,69.8,69.8,0,0,0-2.66-9.14c-1.18-3.35-2.66-7-4.05-11s-2.75-8.39-4-13.09A172.84,172.84,0,0,1,247.6,215l0-.69.47.51,2.15,2.31-.43.22a83.57,83.57,0,0,1-1.69-15.33,68.8,68.8,0,0,0-.33-8,18.83,18.83,0,0,0-2.72-7.55,31.42,31.42,0,0,0-7.23-7.92,66.22,66.22,0,0,0-8.72-5.87c-6-3.45-12.09-6.35-17.44-10a103.24,103.24,0,0,1-14.17-11.65c-4.17-4-7.85-8-11.23-11.7l-.52-.58.73.26,7.39,2.64-.18.3-16.55-15.71-4.45-4.25L171.5,121Z" style="fill:#263238"></path><path d="M232.9,204.19a4.43,4.43,0,0,1-.51.41l-1.51,1.1c-1.33.93-3.28,2.25-5.72,3.83-4.89,3.15-11.72,7.35-19.35,11.87s-14.62,8.47-19.72,11.24c-2.56,1.38-4.65,2.46-6.1,3.19l-1.69.8a3.52,3.52,0,0,1-.61.25,2.56,2.56,0,0,1,.56-.34l1.64-.89,6-3.33c5.06-2.85,12-6.86,19.64-11.37S220,212.28,225,209.22c2.46-1.54,4.44-2.81,5.81-3.68l1.56-1A2.33,2.33,0,0,1,232.9,204.19Z" style="fill:#263238"></path><path d="M227.38,192.69a3.06,3.06,0,0,1-.57.34l-1.7.89c-1.48.77-3.64,1.84-6.33,3.11-5.37,2.56-12.89,5.9-21.36,9.17s-16.28,5.87-22,7.6c-2.84.87-5.17,1.51-6.77,2l-1.82.58a3.65,3.65,0,0,1-.65.17,3.33,3.33,0,0,1,.62-.27l1.79-.67,6.72-2.12c5.66-1.82,13.44-4.45,21.9-7.73s16-6.55,21.4-9l6.39-3,1.74-.8A2.87,2.87,0,0,1,227.38,192.69Z" style="fill:#263238"></path><path d="M219.64,183.14a4.08,4.08,0,0,1-.68.35l-2,.91c-.86.41-1.94.84-3.2,1.34s-2.68,1.07-4.28,1.65a190.23,190.23,0,0,1-25.55,7.19,205.06,205.06,0,0,1-26.27,3.84c-1.69.16-3.23.22-4.57.3s-2.51.12-3.46.13l-2.19,0a3.85,3.85,0,0,1-.77,0,7,7,0,0,1,.76-.08l2.19-.12c1-.05,2.1-.11,3.45-.22s2.87-.19,4.56-.37a228.36,228.36,0,0,0,26.19-4,209.62,209.62,0,0,0,25.54-7c1.6-.55,3-1.07,4.3-1.57s2.35-.88,3.22-1.25l2-.82A4.51,4.51,0,0,1,219.64,183.14Z" style="fill:#263238"></path><path d="M208.49,179.14a2.36,2.36,0,0,1-.46.3l-1.35.78-1,.55-1.21.58c-.87.42-1.87.89-3,1.31a68.42,68.42,0,0,1-8.11,2.66c-3.11.8-6.57,1.5-10.23,2.1-7.32,1.15-14,1.74-18.82,2.23l-5.71.57-1.55.14a1.77,1.77,0,0,1-.55,0l.53-.12,1.55-.23c1.34-.21,3.29-.45,5.69-.74,4.81-.58,11.48-1.23,18.78-2.38,3.64-.59,7.09-1.28,10.19-2.05a72.5,72.5,0,0,0,8.1-2.53c1.14-.4,2.14-.84,3-1.24l1.23-.53,1-.51,1.39-.69A1.62,1.62,0,0,1,208.49,179.14Z" style="fill:#263238"></path><path d="M194,171.6a1.81,1.81,0,0,1-.51.18l-1.49.44c-.65.19-1.46.37-2.39.58s-2,.44-3.2.64a138.79,138.79,0,0,1-18.75,1.87c-7.36.3-14,.26-18.85.21l-5.71-.09-1.55-.05a2,2,0,0,1-.54-.06,3.37,3.37,0,0,1,.54,0l1.55,0,5.71-.08c4.82-.05,11.48-.06,18.82-.36a161,161,0,0,0,18.72-1.71c1.19-.18,2.26-.37,3.2-.56s1.75-.34,2.4-.5l1.51-.34A2,2,0,0,1,194,171.6Z" style="fill:#263238"></path><path d="M196.25,163.26a3.47,3.47,0,0,1-.73.06l-2.09,0c-1.81,0-4.43,0-7.67-.1-6.49-.14-15.44-.43-25.32-1s-18.81-1.4-25.23-2.39a63.92,63.92,0,0,1-7.53-1.54,19,19,0,0,1-2-.69,2.92,2.92,0,0,1-.66-.31,4.57,4.57,0,0,1,.7.22c.44.17,1.12.34,2,.59,1.76.43,4.33.92,7.54,1.36,6.41.9,15.33,1.65,25.2,2.24s18.82.94,25.3,1.17l7.67.27,2.08.07A4.14,4.14,0,0,1,196.25,163.26Z" style="fill:#263238"></path><path d="M236,211a2.39,2.39,0,0,1-.39.42l-1.2,1.14c-1.06,1-2.65,2.3-4.67,3.88-4,3.14-9.86,7.18-16.39,11.46l-16.73,10.94-5,3.36-1.37.91a3.27,3.27,0,0,1-.5.29,2.39,2.39,0,0,1,.44-.38l1.32-1c1.15-.86,2.84-2.05,5-3.5,4.21-2.91,10.12-6.79,16.65-11.07s12.36-8.26,16.45-11.33c2-1.53,3.66-2.82,4.76-3.73l1.26-1.07A3.16,3.16,0,0,1,236,211Z" style="fill:#263238"></path><path d="M231.65,229.13a5.47,5.47,0,0,1-.84,1c-.56.6-1.42,1.43-2.51,2.42a64.1,64.1,0,0,1-19.5,12c-1.38.54-2.5.93-3.29,1.16a5.52,5.52,0,0,1-1.24.32,7,7,0,0,1,1.17-.51c.77-.29,1.87-.73,3.22-1.31a75.35,75.35,0,0,0,19.4-12c1.12-1,2-1.74,2.61-2.29A6.31,6.31,0,0,1,231.65,229.13Z" style="fill:#263238"></path><path d="M233,234.25a9.35,9.35,0,0,1-.9,1.35c-.6.85-1.52,2.05-2.7,3.5a96.3,96.3,0,0,1-21.6,19.48c-1.56,1-2.85,1.81-3.76,2.32a10,10,0,0,1-1.44.75,9.56,9.56,0,0,1,1.33-.92c.88-.57,2.13-1.4,3.66-2.46a113.51,113.51,0,0,0,11.4-9,111,111,0,0,0,10.13-10.41c1.21-1.41,2.17-2.57,2.82-3.39A8.8,8.8,0,0,1,233,234.25Z" style="fill:#263238"></path><path d="M239.24,236.14a9,9,0,0,1-.58,1.55c-.4,1-1,2.4-1.91,4.1a85,85,0,0,1-7.93,12.65c-1.77,2.32-3.57,4.45-5.28,6.31s-3.36,3.45-4.8,4.7c-.71.65-1.38,1.19-2,1.67s-1.11.88-1.55,1.19a9.46,9.46,0,0,1-1.37.93,9.27,9.27,0,0,1,1.25-1.09c.42-.33.91-.75,1.48-1.26s1.22-1.05,1.91-1.71c1.41-1.28,3-2.91,4.7-4.75s3.45-4,5.21-6.3a97.45,97.45,0,0,0,8-12.51c.9-1.67,1.6-3.05,2.05-4A10.83,10.83,0,0,1,239.24,236.14Z" style="fill:#263238"></path><path d="M246.76,239.77a8.51,8.51,0,0,1-.14,1.63,31.89,31.89,0,0,1-.85,4.39A41.23,41.23,0,0,1,239.2,259a68.53,68.53,0,0,1-10.07,10.74c-1.42,1.24-2.59,2.22-3.41,2.88a8.69,8.69,0,0,1-1.31,1,10.37,10.37,0,0,1,1.18-1.14l3.3-3a76.86,76.86,0,0,0,9.89-10.78,43.11,43.11,0,0,0,6.63-12.95,40.75,40.75,0,0,0,1-4.32A12,12,0,0,1,246.76,239.77Z" style="fill:#263238"></path><path d="M280.83,292.88c-.07,0,.52-1.25,1.3-3.29a27.09,27.09,0,0,0,1.87-8.21,17.2,17.2,0,0,0-1.55-8.19,30.32,30.32,0,0,0-1.8-3s.28.2.68.66a11.78,11.78,0,0,1,1.45,2.18,16.4,16.4,0,0,1,1.74,8.38,24.47,24.47,0,0,1-2,8.32,24.08,24.08,0,0,1-1.13,2.34A3,3,0,0,1,280.83,292.88Z" style="fill:#263238"></path><path d="M285.24,292.11a7.76,7.76,0,0,1,.47-6.09,29.65,29.65,0,0,1-.34,3C285.23,290.72,285.39,292.08,285.24,292.11Z" style="fill:#263238"></path><path d="M275.8,292a5.39,5.39,0,0,1-.8,2.83,5.5,5.5,0,0,1-1.78,2.35,18.91,18.91,0,0,1,1.32-2.58A19.54,19.54,0,0,1,275.8,292Z" style="fill:#263238"></path><path d="M274.13,291.35a4.5,4.5,0,0,1-.35,2.31,4.63,4.63,0,0,1-1,2.11,6.25,6.25,0,0,1,.53-2.26A6.45,6.45,0,0,1,274.13,291.35Z" style="fill:#263238"></path><path d="M272,289.82a4.26,4.26,0,0,1,.27,2.4,4.19,4.19,0,0,1-.63,2.32,40.17,40.17,0,0,1,.36-4.72Z" style="fill:#263238"></path><path d="M258.66,264.59c-5.86-16.44-8.78-32.24-10.81-49.57a6.92,6.92,0,0,0,2.15,2.31,70.15,70.15,0,0,1-1.65-18.88,22.79,22.79,0,0,0-1.45-8.74c-1.55-4-3.88-6.42-6.68-9.34-2.21-2.31-5.14-3.7-7.75-5.54a103.27,103.27,0,0,0-12.19-7c-7.08-3.66-20.49-14.1-26.52-20.74l-7.39-7.86,7.39,2.62s-30-23.52-30-23.06c.44,4.24,13.45,20,9.21,19.15s-13-2.85-13-2.85c5.8,4.26,18,9.74,26,13.13a53.68,53.68,0,0,1-28.48-6.12,98.78,98.78,0,0,0,15.64,9.2c5.54,2.45,12.18,3.19,18.13,4.32,2.66.5,4.86.48,6.64,2.18l.92,1.94a2.73,2.73,0,0,1-1.94,3.45,77.76,77.76,0,0,0-7.91,1.22c3.16.4,8.53,1.07,11.69.72-1.22,4.5-6.23,6.42-12.45,7.75,5.71.54,13-2.42,18.66-3a4.82,4.82,0,0,1,2.65.43c3.15,1.58,3.89,6.11,1.43,7.79-4,2.71-8.95,4.25-13.11,5.92,5.15-1.47,10.48-2.21,15.63-3.68,1.49-.43,3.31-.77,4.33.45a2.6,2.6,0,0,1,.05,3s-3.3,1.48-4.83,2.05c-3.95,1.47-8,2.94-12,4.41,4.1-.64,9.12-1.07,13-2.56a28,28,0,0,1,6.91-2.16c2.41-.27,5.08.38,6.56,2.3a3.56,3.56,0,0,1,.81,2.43,4.4,4.4,0,0,1-2.4,3.3c-9.22,4.83-20.42,8.77-30.79,13.1,8.88-1.55,18.45-2.42,26-7.39a17.16,17.16,0,0,1,4.93-2.64,5.05,5.05,0,0,1,5.16,1.27,4.91,4.91,0,0,1,.08,5.45,13.41,13.41,0,0,1-4.16,4c-5.84,4.09-11.73,8.46-18.14,11.59,8.37-.29,15.46-6.24,22.52-10.54a3.14,3.14,0,0,1,3.9.44c1.42,1.52-.69,3.18-2.06,4.41-6.63,6-13.22,9.91-20.49,15,8.81-.7,18.14-3.36,24.72-9.25-1.43,6-6.8,10.19-11.07,14.63,4.57-1,10.39-5.34,13.7-8.69.79,4.44.83,11.77-1.86,15.39C243.05,238,244,233,244,230.39a82.43,82.43,0,0,1-2.95,24.36c3.87-3.82,4.89-9.6,5.7-15q.44,5.79.86,11.59a10.87,10.87,0,0,0,.87,4.16c1.07,2.09,3.35,3.24,5,4.93,3.34,3.46,3.65,8.73,4.51,13.47,1,5.73,4.07,10.47,6.17,15.9C265.66,281.28,261.58,272.75,258.66,264.59Z" style="opacity:0.30000000000000004"></path><path d="M244.89,284a11.89,11.89,0,0,1-1.75-5.67,14.09,14.09,0,0,1,.53-5.48l.19,0c-.08.28-.15.43-.18.42s0-.17,0-.46l.19,0a23.94,23.94,0,0,0-.2,5.39A35.87,35.87,0,0,0,244.89,284Z" style="fill:#263238"></path><path d="M246.29,287.18a10.77,10.77,0,0,1-1.1-4.28,10.52,10.52,0,0,1,.23-4.41c.15,0,0,2,.29,4.36S246.44,287.13,246.29,287.18Z" style="fill:#263238"></path><path d="M248.56,288.92a10.38,10.38,0,0,1-.9-7.31c.15,0,0,1.67.3,3.67S248.7,288.86,248.56,288.92Z" style="fill:#263238"></path><path d="M246.65,129.82c-1.52-1.32-2.72-4-3.19-7.15a36.53,36.53,0,0,0,2.62-7.61c1.83,3.72,2,10.11.48,14.27" style="fill:#E27676"></path><g style="opacity:0.7000000000000001"><path d="M246.65,129.82c-1.52-1.32-2.72-4-3.19-7.15a36.53,36.53,0,0,0,2.62-7.61c1.83,3.72,2,10.11.48,14.27" style="fill:#fff"></path></g><path d="M391.49,164.78a5.83,5.83,0,0,1-3.2-3.63,14.34,14.34,0,0,0,2.63-3.86,5.79,5.79,0,0,1,.47,7.24" style="fill:#E27676"></path><circle cx="393.52" cy="143.06" r="1.07" style="fill:#E27676"></circle><g style="opacity:0.7000000000000001"><path d="M391.49,164.78a5.83,5.83,0,0,1-3.2-3.63,14.34,14.34,0,0,0,2.63-3.86,5.79,5.79,0,0,1,.47,7.24" style="fill:#fff"></path></g><circle cx="393.52" cy="143.06" r="1.07" style="fill:#fff;opacity:0.7000000000000001"></circle><path d="M284.57,147.75a5.78,5.78,0,0,1-3.2-3.62,14.08,14.08,0,0,0,2.62-3.86,5.78,5.78,0,0,1,.48,7.24" style="fill:#E27676"></path><circle cx="286.59" cy="126.03" r="1.07" style="fill:#E27676"></circle><g style="opacity:0.7000000000000001"><path d="M284.57,147.75a5.78,5.78,0,0,1-3.2-3.62,14.08,14.08,0,0,0,2.62-3.86,5.78,5.78,0,0,1,.48,7.24" style="fill:#fff"></path></g><circle cx="286.59" cy="126.03" r="1.07" style="fill:#fff;opacity:0.7000000000000001"></circle><path d="M173.65,257.42a27.36,27.36,0,0,1-6.2-2.19,9.14,9.14,0,0,1-4.37-4.74c-.71-2-.48-4.32-1.56-6.15-1.67-2.82-6-3.68-6.77-6.87a26.92,26.92,0,0,1,18.69,19.77" style="fill:#E27676"></path><g style="opacity:0.7000000000000001"><path d="M173.65,257.42a27.36,27.36,0,0,1-6.2-2.19,9.14,9.14,0,0,1-4.37-4.74c-.71-2-.48-4.32-1.56-6.15-1.67-2.82-6-3.68-6.77-6.87a26.92,26.92,0,0,1,18.69,19.77" style="fill:#fff"></path></g><path d="M347.33,288.06c0,.16-1,.28-2.13.82s-1.86,1.25-2,1.15.51-1,1.74-1.62A3.09,3.09,0,0,1,347.33,288.06Z" style="fill:#E27676"></path></g></svg>