<svg xmlns="http://www.w3.org/2000/svg" viewBox="0 0 500 500"><g id="freepik--background-complete--inject-101"><path d="M161.85,107.28a19.69,19.69,0,0,1-25.5-18.58,19.69,19.69,0,0,1,25.51-19,18.8,18.8,0,0,0,0,37.6Z" style="fill:#e0e0e0"></path><path d="M95.21,156.44h68.71s-4.47-8.94-7.79-4.85c0,0-11-11.62-15.32-4.22,0,0-13.29-20.05-16.48-7.79,0,0-17.24-18.39-17.11,4,0,0-8.31-8-8.69,2.43C98.53,146,93.17,145.46,95.21,156.44Z" style="fill:#e6e6e6"></path><path d="M424.39,268.28H355.67s4.47-8.94,7.79-4.85c0,0,11-11.62,15.33-4.21,0,0,13.28-20.06,16.48-7.79,0,0,17.24-18.4,17.11,3.95,0,0,8.3-8,8.69,2.43C421.07,257.81,426.43,257.3,424.39,268.28Z" style="fill:#e6e6e6"></path><path d="M320.45,124.91h50.06s-4.11-6.46-6.81-4.11c0,0-8.58-7.88-12.7-2.71,0,0-10.34-13.63-13.63-5,0,0-7.29-6-10.58-4.7s-4.11,6.58-2.58,11C324.21,119.39,320,120.56,320.45,124.91Z" style="fill:#e6e6e6"></path><rect x="150.04" y="388.78" width="23.18" height="0.25" style="fill:#ebebeb"></rect><path d="M237,337.8H43.91a5.71,5.71,0,0,1-5.7-5.71V60.66A5.71,5.71,0,0,1,43.91,55H237a5.71,5.71,0,0,1,5.71,5.71h0V332.09A5.71,5.71,0,0,1,237,337.8ZM43.91,55.2a5.46,5.46,0,0,0-5.45,5.46V332.09a5.46,5.46,0,0,0,5.45,5.46H237a5.48,5.48,0,0,0,5.46-5.46V60.66A5.48,5.48,0,0,0,237,55.2Z" style="fill:#ebebeb"></path><path d="M453.31,337.8H260.21a5.73,5.73,0,0,1-5.71-5.71V60.66A5.72,5.72,0,0,1,260.21,55h193.1A5.71,5.71,0,0,1,459,60.66V332.09A5.7,5.7,0,0,1,453.31,337.8ZM260.21,55.2a5.48,5.48,0,0,0-5.46,5.46V332.09a5.48,5.48,0,0,0,5.46,5.46h193.1a5.48,5.48,0,0,0,5.46-5.46V60.66a5.48,5.48,0,0,0-5.46-5.46Z" style="fill:#ebebeb"></path></g><g id="freepik--Shadow--inject-101"><path d="M388.15,441.52c0,3.81-61.85,6.9-138.15,6.9s-138.15-3.09-138.15-6.9,61.85-6.91,138.15-6.91S388.15,437.7,388.15,441.52Z" style="fill:#f5f5f5"></path></g><g id="freepik--Character--inject-101"><path d="M390.26,316.47h-.21L131.12,288.32a2,2,0,0,1,.43-4l258.93,28.14a2,2,0,0,1-.22,4Z" style="fill:#263238"></path><path d="M447.67,299.33s-71.57-11.05-77.21,12.2,43.72,31.75,78.26,31.24C448.72,342.77,453.87,322,447.67,299.33Z" style="fill:#8D63D5"></path><path d="M447.67,299.33s-71.57-11.05-77.21,12.2,43.72,31.75,78.26,31.24C448.72,342.77,453.87,322,447.67,299.33Z" style="opacity:0.30000000000000004"></path><line x1="393.47" y1="297.96" x2="392.65" y2="335.46" style="fill:none;stroke:#fff;stroke-linecap:round;stroke-linejoin:round"></line><path d="M265,242.35s-42.9,45.59-54.72,65.78-18.81,26.65-13.93,39.55,43.89,33.73,63.54,40.16l.13-9.51S232,360,218.63,342.79c0,0,34.49-43.34,47.46-55.24s19.06-21.08,19.06-21.08Z" style="fill:#8D63D5"></path><path d="M285.15,266.48s-6.08,9.18-19,21.07c-7.82,7.17-23.44,25.74-34.62,39.38l-2.32,2.83c-2.18,2.67-4.13,5.08-5.75,7.08l-2.13,2.65-2.64,3.3.06.08c.63.81,1.3,1.63,2,2.44,1.29,1.53,2.69,3.06,4.16,4.57q1.62,1.69,3.35,3.35c2.21,2.13,4.52,4.21,6.84,6.21,1.12,1,2.24,1.92,3.36,2.83,3,2.52,6,4.85,8.74,6.91l.93.69,1.69,1.27.83.61c5.54,4.05,9.39,6.58,9.39,6.58l-.14,9.52a154.22,154.22,0,0,1-16.17-6.54c-1.17-.54-2.35-1.1-3.55-1.68-3.43-1.66-6.95-3.46-10.42-5.36-1.35-.73-2.68-1.48-4-2.23-3-1.74-6-3.52-8.78-5.32-1.43-.93-2.83-1.86-4.17-2.79a95.4,95.4,0,0,1-8.67-6.68,45.42,45.42,0,0,1-4.29-4.23,18.35,18.35,0,0,1-3.47-5.33c-2.67-7.05-1.79-12.19,1.49-18.69.9-1.79,2-3.67,3.22-5.74,1.7-2.84,3.71-6,6-9.7.89-1.46,1.82-3,2.78-4.64l.47-.79c11.82-20.19,54.1-61.72,54.1-61.72Z" style="opacity:0.30000000000000004"></path><path d="M250.6,371.75l-6.92,9.56c-1.17-.54-2.35-1.1-3.55-1.68l7-10.45.93.69,1.69,1.27Z" style="fill:#263238"></path><path d="M238.41,362.27l-8.7,12c-1.35-.73-2.68-1.48-4-2.23l9.35-12.6C236.17,360.41,237.29,361.36,238.41,362.27Z" style="fill:#263238"></path><path d="M228.21,353.23l-11.29,13.49c-1.43-.93-2.83-1.86-4.17-2.79l12.11-14.05Q226.48,351.58,228.21,353.23Z" style="fill:#263238"></path><path d="M220.7,345.31l-16.62,11.94a45.42,45.42,0,0,1-4.29-4.23l18.91-10.15C219.33,343.68,220,344.5,220.7,345.31Z" style="fill:#263238"></path><path d="M223.41,336.84l-2.13,2.65L197.81,329c.9-1.79,2-3.67,3.22-5.74Z" style="fill:#263238"></path><path d="M231.48,326.93l-2.32,2.83L207,313.56c.89-1.46,1.82-3,2.78-4.64Z" style="fill:#263238"></path><path d="M324,375.3a159.83,159.83,0,0,1-21.74.61c-1.78-.05-3.59-.13-5.4-.23-2.51-.14-5-.33-7.54-.56-1.76-.16-3.51-.35-5.23-.56-3.14-.38-6.19-.83-9.06-1.37-1.75-.32-3.43-.68-5-1.06-6.3-1.52-11.3-3.5-13.82-6-6.64-6.55-6.5-12.65-5.12-24.06.19-1.56.4-3.22.62-5,.25-2,.51-4.12.76-6.41.09-.83.18-1.68.27-2.56s.18-1.6.3-2.47c3.15-22.62,20.07-72.72,20.07-72.72l24.12,12.43s.17,9.79-6.05,24.56c-3.28,7.78-8.2,25-12.11,39.64-.43,1.59-.85,3.15-1.25,4.67-.59,2.21-1.14,4.32-1.65,6.28-.39,1.51-.76,2.93-1.09,4.24-1.39,5.39-2.25,8.88-2.25,8.88.67.35,1.37.7,2.08,1,1.26.6,2.58,1.19,3.94,1.75,2.79,1.15,5.74,2.22,8.72,3.19,1.4.45,2.81.89,4.22,1.3,2.6.77,5.19,1.48,7.69,2.11,1.65.42,3.25.8,4.79,1.15h0c9.24,2.15,16.25,3.21,16.25,3.21Z" style="fill:#8D63D5"></path><path d="M324,375.3a159.83,159.83,0,0,1-21.74.61c-1.78-.05-3.59-.13-5.4-.23-2.51-.14-5-.33-7.54-.56-1.76-.16-3.51-.35-5.23-.56-3.14-.38-6.19-.83-9.06-1.37-1.75-.32-3.43-.68-5-1.06-6.3-1.52-11.3-3.5-13.82-6-6.64-6.55-6.5-12.65-5.12-24.06.19-1.56.4-3.22.62-5,.25-2,.51-4.12.76-6.41.09-.83.18-1.68.27-2.56s.18-1.6.3-2.47c3.15-22.62,20.07-72.72,20.07-72.72l22.47,15s1.82,7.21-4.4,22c-3.28,7.78-8.2,25-12.11,39.64-.43,1.59-.85,3.15-1.25,4.67-.59,2.21-1.14,4.32-1.65,6.28-.39,1.51-.76,2.93-1.09,4.24-1.39,5.39-2.25,8.88-2.25,8.88.67.35,1.37.7,2.08,1,1.26.6,2.58,1.19,3.94,1.75,2.79,1.15,5.74,2.22,8.72,3.19,1.4.45,2.81.89,4.22,1.3,2.6.77,5.19,1.48,7.69,2.11,1.65.42,3.25.8,4.79,1.15h0c9.24,2.15,16.25,3.21,16.25,3.21Z" style="opacity:0.30000000000000004"></path><path d="M304.22,364.17l-2,11.74c-1.78-.05-3.59-.13-5.4-.23L299.43,363C301.08,363.44,302.68,363.82,304.22,364.17Z" style="fill:#263238"></path><path d="M291.74,360.91l-2.44,14.21c-1.76-.16-3.51-.35-5.23-.56l3.45-14.95C288.92,360.06,290.33,360.5,291.74,360.91Z" style="fill:#263238"></path><path d="M278.8,356.42,275,373.19c-1.75-.32-3.43-.68-5-1.06l4.88-17.46C276.12,355.27,277.44,355.86,278.8,356.42Z" style="fill:#263238"></path><path d="M279,329.56c-.43,1.59-.85,3.15-1.25,4.67l-25.35-3.55c.09-.83.18-1.68.27-2.56s.18-1.6.3-2.47Z" style="fill:#263238"></path><path d="M276.12,340.51c-.39,1.51-.76,2.93-1.09,4.24l-24-2.67c.19-1.56.4-3.22.62-5Z" style="fill:#263238"></path><path d="M326.38,180.87A23.45,23.45,0,0,0,324,179c-5.29-3.61-11.9-4.63-16.6-9.29-3.22-3.19-5.14-7.55-8.53-10.55-8.54-7.55-23.18-4.13-31.55-11.86-2.3-2.13-3.62-4.9-4.82-7.72-2.75-7.57-8.42-14.81-15-15.59-17.05-2-24.53,14.76-24.53,14.76-13.06,6.95-5.56,18.1-2.54,25.19s-2.07,12.17-3.56,21.1,7.89,13.12,7.89,13.12c0,18,22.59,27.64,45.25,29.39,1.2,2,2.54,3.7,4.17,4.05a54.64,54.64,0,0,0,36.48-5.21c12.11-6.33,25.85-17.45,23-32.82A23,23,0,0,0,326.38,180.87Z" style="fill:#263238"></path><path d="M238,224.88S237,257.62,234.14,264s-28.76,22.43-28.76,22.43l-3-9.34,18.68-18.68-.46-35S232.66,218.13,238,224.88Z" style="fill:#913b38"></path><path d="M295.53,211.9s14.56,21.8,15.65,25.72-4.87,46-8.95,57.89c0,0,.83,5.06,2.65,6.47s7.46,4.12,9.31,2.78.59-13,.59-13a23.71,23.71,0,0,0-2.08-5.53s7.18-19.15,10.13-31,2.13-18.55.38-24.31-18.28-33.33-18.28-33.33Z" style="fill:#913b38"></path><path d="M322.45,377.64s-5.72,5.1-3.62,6.34S322.45,377.64,322.45,377.64Z" style="fill:none;stroke:#8D63D5;stroke-miterlimit:10"></path><path d="M322.45,377.64s-1.33,8.48,1.63,8.48S322.45,377.64,322.45,377.64Z" style="fill:none;stroke:#8D63D5;stroke-miterlimit:10"></path><path d="M312.42,363.25l-1.34,16.31,11.37-1.92S330.17,385.71,333,392a3.83,3.83,0,0,0,3.4-.23c1.88-1-.48-5.19-1.36-8.2s-4.47-20.58-6.18-21.08S312.42,363.25,312.42,363.25Z" style="fill:#263238"></path><path d="M258.34,389.08s-7.29,2.37-5.86,4.34S258.34,389.08,258.34,389.08Z" style="fill:none;stroke:#8D63D5;stroke-miterlimit:10"></path><path d="M258.34,389.08s-4.64,7.23-1.92,8.42S258.34,389.08,258.34,389.08Z" style="fill:none;stroke:#8D63D5;stroke-miterlimit:10"></path><path d="M256.4,372.74l-9,14.1,9.86,2.64s4,11.6,3.93,19.17a4.17,4.17,0,0,0,3.5,1.32c2.34-.15,1.89-5.4,2.39-8.81s4.95-22.6,3.47-23.88S256.4,372.74,256.4,372.74Z" style="fill:#263238"></path><path d="M202.37,277.09l-13.86,10.62.09,8.06,6.14,2.24s4.48.73,7.63-4.95a41.14,41.14,0,0,1,6-8.54Z" style="fill:#913b38"></path><path d="M264.19,182.83s11.59-3.19,16.39-2.7c7.22.75,21.57,9.7,27.85,19.07l-14.34,18.05L287.62,209s1.91,30.41-1.77,47.48c0,0-3.85,16-7.75,38.84,0,0-1.14,2.33-4.44,1.81S263,289.82,258,283.75s-5.7-16.36-4.95-22l-13.72-28.88-19,3.84s-1.73-28.33,7.89-36.79C228.26,199.92,241.5,188.09,264.19,182.83Z" style="fill:#8D63D5"></path><path d="M264.19,182.73s11.59-3.19,16.39-2.69c7.22.74,21.57,9.69,27.85,19.06l-14.34,18.06-6.47-8.3s1.91,30.42-1.77,47.49c0,0-3.85,16-7.75,38.84,0,0-1.14,2.33-4.44,1.8S263,289.72,258,283.66s-5.7-16.37-4.95-22l-13.72-28.79-19,3.84s-1.73-28.42,7.89-36.89C228.26,199.82,241.5,188,264.19,182.73Z" style="opacity:0.30000000000000004"></path><polygon points="294.09 217.16 286.8 203.42 287.62 208.87 294.09 217.16" style="opacity:0.2"></polygon><polygon points="239.33 232.87 237.96 220.61 237.96 233.15 239.33 232.87" style="opacity:0.2"></polygon><path d="M247.51,245.57l-48.19,48S251.16,361,317.24,312c0,0-13.37-32.09-30.12-69.18Z" style="fill:#8D63D5"></path><path d="M246.05,247s24.87,2,41.51-3.51l.38-6.87s-34.11,6.8-44.37,5.17Z" style="fill:#263238"></path><path d="M265,185.65c-8.57,6.89-16.26,4.85-18.66,3.94,5.3-4,2.16-11.17,2.16-11.17s-11.74,4.69-19.61-12.91-1.78-24.36-1.78-24.36c13.27,12.24,29.93,9,29.93,9,1.18-2.4,6.92-3.48,7.7,1.33.95,5.89-3.18,7.9-3.18,7.9a15.89,15.89,0,0,1-1.67,10.48,57,57,0,0,0,2.81,12.26A9,9,0,0,0,265,185.65Z" style="fill:#913b38"></path><path d="M242.62,167.26s4.19-2.08,4.85-6" style="fill:none;stroke:#263238;stroke-linecap:round;stroke-linejoin:round;stroke-width:0.75px"></path><path d="M236.81,149.19a6.13,6.13,0,0,1,6.68.83" style="fill:none;stroke:#263238;stroke-linecap:round;stroke-linejoin:round"></path><path d="M225,155.41s.22-2.54,3.89-3.3" style="fill:none;stroke:#263238;stroke-linecap:round;stroke-linejoin:round"></path><path d="M240.33,154.75c.37.85.22,1.74-.34,2s-1.3-.26-1.66-1.11-.22-1.74.33-2S240,153.9,240.33,154.75Z" style="fill:#263238"></path><path d="M238.66,153.64l-2.54.42S237.74,155.21,238.66,153.64Z" style="fill:#263238"></path><path d="M230.38,159.3c.37.85.22,1.74-.33,2s-1.3-.25-1.67-1.1-.22-1.74.33-2S230,158.45,230.38,159.3Z" style="fill:#263238"></path><path d="M228.66,158.2l-2.54.42A1.72,1.72,0,0,0,228.66,158.2Z" style="fill:#263238"></path><path d="M237.22,165.53l-2.77-6.07-.79,6.66A4.42,4.42,0,0,0,237.22,165.53Z" style="fill:#740606"></path><path d="M259.12,132.88l-46.46,11.57s3.05.15,3.1-6.15c0-3.92.09-8.65.14-13.7.21-19.66.52-44.19.75-44.54,1.36-2.07,18,19.49,30.73,36.47,3,4,5.73,7.71,8,10.83C259.26,132.62,259.12,132.88,259.12,132.88Z" style="fill:#8D63D5"></path><path d="M255.87,127.24,215.76,138.3c0-3.92.09-8.65.14-13.7l31.58-8.07C250.53,120.61,253.58,124.26,255.87,127.24Z" style="fill:#263238"></path><path d="M260.86,136c-.94-1.85-2.08-4-2.08-4L218.13,142.3a12.37,12.37,0,0,0-2.65,6.4c-15.38,3.32-26.42,4.43-27,2.42-.81-2.93,20.16-11.33,46.84-18.76s49-11.1,49.79-8.17C285.68,126.21,275.82,130.85,260.86,136Z" style="fill:#8D63D5"></path><path d="M260.86,136c-.94-1.85-2.08-4-2.08-4l-40.41,10.19a15,15,0,0,0-2.89,6.54c-15.38,3.32-26.42,4.43-27,2.42-.81-2.93,20.16-11.33,46.84-18.76s49-11.1,49.79-8.17C285.68,126.21,275.82,130.85,260.86,136Z" style="opacity:0.30000000000000004"></path><path d="M270.19,128.73c.3,1.1-15.64,6.5-35.61,12.07s-36.41,9.18-36.72,8.09,15.64-6.51,35.61-12.07S269.88,127.63,270.19,128.73Z" style="fill:#263238"></path><path d="M178.47,266.93c-.71-9.21-1.82-19.73-7.88-24.88l0-10.15h0a99.83,99.83,0,0,0-1.12-15.6l-3.86,8.49h-11.8l-5.62-6.45v13.29s-.64,7,3.4,9.15v.08c-1,1.17-9.67,11.5-11.52,21.73-.39,2.16-.74,4.29-.93,6.36-2.36-.61-7.92-2.67-8.92-8.63-1.14-6.89.31-24.52-7.77-27.08a2.18,2.18,0,0,0-2.83,2.08,2.21,2.21,0,0,0,1.43,2c1.56.61,3.91,2.44,4.42,7.86.78,8.08-1.3,24.77,13.51,27.55.14,6.79,2.89,12.61,12.71,15.88C166.14,293.48,180.24,289.63,178.47,266.93Z" style="fill:#263238"></path></g><g id="freepik--Stars--inject-101"><path d="M307.65,84.12l-3.76-3.06a1.56,1.56,0,0,0-1.45-.3l-4.65,1.35A1.6,1.6,0,0,1,295.85,80l1.76-4.52a1.6,1.6,0,0,0-.17-1.47l-2.73-4a1.6,1.6,0,0,1,1.42-2.5l4.83.28a1.6,1.6,0,0,0,1.36-.62l3-3.83a1.6,1.6,0,0,1,2.81.58l1.24,4.68a1.6,1.6,0,0,0,1,1.1l4.56,1.64a1.6,1.6,0,0,1,.32,2.85l-4.07,2.62a1.58,1.58,0,0,0-.73,1.29l-.15,4.84A1.6,1.6,0,0,1,307.65,84.12Z" style="fill:#8D63D5"></path><path d="M446.19,140.56l-4.55,1.65a1.58,1.58,0,0,0-1,1.1L439.42,148a1.6,1.6,0,0,1-2.81.58l-3-3.83a1.61,1.61,0,0,0-1.36-.61l-4.83.29a1.6,1.6,0,0,1-1.42-2.49l2.71-4a1.57,1.57,0,0,0,.17-1.47l-1.77-4.52a1.59,1.59,0,0,1,1.93-2.11l4.66,1.34a1.61,1.61,0,0,0,1.45-.3l3.75-3.08a1.6,1.6,0,0,1,2.61,1.18l.16,4.84a1.63,1.63,0,0,0,.74,1.3l4.08,2.61A1.6,1.6,0,0,1,446.19,140.56Z" style="fill:#8D63D5"></path><path d="M358.63,169.63l-1.67-.32a.57.57,0,0,0-.5.16l-1.22,1.19a.56.56,0,0,1-.95-.33l-.21-1.69a.56.56,0,0,0-.3-.43l-1.51-.78a.57.57,0,0,1,0-1l1.54-.72a.56.56,0,0,0,.32-.42l.28-1.68a.56.56,0,0,1,1-.29l1.16,1.24a.58.58,0,0,0,.5.18l1.68-.26a.57.57,0,0,1,.58.83l-.83,1.49a.56.56,0,0,0,0,.52l.77,1.52A.56.56,0,0,1,358.63,169.63Z" style="fill:#8D63D5"></path><path d="M389.75,215.57,389,214a.56.56,0,0,0-.42-.31l-1.69-.26a.56.56,0,0,1-.3-1l1.23-1.18a.55.55,0,0,0,.16-.49l-.27-1.68a.56.56,0,0,1,.82-.59l1.5.81a.59.59,0,0,0,.52,0l1.51-.78a.56.56,0,0,1,.81.6l-.3,1.67a.58.58,0,0,0,.16.5l1.21,1.2a.56.56,0,0,1-.32,1l-1.68.23a.56.56,0,0,0-.43.31l-.76,1.52A.57.57,0,0,1,389.75,215.57Z" style="fill:#8D63D5"></path><path d="M65.78,280.48l-.68-1.56a.56.56,0,0,0-.41-.33L63,278.27a.57.57,0,0,1-.26-1L64,276.17a.57.57,0,0,0,.19-.49L64,274a.56.56,0,0,1,.84-.55l1.47.87a.56.56,0,0,0,.52,0l1.55-.71a.56.56,0,0,1,.78.63l-.37,1.66a.54.54,0,0,0,.14.5l1.15,1.25a.56.56,0,0,1-.36.94l-1.69.16a.59.59,0,0,0-.44.29l-.83,1.48A.56.56,0,0,1,65.78,280.48Z" style="fill:#8D63D5"></path><path d="M100.63,324.86l.85-1.48a.56.56,0,0,0,0-.52l-.74-1.53a.57.57,0,0,1,.63-.8l1.66.35a.57.57,0,0,0,.51-.14l1.23-1.17a.56.56,0,0,1,.94.35l.18,1.69a.56.56,0,0,0,.3.43l1.49.81a.56.56,0,0,1,0,1l-1.55.69a.56.56,0,0,0-.32.41l-.31,1.68a.56.56,0,0,1-1,.27l-1.14-1.26a.56.56,0,0,0-.49-.18l-1.69.22A.56.56,0,0,1,100.63,324.86Z" style="fill:#8D63D5"></path><path d="M104.05,208.22l-3-3.8a1.63,1.63,0,0,0-1.36-.6l-4.84.33a1.6,1.6,0,0,1-1.44-2.48l2.68-4a1.62,1.62,0,0,0,.16-1.48l-1.81-4.49a1.6,1.6,0,0,1,1.91-2.14l4.67,1.31a1.58,1.58,0,0,0,1.45-.32l3.72-3.1a1.59,1.59,0,0,1,2.62,1.15l.21,4.85a1.6,1.6,0,0,0,.74,1.28l4.11,2.58a1.6,1.6,0,0,1-.3,2.85L109,201.81a1.6,1.6,0,0,0-1,1.11l-1.18,4.7A1.6,1.6,0,0,1,104.05,208.22Z" style="fill:#8D63D5"></path></g></svg>